<?xml version="1.0" encoding="UTF-8" standalone="no"?>
<!-- Created with Inkscape (http://www.inkscape.org/) -->

<svg
   xmlns:dc="http://purl.org/dc/elements/1.1/"
   xmlns:cc="http://creativecommons.org/ns#"
   xmlns:rdf="http://www.w3.org/1999/02/22-rdf-syntax-ns#"
   xmlns:svg="http://www.w3.org/2000/svg"
   xmlns="http://www.w3.org/2000/svg"
   xmlns:sodipodi="http://sodipodi.sourceforge.net/DTD/sodipodi-0.dtd"
   xmlns:inkscape="http://www.inkscape.org/namespaces/inkscape"
   width="280.34183"
   height="382.93048"
   id="svg4059"
   version="1.1"
   inkscape:version="0.48.3.1 r9886"
   sodipodi:docname="ara-seedling.svg">
  <defs
     id="defs4061" />
  <sodipodi:namedview
     id="base"
     pagecolor="#ffffff"
     bordercolor="#666666"
     borderopacity="1.0"
     inkscape:pageopacity="0.0"
     inkscape:pageshadow="2"
     inkscape:zoom="0.9899495"
     inkscape:cx="174.6592"
     inkscape:cy="210.84644"
     inkscape:document-units="px"
     inkscape:current-layer="layer1"
     showgrid="false"
     inkscape:window-width="1024"
     inkscape:window-height="551"
     inkscape:window-x="0"
     inkscape:window-y="0"
     inkscape:window-maximized="1"
     fit-margin-top="0"
     fit-margin-left="0"
     fit-margin-right="0"
     fit-margin-bottom="0" />
  <metadata
     id="metadata4064">
    <rdf:RDF>
      <cc:Work
         rdf:about="">
        <dc:format>image/svg+xml</dc:format>
        <dc:type
           rdf:resource="http://purl.org/dc/dcmitype/StillImage" />
        <dc:title />
      </cc:Work>
    </rdf:RDF>
  </metadata>
  <g
     inkscape:label="Layer 1"
     inkscape:groupmode="layer"
     id="layer1"
     transform="translate(-108.40283,-151.91328)">
    <path
       style="fill:none;stroke:#000000;stroke-width:2;stroke-linecap:butt;stroke-linejoin:miter;stroke-miterlimit:4;stroke-opacity:1;stroke-dasharray:none"
       d="m 160.05642,480.36896 c -11.84144,7.83152 -12.5062,23.46949 -19.64286,33.92857"
       id="path3979"
       inkscape:connector-curvature="0"
       sodipodi:nodetypes="cc" />
    <path
       style="fill:none;stroke:#000000;stroke-width:2;stroke-linecap:butt;stroke-linejoin:miter;stroke-miterlimit:4;stroke-opacity:1;stroke-dasharray:none"
       d="m 167.19927,454.65468 c -13.48853,4.94414 -21.02672,18.46622 -26.07142,31.07143"
       id="path3981"
       inkscape:connector-curvature="0"
       sodipodi:nodetypes="cc" />
    <path
       style="fill:none;stroke:#000000;stroke-width:2;stroke-linecap:butt;stroke-linejoin:miter;stroke-miterlimit:4;stroke-opacity:1;stroke-dasharray:none"
       d="m 166.12785,471.08325 c 8.30096,4.54764 4.61721,24.56065 7.5,33.21428"
       id="path3983"
       inkscape:connector-curvature="0"
       sodipodi:nodetypes="cc" />
    <path
       style="fill:none;stroke:#000000;stroke-width:2;stroke-linecap:butt;stroke-linejoin:miter;stroke-miterlimit:4;stroke-opacity:1;stroke-dasharray:none"
       d="m 167.55642,435.36896 c 8.53828,5.90149 8.1791,15.85392 13.21428,23.57143"
       id="path3985"
       inkscape:connector-curvature="0"
       sodipodi:nodetypes="cc" />
    <path
       style="fill:none;stroke:#000000;stroke-width:2;stroke-linecap:butt;stroke-linejoin:miter;stroke-miterlimit:4;stroke-opacity:1;stroke-dasharray:none"
       d="m 171.09195,417.3385 c -9.30365,5.95512 -15.7553,22.86066 -19.24982,32.67332"
       id="path3987"
       inkscape:connector-curvature="0"
       sodipodi:nodetypes="cc" />
    <path
       style="fill:none;stroke:#000000;stroke-width:2;stroke-linecap:butt;stroke-linejoin:miter;stroke-miterlimit:4;stroke-opacity:1;stroke-dasharray:none"
       d="m 180.27831,388.26943 c -9.6389,2.95991 -17.01621,7.69841 -22.36475,16.0281"
       id="path3989"
       inkscape:connector-curvature="0"
       sodipodi:nodetypes="cc" />
    <path
       style="fill:#800000;stroke:#000000;stroke-width:2;stroke-linecap:butt;stroke-linejoin:miter;stroke-miterlimit:4;stroke-opacity:1;stroke-dasharray:none"
       d="m 186.60657,198.41871 c -13.63473,8.77461 -34.37354,17.89177 -43.8283,16.53437 -15.582,-1.44501 -35.97348,-6.8024 -33.11151,-24.71163 -0.66591,-17.8153 15.24595,-30.67222 30.95152,-35.47285 16.25379,-3.37721 37.11461,-1.37772 49.8986,0.21821 14.3982,1.40604 34.0401,12.24673 45.07525,16.09643 5.0024,0.6084 11.03996,1.48433 17.35145,0.3426 14.83949,-3.51466 28.22243,-9.4206 43.57363,-11.79887 18.82784,-3.02109 37.57996,2.60926 55.66505,6.55885 15.03029,7.12106 35.77893,12.9964 35.50173,33.10498 1.36553,18.4131 -19.70424,22.30113 -32.51963,22.79526 -15.25776,-0.29352 -31.27694,-7.48637 -44.22142,-15.16798 -6.9596,-4.47374 -41.52274,-24.19888 -62.39275,-22.00996 -25.20936,-1.66658 -49.75849,5.91239 -61.94362,13.51059 z"
       id="path3007"
       inkscape:connector-curvature="0" />
    <path
       style="fill:#ff0000;stroke:#000000;stroke-width:2;stroke-linecap:butt;stroke-linejoin:miter;stroke-miterlimit:4;stroke-opacity:1;stroke-dasharray:none"
       d="m 241.27168,263.36684 c 0.30737,-15.44303 1.22219,-48.74545 0.3543,-63.72523 0.0719,-3.8403 -1.23273,-15.78832 0.34901,-12.76678 l 14.74314,0.32333 c 0.60822,2.99191 0.26792,24.48232 1.55257,37.09937 -0.19993,15.39598 -0.0139,23.60574 -0.73674,40.26214 z"
       id="path3005"
       inkscape:connector-curvature="0"
       sodipodi:nodetypes="ccccccc" />
    <path
       style="fill:#808000;stroke:#000000;stroke-width:2;stroke-linecap:butt;stroke-linejoin:miter;stroke-miterlimit:4;stroke-opacity:1;stroke-dasharray:none"
       d="m 254.19659,315.87147 c -2.50724,16.82456 -13.86975,29.19052 -24.00244,41.99485 -11.19161,13.37938 -26.51709,24.30736 -37.64545,36.45554 -10.82137,11.85093 -10.2787,22.97745 -23.36885,34.74578 -0.26575,-4.84604 1.51925,-12.97269 3.02487,-18.0146 1.7957,-16.51814 13.54834,-33.93737 25.1455,-44.47864 11.41554,-9.72724 27.83644,-22.18519 32.70619,-36.40568 7.22131,-13.65135 6.96462,-24.4391 10.46501,-39.396 0.74296,-14.75801 0.46905,-11.30273 0.64722,-25.22326 5.12818,0.43759 11.54807,1.0069 16.37353,1.24121 0.87857,16.1339 -5.08283,31.78727 -3.34558,49.0808 z"
       id="path4613"
       inkscape:connector-curvature="0"
       sodipodi:nodetypes="ccccccccccc" />
    <path
       style="fill:none;stroke:#000000;stroke-width:2;stroke-linecap:butt;stroke-linejoin:miter;stroke-miterlimit:4;stroke-opacity:1;stroke-dasharray:none"
       d="m 168.73338,429.05786 c -0.37195,10.37322 -1.78537,29.15248 -1.89125,39.52539 -10.85777,12.87949 -10.79787,31.92175 -11.02293,47.88215 -1.38863,6.13199 -4.83639,11.37271 -3.61993,18.18928"
       id="path3991"
       inkscape:connector-curvature="0"
       sodipodi:nodetypes="cccc" />
    <path
       style="fill:none;stroke:#000000;stroke-width:2;stroke-linecap:butt;stroke-linejoin:miter;stroke-miterlimit:4;stroke-opacity:1;stroke-dasharray:none"
       d="m 203.80641,383.76182 c 2.57425,3.89861 4.79847,8.91666 4.44111,13.77203 0.2457,2.47501 2.50951,4.27623 2.46665,6.82978 0.0135,1.74556 0.80464,3.28308 2.14791,4.36607 0.70784,0.79143 1.39701,1.65941 1.65868,2.71069"
       id="path4009"
       inkscape:connector-curvature="0"
       sodipodi:nodetypes="ccccc" />
    <path
       style="fill:none;stroke:#000000;stroke-width:2;stroke-linecap:butt;stroke-linejoin:miter;stroke-miterlimit:4;stroke-opacity:1;stroke-dasharray:none"
       d="m 188.62784,401.97611 c -0.36846,1.68163 1.50986,2.76036 1.56596,4.40965 0.81821,1.21535 1.82149,2.32809 2.23608,3.77742 0.88187,2.32181 -0.42401,5.00881 0.95763,7.19831 1.10206,2.43976 0.80327,5.17381 0.60197,7.75528 0.058,1.81093 -0.16334,3.65067 0.15225,5.44079 0.49183,1.52376 1.52295,2.84331 1.71922,4.4693 0.18955,0.8122 0.34362,1.6477 0.2669,2.48496"
       id="path4011"
       inkscape:connector-curvature="0" />
    <path
       style="fill:none;stroke:#000000;stroke-width:2;stroke-linecap:butt;stroke-linejoin:miter;stroke-miterlimit:4;stroke-opacity:1;stroke-dasharray:none"
       d="m 137.37785,190.54753 c 0.13239,-2.96811 3.29068,-4.1627 4.97891,-6.15595 3.67527,-2.80888 7.02287,-6.06366 10.52991,-9.09351 1.74034,-1.56755 3.77413,-2.82744 6.0993,-3.29293 2.20187,-0.40532 4.30596,-1.12771 6.26875,-2.21713 3.57187,-1.75744 7.6124,-2.09554 11.39587,-3.15686 3.21477,-0.51578 6.48372,-0.89473 9.72486,-0.35601 1.73248,0.16274 3.49411,0.37067 5.10954,1.0581"
       id="path4032"
       inkscape:connector-curvature="0" />
    <path
       style="fill:none;stroke:#000000;stroke-width:2;stroke-linecap:butt;stroke-linejoin:miter;stroke-miterlimit:4;stroke-opacity:1;stroke-dasharray:none"
       d="m 314.5207,178.04753 c 3.12312,-0.20808 6.0726,1.02652 9.0644,1.72337 2.17176,0.48815 4.22317,1.33733 6.39675,1.81627 2.51497,0.55354 5.0526,1.15772 7.43673,2.14806 2.55175,1.45976 5.22764,2.71324 7.56369,4.52355 1.46866,1.14517 3.00502,2.22288 4.18083,3.67777 1.80689,1.81968 3.69498,3.69363 6.19645,4.50996 0.24302,0.0487 0.30954,0.39873 0.58972,0.35098"
       id="path4035"
       inkscape:connector-curvature="0" />
  </g>
</svg>
