<?xml version="1.0" encoding="UTF-8" standalone="no"?>
<!-- Generator: Adobe Illustrator 15.0.1, SVG Export Plug-In . SVG Version: 6.00 Build 0)  -->

<svg
   xmlns:dc="http://purl.org/dc/elements/1.1/"
   xmlns:cc="http://creativecommons.org/ns#"
   xmlns:rdf="http://www.w3.org/1999/02/22-rdf-syntax-ns#"
   xmlns:svg="http://www.w3.org/2000/svg"
   xmlns="http://www.w3.org/2000/svg"
   xmlns:sodipodi="http://sodipodi.sourceforge.net/DTD/sodipodi-0.dtd"
   xmlns:inkscape="http://www.inkscape.org/namespaces/inkscape"
   version="1.1"
   x="0px"
   y="0px"
   width="436.35025"
   height="221.11935"
   viewBox="0 0 436.35025 221.11935"
   enable-background="new 0 0 800 620"
   xml:space="preserve"
   id="svg2"
   inkscape:version="0.48.3.1 r9886"
   sodipodi:docname="ath-seed-series.svg"><metadata
   id="metadata916"><rdf:RDF><cc:Work
       rdf:about=""><dc:format>image/svg+xml</dc:format><dc:type
         rdf:resource="http://purl.org/dc/dcmitype/StillImage" /><dc:title></dc:title></cc:Work></rdf:RDF></metadata><defs
   id="defs914">
	
	
	
	
	
	
	
	
	
	
	
	
	
	
	
	
	
	
	
	
	
	
	
	
	
	
	
	
	
	
	
	
	
	
	
	
	
	
	
	
	
	
	
	
	
	
	
	
	
	
	
	
	

	
	
	
	
	
	
	
	
	
	
	
	
	
	
	
	
	
	
	
	
	
	
	
	
	
	
	
	
	
	
	
	
	
	
	
	
	
	
	
	
	
	
	
	
	
	
	
	
	
	
	
	
	
	
	
	
	
	
	
	
	
	
	
	
	
	
	
	
	
	
	
	
	
	
	
	
	
	
	
	
	
	
	
	
	
	
	
	
	
	
	
	
	
	
	
	
	
	
	
	
	
	
	
	
	
	
	
	
	
	
	
	
	
	
	
	
	
	
	
	
	
	
	

	
	
	

	
	
	

	
	
	
</defs><sodipodi:namedview
   pagecolor="#ffffff"
   bordercolor="#666666"
   borderopacity="1"
   objecttolerance="10"
   gridtolerance="10"
   guidetolerance="10"
   inkscape:pageopacity="0"
   inkscape:pageshadow="2"
   inkscape:window-width="1024"
   inkscape:window-height="551"
   id="namedview912"
   showgrid="false"
   inkscape:zoom="1.0217693"
   inkscape:cx="182.18172"
   inkscape:cy="86.602063"
   inkscape:window-x="0"
   inkscape:window-y="0"
   inkscape:window-maximized="1"
   inkscape:current-layer="svg2"
   fit-margin-top="0"
   fit-margin-left="0"
   fit-margin-right="0"
   fit-margin-bottom="0" />











<path
   style="fill:#ffcc98"
   inkscape:connector-curvature="0"
   id="path38"
   d="m 85.463398,32.751849 c 0,0 2.167,-8.333 4.167,-2 -0.167,3 -0.501,5.333 1.666,8.5 1.167,3.667 1.833,8.833 1,15.333 -0.333,4.667 -0.166,9.333 -0.333,11.5 -0.667,2.833 0.333,7.833 0,8.5 -1.333,1.333 -2.5,3.333 -3,4 -1.167,0.833 -3.499,4.166 -4.666,-3.5 -0.334,-4.333 0.165,-14.667 0.999,-19.667 -0.166,-6.333 0.167,-9.666 -0.333,-18.333 0.167,-2.666 0.5,-4.333 0.5,-4.333 z" /><path
   style="fill:#ffcc98"
   inkscape:connector-curvature="0"
   id="path40"
   d="m 76.963398,152.41885 c 0,0 0.501,-3.667 4.167,-6.667 3.333,-3.333 6.666,-9.333 14.833,-6 4.667002,2.167 9.999002,7 11.333002,12.167 0.5,3.333 1.667,9.167 0.667,14.667 -1.167,4.5 -2.334,9.667 -5.667,12.167 -2.666002,2.667 -6.666002,7.5 -14.333002,4.167 -3.167,-2 -5.833,-3 -8.833,-10 -0.834,-1.835 -2.834,-7.168 -2.834,-10.168 0,-3.833 0.667,-10.333 0.667,-10.333 z" />
<path
   style="fill:#ffcc97"
   inkscape:connector-curvature="0"
   id="path45"
   d="m 125.1304,22.918849 c 0,0 -1.333,-8.667 3.5,-2 1.666,3.167 4.167,5.833 5.5,15.667 0.833,6 1.5,11.333 1.833,12.667 0,3.167 -0.501,9.5 -0.167,11.5 0.5,3.167 2,10.167 1.167,14.333 -1,4 -2,8 -2,8 -2.333,-1.167 -4.167,1.167 -4,-9.333 0,-7.833 -1.833,-21.167 -1.833,-21.167 -0.834,-5.667 -1.166,-12.667 -2.5,-16.167 -1.167,-6.334 -1.5,-13.5 -1.5,-13.5 z" /><path
   style="fill:#ffcc97"
   inkscape:connector-curvature="0"
   id="path47"
   d="m 123.4634,142.75185 c 0,0 7.501,-8.167 15.167,-3 2.833,2.833 4.333,4 8.833,17 0.5,2.833 1.333,7.834 0.833,15.667 -0.5,3.5 -2.5,9.166 -7.5,10.833 -4,1.833 -8.166,3.667 -8.166,3.667 -1.667,0 -3.667,0.5 -4.667,-2.833 -1.833,-1.5 -6,-7.5 -7.5,-11.333 -1.667,-2.667 -3.833,-6 -3.5,-10.667 0.333,-5.501 0.333,-12.501 6.5,-19.334 z" />
<g
   id="Seeds Stage 3 w/ Siliques"
   transform="translate(-354.2036,-35.248151)">
	<path
   d="m 400.5,89 c 0,0 -1.5,-4.333 2.5,-4.667 2,0.333 5.667,2.167 2.667,5.5 -0.333,0.667 -0.5,3.5 0.5,8.333 0.833,4.667 3.166,10.834 1.833,13.667 -1.333,2.667 -3.666,6.333 -6.333,1.167 C 400.334,110.167 399.5,106.167 401,90.5 400.833,90 400.5,89 400.5,89 z"
   id="path52"
   inkscape:connector-curvature="0"
   style="fill:#ffcc99" />
	<path
   d="m 396.5,178.5 c 0,0 7.5,-6.333 13.667,-2.167 4.833,3.667 7.333,6.5 9.5,10 1.333,3.5 2.667,10.167 -1,18.333 -2.833,5.833 -6.166,12.5 -9.833,14.333 -2.834,0.833 -4.5,0.833 -4.5,0.833 -0.667,0.5 -2,2.667 -3.5,-0.167 -1.167,-1 -6.5,-1.167 -11,-10.333 -2,-5.167 -3.167,-13.833 -1.5,-18.333 C 390,186.667 391,181.333 396.5,178.5 z"
   id="path54"
   inkscape:connector-curvature="0"
   style="fill:#ffcc99" />
		</g>
<g
   id="Seeds Stage 6 w/o Siliques"
   transform="translate(-354.2036,-35.248151)">
	<path
   d="m 525.167,179 c 0,0 8.5,-7.5 12.5,-8 4.5,0.333 12.834,3.333 15.834,13.5 0.666,4.667 1.333,14.167 -0.167,20 -2,5.333 -4.834,12.667 -9.667,14.833 -5.5,1.5 -15.334,5.667 -23.5,-15.5 -1.166,-3.667 -1.334,-5.667 0.5,-12.333 0,-2.5 1.5,-5.833 1.5,-5.833 -0.333,-2.167 0.5,-3.334 3,-6.667 z"
   id="path57"
   inkscape:connector-curvature="0"
   style="fill:#ffcc00" />
</g>
<g
   id="Seeds Stage 7 w/o Siliques"
   transform="translate(-354.2036,-35.248151)">
	<path
   d="m 584.834,172.833 c 0,0 2.334,-1.5 4.667,-0.667 2.666,0.167 7.166,-1 8.666,3 1.167,2.167 3.167,4.167 3.667,7 0.833,2.833 2.501,6.5 2.167,11.667 -0.334,4.167 -2,11 -3.667,14.5 -0.833,2.667 -3.667,9.333 -14.667,12 -1.666,-0.5 -6.666,-3.333 -10.166,-11.667 -1.167,-4.333 -3.501,-9 -3.334,-13.333 -0.333,-4.833 0.333,-7.667 3,-12.167 3.167,-4.666 6.167,-7.999 9.667,-10.333 z"
   id="path60"
   inkscape:connector-curvature="0"
   style="fill:#fecc00" />
</g>
<g
   id="Seeds Stage 8 w/o Siliques"
   transform="translate(-354.2036,-35.248151)">
	<path
   d="m 616.834,188.833 c 0,0 3.501,-6.833 11.667,-10 2.333,-0.5 4.5,-1.667 8.833,1.5 3.333,2 8.833,6 10,11.833 1.167,2.833 4.167,8.833 -0.333,14.333 -3,4.333 -6.834,7.167 -7.167,8.5 -1.5,2.5 -5.999,9.167 -10.833,9 -3.167,0.333 -6.665,2.833 -8.666,-4.5 -1.501,-5.833 -3.334,-10.167 -5.334,-13.333 -0.5,-1.999 -1.167,-11.166 1.833,-17.333 z"
   id="path63"
   inkscape:connector-curvature="0"
   style="fill:#fdcc00" />
</g>
<g
   id="Seeds Stage 9 w/o Siliques"
   transform="translate(-354.2036,-35.248151)">
	<path
   d="m 679.334,170.333 c 0,0 3.667,-3 9.167,-1.5 5.166,0.833 14.666,4.5 16.666,13 0.834,5.167 0.167,17.333 -0.333,20.5 -1,2.667 -2.167,7.167 -2.167,8.833 -1,2.833 -4.001,11.667 -14.167,14 -3.999,0.833 -8.165,1.666 -10.999,-4.167 -2.167,-1.667 -3.667,-5 -4.167,-7 -1.833,-4.167 -6.167,-9.833 -5.5,-22.333 0,-3.667 1.501,-6.666 3.667,-11.833 1.666,-3.166 3.5,-5.333 7.833,-9.5 z"
   id="path66"
   inkscape:connector-curvature="0"
   style="fill:#ff9900" />
</g>
<g
   id="Seeds Stage 10 w/o Siliques"
   transform="translate(-354.2036,-35.248151)">
	<path
   d="m 732.834,174.5 c 0,0 4.833,-5 7.5,-5.167 4.5,0.333 10.834,0 15.167,5.833 3.833,3.833 6.667,7 8.5,15.5 1.333,5.5 5.666,19.5 -5.667,30.333 -4.167,3.833 -10.334,7.5 -15.667,5.167 -2.166,-0.833 -10,0.5 -11.833,-8.167 -3.667,-8.167 -8.999,-20.333 -5.833,-30.833 1.833,-5.333 4.666,-9.166 7.833,-12.666 z"
   id="path69"
   inkscape:connector-curvature="0"
   style="fill:#fe9900" />
</g>




























<path
   inkscape:connector-curvature="0"
   id="path471"
   d="m 54.311398,71.200849 c -0.44,-1.278 -0.53,-2.645 -0.747,-3.971 -0.222,-1.371 -0.624,-2.697 -0.807,-4.078 -0.358,-2.718 -0.155,-5.434 -0.913,-8.105 1.322,-1.055 1.908,-3.065 1.105,-4.609 -0.641,-1.231 -2.072,-1.836 -3.38,-2.029 -1.405,-0.207 -2.97,-0.036 -3.801,1.259 -0.949,1.479 -0.99,3.84 0.417,5.04 -0.52,1.696 -0.258,3.563 -0.43,5.305 -0.209,2.112 -0.138,4.239 -0.34,6.354 -0.351,3.664 -0.25,7.484 1.18,10.929 l 0.133,0.326 c 0.354,0.873 0.792,1.933 1.548,2.632 -0.05,2.085 -0.274,4.186 -0.506,6.226 l -0.166,1.497 c -0.306,2.838 -0.812,5.662 -0.81,8.525 l 1.5,-0.002 c -0.003,-2.808 0.5,-5.58 0.802,-8.363 l 0.165,-1.489 c 0.209,-1.859 0.418,-3.771 0.496,-5.696 0.39,0.056 0.71,0.044 1.099,-0.038 0.255,0.886 0.188,1.669 0.188,2.587 v 8 c 0,1.154 0.354,2.587 -0.175,3.672 l 1.35,0.656 c 0.655,-1.345 0.325,-2.897 0.325,-4.328 v -8 c 0,-0.577 0.059,-1.153 0.03,-1.73 -0.024,-0.505 -0.306,-0.995 -0.301,-1.485 1.258,-0.877 2.292,-2.389 2.67,-3.876 0.443,-1.735 -0.065,-3.566 -0.632,-5.209 -0.311,-0.899 0.638,1.848 0,0 z m -7.369,-20.567 c 0.645,-1.227 2.599,-0.852 3.632,-0.38 1.356,0.62 1.61,2.192 0.65,3.333 -0.879,1.045 -2.571,0.861 -3.665,0.268 -1.147,-0.624 -1.177,-2.157 -0.617,-3.221 0.195,-0.371 -0.354,0.674 0,0 z m 6.41,25.833 c -0.49,1.194 -1.464,2.752 -2.848,3.007 -1.391,0.256 -1.975,-1.408 -2.385,-2.416 l -0.139,-0.336 c -1.331,-3.207 -1.396,-6.779 -1.073,-10.188 0.198,-2.106 0.137,-4.221 0.337,-6.324 0.148,-1.569 0.002,-3.182 0.286,-4.737 0.93,0.334 1.968,0.456 2.938,0.24 0.803,3.464 0.437,7.031 1.354,10.482 0.448,1.691 0.454,3.468 0.959,5.149 0.484,1.61 1.258,3.449 0.571,5.123 -0.586,1.424 0.57,-1.388 0,0 z" /><path
   inkscape:connector-curvature="0"
   id="path473"
   d="m 93.042398,44.433849 c -0.109,-1.187 -0.271,-2.375 -0.626,-3.516 -0.374,-1.2 -1.068,-2.232 -1.521,-3.396 -0.79,-2.035 -0.467,-4.107 -0.577,-6.224 -0.081,-1.539 -0.771,-4.043 -2.855,-3.515 -2.552,0.646 -2.897,3.935 -2.953,6.066 l -0.017,0.56 c -0.123,3.271 -0.238,6.446 0.096,9.71 0.34,3.326 0.195,6.673 -0.04,10.003 -0.471,6.665 -1.586,13.407 -0.805,20.098 l 0.044,0.378 c 0.217,1.914 0.018,4.376 1.813,5.625 0.242,0.833 -0.142,1.864 -0.269,2.691 -0.169,1.099 -0.124,2.227 -0.21,3.333 -0.092,1.179 -0.372,2.31 -0.697,3.443 -0.321,1.122 -1.227,2.043 -1.374,3.215 l 1.488,0.188 c 0.121,-0.948 0.968,-1.745 1.234,-2.667 0.316,-1.095 0.635,-2.197 0.771,-3.332 0.139,-1.139 0.128,-2.286 0.217,-3.428 0.079,-1.021 0.406,-2.009 0.387,-3.039 0.304,-0.036 0.603,-0.131 0.896,-0.293 v 0.973 c -0.003,2.186 0.095,4.383 -0.157,6.557 -0.104,0.888 -0.075,1.74 -0.015,2.628 0.032,0.482 0.243,1.597 -0.125,1.994 l 1.096,1.025 c 1.171,-1.252 0.348,-3.655 0.502,-5.187 0.236,-2.34 0.196,-4.666 0.199,-7.017 l 0.001,-2.474 h -0.035 c 0.329,-0.523 0.609,-1.088 1.114,-1.469 0.474,-0.357 0.979,-0.649 1.314,-1.158 0.771,-1.169 0.604,-2.881 0.51,-4.203 -0.108,-1.504 -0.185,-2.942 -0.029,-4.447 0.167,-1.638 0.392,-3.263 0.373,-4.913 -0.017,-1.566 -0.107,-3.134 -0.029,-4.699 0.075,-1.527 0.291,-3.046 0.378,-4.574 0.17,-2.97 0.175,-5.969 -0.099,-8.936 -0.194,-2.116 0.34,3.693 0,0 z m -6.308,-14.187 c 0.22,-0.318 0.794,-1.191 1.313,-0.998 0.817,0.303 0.771,1.856 0.782,2.536 -0.876,0.059 -1.795,0.161 -2.669,0.042 0.099,-0.587 0.267,-1.137 0.574,-1.58 0.653,-0.949 -0.307,0.443 0,0 z m 4.623,26.477 c -0.248,2.213 -0.016,4.428 -0.063,6.646 -0.047,2.188 -0.568,4.354 -0.493,6.544 0.037,1.066 0.178,2.127 0.206,3.194 0.019,0.725 0.105,1.91 -0.475,2.464 -0.714,0.682 -1.438,1.082 -1.979,1.956 -0.354,0.573 -0.985,1.882 -1.868,1.588 -0.031,-0.041 -0.055,-0.086 -0.091,-0.125 l -0.058,0.054 c -1.386,-0.789 -1.106,-3.292 -1.258,-4.614 l -0.045,-0.382 c -0.778,-6.67 0.369,-13.392 0.825,-20.036 0.223,-3.228 0.377,-6.488 0.056,-9.714 -0.331,-3.31 -0.247,-6.512 -0.123,-9.832 l 0.018,-0.577 c 0.005,-0.189 0.011,-0.382 0.019,-0.576 0.922,0.116 1.855,0.031 2.778,-0.024 -0.062,1.771 0.146,3.55 0.86,5.184 0.809,1.847 1.582,3.378 1.813,5.422 0.48,4.237 0.353,8.596 -0.122,12.828 -0.167,1.486 0.451,-4.012 0,0 z" /><path
   inkscape:connector-curvature="0"
   id="path475"
   d="m 137.8044,67.150849 c -0.273,-2.322 -1.257,-4.451 -1.325,-6.813 -0.065,-2.314 0.438,-4.588 0.396,-6.894 -0.021,-1.117 -0.013,-2.26 -0.104,-3.372 -0.09,-1.098 -0.424,-2.146 -0.633,-3.223 -0.431,-2.217 -0.399,-4.525 -0.683,-6.765 -0.298,-2.368 -0.896,-4.701 -1.334,-7.046 -0.42,-2.25 -0.694,-4.645 -1.688,-6.73 -0.955,-2.005 -2.288,-3.854 -3.383,-5.788 -0.799,-1.411 -2.131,-3.145 -3.982,-2.423 l -0.273,0.107 -0.129,0.266 c -0.922,1.912 -0.26,4.089 -0.116,6.087 l 0.056,0.768 c 0.274,3.813 0.684,7.538 1.533,11.27 0.418,1.835 0.954,3.67 1.241,5.531 0.267,1.728 0.209,3.487 0.418,5.222 l 0.077,0.603 c 0.166,1.233 0.104,2.489 0.391,3.702 0.317,1.351 0.443,2.701 0.544,4.083 0.212,2.895 0.521,5.675 1.157,8.511 l 0.093,0.418 c 0.34,1.517 0.289,3.095 0.258,4.638 -0.032,1.642 0.029,3.267 0.133,4.905 0.093,1.496 0.047,2.964 0.036,4.458 -0.009,1.244 0.107,2.689 1.019,3.634 -0.134,0.925 -0.627,1.766 -0.961,2.626 l -0.223,0.585 c -0.65,1.709 -1.36,3.421 -2.348,4.97 -0.393,0.616 -0.755,1.215 -1.086,1.868 -0.229,0.451 -0.472,1.152 -0.882,1.474 0.001,0 0.05,-0.038 0.144,-0.057 l 0.298,1.47 c 1.339,-0.271 1.934,-2.666 2.6,-3.654 1.147,-1.704 1.949,-3.625 2.676,-5.537 l 0.223,-0.579 c 0.306,-0.796 0.693,-1.553 0.921,-2.379 0.237,0.064 0.472,0.104 0.696,0.104 0.175,-0.004 0.285,-0.022 0.455,-0.057 0.435,0.533 0.108,1.896 -0.01,2.487 -0.229,1.151 -0.75,2.276 -1.184,3.361 -0.53,1.326 -1.162,2.598 -1.768,3.89 -0.529,1.135 -0.619,2.424 -1.18,3.544 l 1.342,0.671 c 0.728,-1.453 0.956,-3.092 1.669,-4.568 0.726,-1.505 1.372,-3.034 1.954,-4.6 0.591,-1.591 1.413,-3.965 0.458,-5.552 0.726,-0.798 1.044,-1.907 1.195,-2.952 0.176,-1.219 0.777,-2.308 1.033,-3.516 0.292,-1.381 0.256,-2.764 0.311,-4.166 0.059,-1.524 0.145,-3.061 -0.035,-4.582 -0.114,-0.966 0.163,1.381 0,0 z m -11.876,-47.721 c 0.561,0 1.104,0.679 1.533,1.359 -0.627,0.051 -1.188,0.168 -1.761,0.374 -0.021,-0.623 0.02,-1.221 0.189,-1.731 0.013,-0.002 0.026,-0.002 0.039,-0.002 0.559,0 -0.013,0 0,0 z m 8.894,63.682 c -0.184,0.158 -0.412,0.184 -0.558,0.142 l 0.063,-0.213 c 0.247,-0.09 0.479,-0.221 0.69,-0.398 l 0.019,-0.002 c 0.011,0.065 -0.009,0.292 -0.214,0.471 -0.182,0.158 0.205,-0.179 0,0 z m 1.531,-11.797 c -0.047,1.18 0.016,2.385 -0.16,3.555 -0.171,1.128 -0.591,2.096 -0.945,3.166 -0.303,0.914 -0.725,5.153 -2.654,3.252 l 0.002,-0.034 c 0.124,0.008 0.254,0.089 0.322,0.201 l -0.854,-1.395 c -0.197,-1.219 -0.001,-2.469 -0.019,-3.695 -0.021,-1.366 -0.145,-2.728 -0.208,-4.09 -0.124,-2.634 0.267,-5.338 -0.313,-7.935 l -0.094,-0.419 c -0.622,-2.768 -0.92,-5.479 -1.126,-8.304 -0.098,-1.348 -0.188,-2.7 -0.51,-4.017 -0.307,-1.263 -0.261,-2.562 -0.433,-3.848 l -0.075,-0.583 c -0.197,-1.635 -0.162,-3.288 -0.375,-4.921 -0.25,-1.912 -0.809,-3.797 -1.239,-5.675 -0.866,-3.764 -1.294,-7.509 -1.571,-11.355 l -0.056,-0.77 c -0.043,-0.578 -0.127,-1.153 -0.199,-1.729 0.787,-0.333 1.598,-0.467 2.45,-0.467 v -0.026 c 0.97,1.692 2.188,3.309 2.956,5.105 0.842,1.971 1.067,4.24 1.46,6.333 0.379,2.02 0.892,4.028 1.182,6.062 0.313,2.194 0.391,4.413 0.646,6.613 0.104,0.884 0.349,1.739 0.537,2.606 0.225,1.03 0.207,2.047 0.248,3.093 0.083,2.111 -0.195,4.13 -0.312,6.23 -0.123,2.235 0.112,4.306 0.713,6.459 0.62,2.22 0.72,4.296 0.627,6.588 -0.03,0.741 0.054,-1.34 0,0 z" /><path
   inkscape:connector-curvature="0"
   id="path477"
   d="m 183.2584,7.6078491 c -0.004,-0.134 -0.033,-0.256 -0.092,-0.371 -0.215,-0.804 -0.659,-1.495 -1.353,-1.967 -0.964,-0.657 -1.733,-0.201 -2.481,0.517 l -0.115,0.11 c -1.714,1.634 -2.823,3.517 -3.362,5.8179999 -0.56,2.384 -1.007,4.756 -1.298,7.188 l -0.062,0.509 c -0.221,1.84 -0.354,3.691 -0.424,5.543 -0.077,2.023 -0.42,4.017 -0.511,6.037 -0.169,3.841 -0.661,7.643 -0.742,11.492 l -0.022,0.999 c -0.098,3.927 -0.845,7.79 -1.301,11.682 -0.465,3.985 -0.282,8.015 -0.75,12 -0.213,1.812 -0.892,3.528 -1.193,5.324 -0.33,1.954 -0.188,3.94 0.013,5.9 0.206,1.992 0.678,3.924 1.134,5.87 0.418,1.783 0.415,3.665 0.994,5.406 -1.104,1.578 -2,3.219 -2.344,5.135 -0.425,2.366 -1.026,4.781 -1.053,7.195001 l 1.5,0.016 c 0.021,-2.001 0.521,-3.959001 0.861,-5.920001 0.323,-1.875 0.818,-3.428 1.889,-5.018 0.565,0.578 1.305,0.904 2.142,0.916 -0.219,1.706 -0.743,3.379 -1.26,5.01 l -0.091,0.287 c -0.386,1.227 -1.129,2.366 -1.341,3.645001 -0.177,1.063 -0.921,1.978 -0.95,3.053 l 1.5,0.041 c 0.016,-0.557 0.429,-1.042 0.637,-1.537 0.188,-0.448 0.221,-0.92 0.308,-1.392 0.216,-1.163001 0.924,-2.230001 1.277,-3.358001 l 0.092,-0.286 c 0.588,-1.859 1.188,-3.773 1.374,-5.793 3.64,-1.613 2.763,-6.526 2.674,-9.719 -0.055,-1.92 0.143,-3.794 0.35,-5.7 0.193,-1.769 0.74,-3.443 0.876,-5.207 0.142,-1.828 0.66,-3.607 0.767,-5.458 0.107,-1.91 0.056,-3.828 0.183,-5.737 0.254,-3.861 0.712,-7.709 0.712,-11.586 v -0.223 c -0.001,-1.592 -0.006,-3.195 0.262,-4.77 0.293,-1.721 0.574,-3.287 0.536,-5.049 -0.076,-3.464 0.003,-6.922 0.144,-10.383 0.139,-3.438 0.323,-6.873 0.44,-10.311 0.059,-1.693 0.101,-3.388 0.113,-5.083 0.013,-1.576 0.259,-3.2649999 -0.033,-4.8249999 -0.004,-0.134 0.163,0.872 0,0 z m -3.006,-0.626 0.118,-0.113 c 0.194,-0.188 0.438,-0.421 0.437,-0.452 0.34,0.085 0.644,0.523 0.779,0.816 -1.075,0.475 -1.927,1.351 -3.036,1.746 0.502,-0.714 1.069,-1.393 1.702,-1.997 0,0 -0.494,0.472 0,0 z m 1.582,3.1849999 c -0.165,3.198 -0.111,6.413 -0.244,9.615 -0.132,3.182 -0.299,6.362 -0.411,9.544 -0.115,3.234 -0.08,6.453 -0.075,9.687 0.003,1.481 -0.346,2.813 -0.566,4.261 -0.241,1.574 -0.241,3.169 -0.24,4.757 v 0.221 c 0,2.953 -0.131,6.028 -0.46,8.961 -0.34,3.03 -0.252,6.062 -0.492,9.097 -0.113,1.438 -0.505,2.81 -0.672,4.232 -0.178,1.513 -0.594,2.935 -0.781,4.444 -0.386,3.103 -0.497,6.098 -0.409,9.221 0.061,2.087 0.386,5.939 -2.531,6.271 -2.614,0.298 -2.332,-4.571 -2.701,-6.171 -0.719,-3.124 -1.43,-6.223 -1.396,-9.452 0.034,-3.072 1.282,-5.961 1.529,-9.022 0.304,-3.739 0.224,-7.497 0.691,-11.225 0.463,-3.69 1.13,-7.361 1.222,-11.087 l 0.021,-1.004 c 0.08,-3.841 0.572,-7.635 0.742,-11.468 0.084,-1.893 0.436,-3.759 0.497,-5.655 0.063,-1.938 0.195,-3.876 0.427,-5.801 l 0.063,-0.511 c 0.331,-2.78 0.731,-5.687 1.638,-8.348 1.674,-0.222 2.757,-1.2019999 4.187,-1.9639999 0.007,0.451 -0.014,0.925 -0.039,1.3969999 -0.019,0.378 0.025,-0.4719999 0,0 z" /><path
   inkscape:connector-curvature="0"
   id="path479"
   d="m 236.0854,7.1358491 c -1.015,-1.141 -2.536,-0.809 -3.696,-0.089 -1.118,0.694 -1.803,2.608 -2.323,3.7609999 -0.757,1.67 -1.574,3.321 -2.301,5.004 -0.746,1.733 -0.931,3.48 -1.216,5.325 l -0.143,0.958 c -0.321,2.198 -0.881,4.324 -1.388,6.484 -0.532,2.274 -1.315,4.55 -1.634,6.864 -0.297,2.157 -0.396,4.313 -0.796,6.46 -0.433,2.329 -0.689,4.637 -0.875,6.998 -0.169,2.14 -0.732,4.293 -0.698,6.438 0.009,0.492 0.033,0.985 0.009,1.477 -0.03,0.556 -0.285,1.002 -0.428,1.53 -0.135,0.508 -0.046,1.013 -0.024,1.527 0.021,0.543 -0.13,1.115 -0.226,1.646 -0.359,2.013 -0.604,4.042 -0.952,6.057 -0.407,2.354 -0.89,4.677 -1.208,7.048 l -0.169,1.242 c -0.354,2.581 -0.507,5.117 -0.457,7.722 0.025,1.338 0.089,2.677 0.253,4.005 0.168,1.361 0.008,2.736 0.021,4.102 0.023,2.49 0.761,4.833 0.534,7.358 -0.167,1.867001 -1.076,4.287001 0.073,6.009001 l -0.047,0.074 c -0.05,-0.031 -0.074,-0.068 -0.08,-0.08 0.265,0.555 -0.146,1.592 -0.237,2.168 -0.169,1.062 -0.412,2.12 -0.539,3.188 l -0.018,0.135 c -0.138,1.142 -0.282,2.297 -0.204,3.449 0.036,0.535 0.33,1.813 -0.069,2.244 l 1.096,1.024 c 0.677,-0.724 0.575,-1.917 0.511,-2.825 -0.09,-1.254 0.006,-2.466 0.157,-3.712 l 0.018,-0.136 c 0.182,-1.534 0.59,-3.04 0.777,-4.574 0.334,0.093 0.618,0.096 0.952,0.031 0.09,1.969 -0.493,3.891 -0.408,5.852 0.042,0.964 0.115,1.926 0.138,2.89 0.014,0.593 0.166,1.618 -0.175,2.151 0,-10e-4 0.023,-0.037 0.082,-0.074 l 0.802,1.269 c 1.39,-0.876 0.776,-4.049 0.705,-5.333 -0.147,-2.571 0.735,-5.19 0.245,-7.736 0.526,-0.761 0.817,-1.781 1.022,-2.529 l 0.09,-0.324 c 0.671,-2.336001 2.275,-4.412001 3.261,-6.634001 1.063,-2.393 1.908,-4.919 2.186,-7.533 0.302,-2.864 0.144,-5.828 0.239,-8.709 0.049,-1.487 0.094,-2.975 0.103,-4.463 0.008,-1.383 0.254,-2.748 0.249,-4.125 l -0.007,-0.694 c -0.035,-2.605 0.255,-5.268 0.471,-7.866 0.206,-2.484 0.155,-4.96 0.411,-7.443 0.56,-5.412 1.086,-10.828 1.663,-16.239 l 0.014,-0.121 c 0.152,-1.442 0.633,-2.833 1.032,-4.22 0.404,-1.408 0.699,-2.841 1.118,-4.246 0.851,-2.851 1.534,-5.749 2.122,-8.665 0.538,-2.668 1.014,-5.382 1.126,-8.107 0.076,-1.87 0.175,-4.5069999 -1.162,-6.0129999 -0.867,-0.975 1.508,1.699 0,0 z m -0.528,8.2779999 c -0.469,3.958 -1.325,7.889 -2.323,11.744 -0.483,1.87 -1.044,3.717 -1.52,5.59 -0.463,1.821 -1.157,3.601 -1.358,5.48 l -0.013,0.121 c -0.563,5.289 -1.124,10.574 -1.626,15.869 -0.249,2.617 -0.235,5.227 -0.452,7.843 -0.219,2.649 -0.509,5.358 -0.476,8.016 l 0.007,0.678 c 0.002,1.267 -0.245,2.519 -0.248,3.792 -0.004,1.568 -0.049,3.135 -0.102,4.701 -0.094,2.828 0.048,5.724 -0.219,8.539 -0.214,2.261 -0.916,4.448 -1.796,6.531 -1.063,2.524 -2.858,4.852 -3.614,7.484001 l -0.095,0.342 c -0.185,0.673 -0.437,2.159 -1.196,2.439 -1.158,0.426 -1.141,-1.57 -1.104,-2.135 0.07,-1.071 0.332,-2.115 0.434,-3.182001 0.143,-1.494 0.097,-3.019 -0.114,-4.504 -0.217,-1.527 -0.432,-2.921 -0.38,-4.476 0.053,-1.626 -0.139,-3.198 -0.231,-4.816 -0.183,-3.159 -0.058,-6.266 0.374,-9.397 l 0.17,-1.246 c 0.586,-4.359 1.383,-8.723 2.153,-13.055 0.084,-0.473 0.164,-0.946 0.226,-1.422 0.065,-0.51 -0.083,-1.017 -0.023,-1.523 0.045,-0.391 0.289,-0.765 0.391,-1.144 0.143,-0.538 0.123,-1.126 0.112,-1.678 -0.04,-2.226 0.464,-4.382 0.646,-6.595 0.367,-4.426 1.137,-8.781 1.624,-13.193 0.259,-2.347 1.053,-4.634 1.592,-6.928 0.546,-2.321 1.151,-4.613 1.496,-6.975 l 0.142,-0.945 c 0.168,-1.077 0.225,-2.199 0.503,-3.253 0.306,-1.156 0.834,-2.242 1.359,-3.312 0.931,-1.89 1.722,-3.833 2.714,-5.6909999 0.353,-0.657 1.153,-1.462 2.001,-1.217 0.555,0.16 0.774,0.958 0.895,1.442 0.476,1.9509999 0.285,4.1049999 0.051,6.0759999 -0.476,4.013 0.427,-3.599 0,0 z" /><path
   inkscape:connector-curvature="0"
   id="path481"
   d="m 287.3474,11.358849 -0.11,-0.944 c -0.289,-2.4709999 -0.714,-4.9609999 -1.391,-7.3589999 -0.545,-1.93 -1.776,-3.57799997 -3.999,-2.90099997 -1.827,0.557 -2.419,2.56599997 -2.651,4.25799997 -0.322,2.338 -0.038,4.713 -0.34,7.0489999 -0.148,1.164 -0.892,2.002 -1.3,3.074 -0.503,1.321 -0.225,2.8 -0.375,4.182 -0.329,3.022 -0.2,6.131 -0.294,9.171 -0.099,3.197 -0.023,6.347 0.12,9.54 0.143,3.162 -0.222,6.327 -0.207,9.493 0.022,4.806 0.492,9.486 0.95,14.261 0.472,4.916 -0.31,9.756 0.012,14.672 0.155,2.364 0.114,4.781 0.368,7.132 0.256,2.381 0.666,4.743 0.922,7.129 0.267,2.477 0.289,4.954 0.586,7.429 0.257,2.133 -0.127,4.501001 0.815,6.501001 -0.263,0.691 -0.72,1.286 -0.978,1.983 -0.244,0.664 -0.398,1.352 -0.541,2.044 l -0.109,0.521 c -0.438,2.036 -0.479,4.183 -1.284,6.127 -0.36,0.864 -0.91,1.634 -1.256,2.506 -0.394,0.996 -0.44,2.06 -0.708,3.086 l -0.149,0.561 c -0.515,1.902 -1.086,4.182 -0.882,6.165 v 0.127 h 1.5 l -0.004,-0.2 c -0.178,-1.835 0.357,-3.943 0.834,-5.702 l 0.152,-0.573 c 0.223,-0.851 0.271,-1.739 0.534,-2.581 0.313,-1.002 0.964,-1.853 1.363,-2.817 0.843,-2.037 0.903,-4.254 1.365,-6.384 l 0.112,-0.536 c 0.221,-1.075 0.518,-2.04 1.062,-2.996 0.505,0.427 1.072,0.678 1.744,0.694 0.324,1.355 -0.387,3.063 -0.638,4.376 -0.388,2.027 -1.082,3.853 -2.039,5.681 -1.028,1.966 -1.409,4.059 -1.957,6.186 -0.26,1.013 -0.544,2.025 -0.822,3.032 -0.242,0.874 -0.589,1.829 -0.457,2.749 l -10e-4,0.057 h 0.007 c 0.088,0.986 1.409,1.004 1.489,0.004 l 0.004,-0.068 c 0.002,-0.014 0.002,-0.03 0.002,-0.046 l -0.012,-0.138 c -0.126,-0.691 0.24,-1.526 0.42,-2.182 0.251,-0.915 0.498,-1.831 0.747,-2.747 0.535,-1.965 0.788,-4.039 1.756,-5.86 0.99,-1.863 1.888,-3.814 2.259,-5.906 0.308,-1.739 1.095,-3.733 0.672,-5.511 1.021,-0.618 1.233,-1.903 1.441,-2.984 0.281,-1.466 0.607,-2.921001 0.854,-4.394001 0.486,-2.896 0.61,-5.769 0.61,-8.701 v -0.12 c 0,-1.961 -0.208,-3.639 -0.429,-5.417 l -0.083,-0.674 c -0.289,-2.387 -0.311,-4.8 -0.289,-7.201 0.021,-2.547 -10e-4,-5.104 0.15,-7.646 0.291,-4.876 -0.058,-9.772 -0.331,-14.646 -0.282,-5.033 -0.193,-9.956 0.091,-14.984 0.145,-2.53 0.096,-5.065 0.261,-7.593 0.167,-2.571 0.479,-5.129 0.79,-7.686 l 0.097,-0.801 c 0.462,-3.782 -0.025,-7.878 -0.453,-11.492 0,0 0.428,3.614 0,0 z m -1.032,11.316 -0.098,0.8 c -0.305,2.506 -0.609,5.014 -0.782,7.534 -0.171,2.492 -0.121,4.989 -0.256,7.483 -0.274,5.081 -0.416,10.057 -0.131,15.144 0.276,4.923 0.647,9.877 0.354,14.804 -0.146,2.438 -0.128,4.886 -0.153,7.329 -0.027,2.61 -0.02,5.231 0.298,7.826 l 0.083,0.677 c 0.215,1.73 0.417,3.364 0.417,5.232 v 0.12 c 0,3.101 -0.165,6.121 -0.715,9.177 -0.238,1.323001 -0.519,2.640001 -0.788,3.956001 -0.222,1.074 -0.896,2.621 -2.185,1.439 -1.598,-1.467 -0.981,-4.635001 -1.198,-6.552001 -0.344,-3.039 -0.464,-6.082 -0.771,-9.126 -0.147,-1.475 -0.343,-2.92 -0.584,-4.383 -0.271,-1.649 -0.238,-3.288 -0.324,-4.951 -0.162,-3.155 -0.564,-6.327 -0.244,-9.485 0.636,-6.267 -0.668,-12.367 -0.869,-18.616 -0.097,-3.002 -0.142,-6.019 0.052,-9.018 0.185,-2.875 -0.037,-5.687 -0.113,-8.559 -0.078,-2.994 0.105,-5.997 0.187,-8.989 0.077,-2.834 0.119,-5.669 0.271,-8.495 0.07,-1.295 1.053,-2.206 1.394,-3.408 0.344,-1.216 0.313,-2.537 0.328,-3.7879999 0.021,-1.963 -0.209,-4.495 0.787,-6.281 0.336,-0.601 0.883,-0.99 1.576,-1.041 0.911,-0.066 1.264,0.993 1.48,1.704 0.73,2.38 1.129,4.915 1.417,7.3809999 l 0.111,0.947 c 0.416,3.53 0.892,7.531 0.456,11.139 0,0 0.436,-3.608 0,0 z" /><path
   inkscape:connector-curvature="0"
   id="path483"
   d="m 345.4304,120.46285 c -0.206,-1.564 -0.476,-3.017 -0.936,-4.526 -0.457,-1.5 -0.554,-3.031 -0.795,-4.572 -0.45,-2.877 -1.283,-5.842 -3.348,-8 0.095,-1.33 -0.033,-2.701 0.133,-4.021001 l 0.046,-0.37 c 0.383,-3.069 0.651,-6.179 0.723,-9.273 0.069,-3.016 -1.137,-5.926 -1.447,-8.916 -0.326,-3.127 -0.601,-6.192 -1.146,-9.293 -0.519,-2.939 -0.937,-5.892 -1.498,-8.825 -0.271,-1.412 -0.673,-2.802 -0.817,-4.235 -0.162,-1.604 -0.208,-3.203 -0.44,-4.802 -0.45,-3.087 -0.914,-6.142 -1.254,-9.244 -0.351,-3.185 -0.992,-6.326 -1.498,-9.487 -0.229,-1.423 -0.423,-2.852 -0.522,-4.291 -0.104,-1.481 -0.004,-2.978 -0.231,-4.448 -0.204,-1.32 -0.572,-2.607 -0.803,-3.921 -0.254,-1.451 -0.445,-2.909 -0.733,-4.354 -0.286,-1.435 -0.637,-2.821 -0.758,-4.284 -0.104,-1.272 -0.019,-2.784 -0.525,-3.9769999 -0.709,-1.663 -3.114,-3.051 -4.896,-2.304 -1.563,0.654 -1.761,2.7349999 -1.899,4.1909999 l -0.036,0.354 c -0.153,1.445 -0.41,2.84 -0.514,4.298 -0.111,1.581 -0.381,3.145 -0.493,4.726 -0.198,2.788 -0.119,5.605 0.395,8.358 0.569,3.056 1.271,6.075 1.734,9.153 0.467,3.102 0.862,6.214 1.32,9.318 0.893,6.042 0.788,12.188 1.459,18.262 0.683,6.194 1.732,12.347 3.1,18.426 0.851,3.786 1.823,7.544 2.907,11.271 0.554,1.903 1.136,3.797 1.746,5.683001 0.439,1.362 1.093,2.779 2.428,3.475 0.117,2.975 0.907,5.846 1.41,8.766 0.541,3.136 1.026,6.28 1.589,9.413 l 0.469,2.623 0.913,-0.494 c 0.625,-0.336 0.822,-1.061 0.245,-1.558 l -0.15,-0.836 c -0.514,-2.865 -1.028,-5.729 -1.458,-8.608 -0.432,-2.878 -1.256,-5.693 -1.479,-8.603 0.055,0.045 0.104,0.093 0.15,0.15 l 0.253,0.317 0.404,-0.039 c 0.388,-0.037 0.649,-0.261 0.834,-0.687 1.925,2.689 2.091,6.006 2.576,9.155 0.261,1.695 0.995,3.263 1.201,4.972 0.215,1.79 0.513,3.574 0.513,5.382 v 0.127 h 1.5 v -0.163 c -0.009,-1.528 -0.186,-2.869 -0.372,-4.289 -0.067,-0.505 0.186,1.42 0,0 z m -4.936,3.36 0.161,0.299 -0.331,0.282 c -0.035,-0.194 0.02,-0.444 0.17,-0.581 0,0 -0.016,0.015 0,0 z m -2.4,-20.076 c -1.151,-0.42 -1.773,-1.331 -2.146,-2.471 -0.532,-1.635001 -1.044,-3.276001 -1.534,-4.925001 -0.925,-3.112 -1.772,-6.248 -2.536,-9.404 -1.474,-6.092 -2.634,-12.261 -3.426,-18.479 -0.383,-3.002 -0.68,-6.016 -0.883,-9.036 -0.207,-3.063 -0.188,-6.146 -0.534,-9.198 -0.349,-3.063 -0.919,-6.095 -1.29,-9.155 -0.365,-3.014 -0.87,-6.01 -1.479,-8.984 -0.677,-3.307 -1.234,-6.469 -1.102,-9.865 0.07,-1.752 0.332,-3.474 0.5,-5.216 0.082,-0.847 0.07,-1.7 0.147,-2.546 0.076,-0.824 0.334,-1.619 0.423,-2.44 l 0.036,-0.371 c 0.082,-0.85 0.102,-2.4649999 1.007,-2.9229999 0.987,-0.5 2.473,0.549 2.885,1.4119999 0.519,1.085 0.361,2.686 0.469,3.865 0.14,1.542 0.536,3.013 0.827,4.528 0.274,1.435 0.448,2.889 0.724,4.323 0.307,1.585 0.798,3.155 0.857,4.777 0.108,2.923 0.328,5.745 0.815,8.637 0.527,3.125 1.144,6.242 1.411,9.404 0.27,3.167 0.939,6.266 1.316,9.417 0.177,1.475 0.152,2.97 0.395,4.436 0.246,1.498 0.641,2.966 0.887,4.464 0.502,3.06 1.019,6.128 1.575,9.178 0.377,2.067 0.57,4.13 0.734,6.223 0.182,2.308 0.593,4.536 1.114,6.789 0.472,2.041 0.45,3.875 0.311,5.955 -0.148,2.228 -0.281,4.43 -0.558,6.648 l -0.046,0.37 c -0.188,1.485001 -0.03,3.017001 -0.167,4.511001 -0.021,0.078 -0.029,0.167 -0.028,0.267 -0.004,0.032 -0.007,0.068 -0.011,0.099 -0.238,-0.124 -0.477,-0.211 -0.693,-0.29 -0.322,-0.118 0.216,0.079 0,0 z" /><path
   inkscape:connector-curvature="0"
   id="path485"
   d="m 405.8864,103.47585 c 0.111,-0.142 0.199,-0.297 0.278,-0.457 0.31,0.594 0.562,1.337 0.762,1.934 l 0.099,0.291 c 0.464,1.363 1.063,2.674 1.568,4.021 l 0.188,0.501 c 1.203,3.204 1.994,6.497 3.099,9.726 1.135,3.316 2.586,6.534 3.438,9.942 l 1.454,-0.364 c -0.845,-3.378 -2.265,-6.572 -3.4,-9.854 -1.146,-3.308 -1.953,-6.691 -3.188,-9.977 l -0.188,-0.5 c -0.499,-1.333 -1.094,-2.63 -1.554,-3.979 l -0.097,-0.285 c -0.358,-1.072 -0.807,-2.406 -1.58,-3.211 l -0.101,-0.104 c 0.418,-2.434001 0.366,-4.537001 -0.324,-6.931001 -0.688,-2.386 -1.718,-4.659 -2.255,-7.089 -0.521,-2.349 -1.091,-4.692 -1.581,-7.046 -0.49,-2.352 -0.755,-4.733 -1.285,-7.082 l -0.207,-0.922 c -0.376,-1.695 -0.271,-3.447 -0.438,-5.166 -0.178,-1.847 -0.604,-3.671 -0.885,-5.503 -0.542,-3.509 -0.818,-7.064 -1.286,-10.585 -0.471,-3.53 -0.534,-7.073 -0.673,-10.627 -0.068,-1.768 -0.13,-3.516 -0.25,-5.281 -0.126,-1.838 0.032,-3.687 -0.188,-5.521 l -0.096,-0.815 c -0.445,-3.596 -0.425,-7.209 -0.83,-10.811 l -0.021,-0.168 c -0.188,-1.683 -0.103,-3.39 -0.41,-5.06 -0.305,-1.656 -0.748,-3.3179999 -1.146,-4.9549999 -0.57,-2.348 -1.333,-5.352 -3.906,-6.227 -1.367,-0.46399997 -2.647,0.196 -2.939,1.632 -0.279,1.375 0.254,2.716 0.171,4.085 -0.1,1.609 -0.77,3.1559999 -0.968,4.7629999 -0.221,1.791 -0.352,3.595 -0.352,5.4 v 12.501 c 0,2.467 0.118,4.938 0.447,7.384 0.308,2.291 0.954,4.504 1.313,6.783 0.406,2.583 0.549,5.196 0.798,7.796 0.134,1.379 0.288,2.625 0.059,4.003 -0.213,1.276 -0.115,2.5 -0.115,3.783 l 0.002,1.085 c 0.003,1.034 -0.09,2.111 0.076,3.135 0.167,1.032 0.476,2.055 0.693,3.079 0.527,2.485 1.099,4.962 1.552,7.462 0.199,1.101 0.297,2.237 0.559,3.324 0.29,1.205 0.826,2.33 1.299,3.47 0.927,2.232 1.222,4.619 1.51,7 l 0.096,0.79 c 0.234,1.925 0.437,3.587 1.201,5.453 l 0.242,0.601 c 0.571,1.432 1.155,2.916 2.141,4.124 1.154,1.416001 2.896,2.145001 4.162,3.440001 l -0.319,0.311 c 0.651,0.67 0.436,1.974 0.53,2.823 0.145,1.311 0.812,2.523 1.232,3.757 0.758,2.216 1.544,4.422 2.381,6.61 0.907,2.375 2.082,4.638 3.009,7.006 0.457,1.163 0.962,2.315 1.437,3.471 0.284,0.694 0.991,1.578 1.005,2.346 0.009,-0.085 0.038,-0.163 0.093,-0.232 l 1.205,0.895 c 0.488,-0.659 0.007,-1.613 -0.284,-2.248 -0.479,-1.042 -0.886,-2.101 -1.353,-3.147 -0.992,-2.229 -1.943,-4.478 -2.921,-6.713 -0.874,-2 -1.606,-4.062 -2.334,-6.119 -0.403,-1.142 -0.762,-2.304 -1.208,-3.43 -0.507,-1.28 -0.751,-2.345 -0.856,-3.712 0.59,0.172 1.084,-0.149 1.439,-0.606 0.111,-0.142 -0.128,0.165 0,0 z m 0.901,-1.585 c 0.039,0.26 -0.183,0.475 -0.398,0.563 0.055,-0.174 0.097,-0.35 0.133,-0.522 l 0.265,-0.041 c 0.01,0.065 0,0 0,0 z m -2.614,-0.194 c -1.157,-1.327 -2.809,-2.046001 -4.04,-3.281001 -1.091,-1.095 -1.654,-2.665 -2.216,-4.072 l -0.246,-0.613 c -0.688,-1.679 -0.87,-3.173 -1.101,-5.065 l -0.097,-0.789 c -0.271,-2.241 -0.522,-4.541 -1.322,-6.667 -0.403,-1.073 -0.916,-2.103 -1.285,-3.188 -0.397,-1.169 -0.487,-2.423 -0.701,-3.634 -0.42,-2.388 -0.953,-4.754 -1.465,-7.124 -0.226,-1.042 -0.441,-2.083 -0.702,-3.116 -0.294,-1.165 -0.197,-2.373 -0.2,-3.564 l -0.002,-1.082 c 0,-1.079 -0.129,-2.143 0.042,-3.216 0.198,-1.246 0.261,-2.352 0.122,-3.609 -0.304,-2.755 -0.434,-5.527 -0.816,-8.274 -0.328,-2.351 -1.001,-4.629 -1.345,-6.977 -0.373,-2.54 -0.503,-5.109 -0.503,-7.674 v -12.5 c 0,-2.839 0.313,-5.597 1.016,-8.3419999 0.355,-1.384 0.278,-2.604 0.117,-4.001 -0.091,-0.788 -0.324,-2.579 1.005,-2.105 2.327,0.83 2.765,4.486 3.22,6.536 0.307,1.3839999 0.744,2.7719999 0.914,4.1809999 0.17,1.415 0.132,2.845 0.289,4.261 l 0.02,0.169 c 0.408,3.606 0.387,7.225 0.833,10.826 l 0.1,0.81 c 0.206,1.722 0.068,3.462 0.164,5.19 0.1,1.78 0.198,3.545 0.258,5.328 0.062,1.828 0.221,3.619 0.202,5.453 -0.019,1.845 0.245,3.649 0.487,5.475 0.468,3.528 0.747,7.089 1.289,10.604 0.278,1.813 0.701,3.616 0.877,5.442 0.171,1.778 0.075,3.581 0.465,5.335 l 0.209,0.928 c 0.554,2.451 0.82,4.942 1.353,7.395 0.551,2.544 1.086,5.123 1.729,7.645 0.633,2.476 1.748,4.8 2.335,7.291 0.276,1.174 0.438,2.391 0.314,3.596 -0.096,0.918001 -0.228,2.431001 -0.737,3.215001 -0.195,-0.263 -0.367,-0.54 -0.582,-0.787 -0.677,-0.776 0.156,0.18 0,0 z" /><path
   inkscape:connector-curvature="0"
   id="path487"
   d="m 408.4664,161.08585 c -0.241,-2.754 -0.625,-5.38 -1.726,-7.935 -1.16,-2.691 -2.805,-5.059 -4.469,-7.451 -0.71,-1.021 -1.379,-2.08 -2.261,-2.964 -0.961,-0.962 -2.202,-1.729 -3.414,-2.333 -2.654,-1.324 -5.277,-1.153 -8.146,-1.151 -2.517,0.002 -5.279,0.603 -7.196,2.333 -1.9,1.717 -3.137,4.092 -4.213,6.379 -2.48,5.274 -3.728,11.107 -3.744,16.925 -10e-4,0.248 -10e-4,0.495 -10e-4,0.743 l -0.001,0.619 c -0.008,2.903 1.467,5.58 3.417,7.643 1.297,1.372 3.33,4.522 5.586,3.909 0.038,3.156 3.356,4.208 6.016,3.757 1.508,-0.255 2.78,-0.938 3.822,-2.051 0.95,-1.015 1.922,-1.886 2.67,-3.072 l 0.229,-0.359 c 1.454,-2.267 2.264,-5.026 2.267,-7.708 0.417,2.625 0.992,5.222 1.422,7.846 0.311,1.888 0.711,4.24 2.061,5.698 1.67,1.807 3.54,0.397 4.821,-1.094 1.468,-1.706 1.903,-3.889 2.288,-6.045 l 0.255,-1.372 c 0.725,-3.821 0.75,-7.577 0.396,-11.447 l -0.079,-0.87 c -0.146,-1.659 0,0 0,0 z m -1.301,12.131 -0.256,1.382 c -0.267,1.486 -0.523,3.037 -1.234,4.386 -0.561,1.064 -1.727,2.536 -2.958,2.84 -1.202,0.296 -2.012,-1.842 -2.276,-2.666 -0.537,-1.67 -0.772,-3.399 -1.027,-5.128 -0.295,-1.998 -0.843,-3.943 -1.149,-5.939 -0.297,-1.927 -0.541,-3.805 -0.948,-5.716 -0.346,-1.611 -0.173,-3.134 -0.254,-4.758 -0.056,-1.125 -0.524,-3.315 -2.082,-3.11 l 0.136,0.991 c 0.05,-0.007 0.077,-0.008 0.081,-0.011 1.008,0.588 0.898,2.225 0.873,3.21 -0.045,1.694 0.103,3.213 0.49,4.868 l -0.059,0.085 c 0.498,0.699 -0.204,2.556 -0.204,3.352 l 0.004,0.667 c 0.023,2.777 -0.587,5.5 -2.105,7.869 l -0.232,0.365 c -0.662,1.051 -1.509,1.791 -2.343,2.695 -0.853,0.922 -1.743,1.561 -2.979,1.863 -1.987,0.486 -5.122,0.151 -5.331,-2.424 -0.115,-1.424 0.104,-2.906 0.179,-4.329 0.085,-1.597 0.028,-3.195 0.254,-4.783 0.192,-1.365 0.153,-2.75 0.495,-4.092 0.369,-1.447 0.759,-2.837 0.956,-4.323 l 0.095,-0.692 c 0.14,-0.975 0.513,-1.96 0.813,-2.896 0.259,-0.807 0.813,-1.798 0.652,-2.672 l -0.143,-0.777 -0.643,0.46 c -0.347,0.25 -0.751,0.41 -1.042,0.735 l 0.677,0.606 c -0.441,1.446 -1.089,2.896 -1.306,4.4 l -0.096,0.703 c -0.172,1.288 -0.471,2.504 -0.813,3.753 -0.363,1.325 -0.386,2.614 -0.538,3.967 -0.321,2.851 -0.416,5.726 -0.522,8.595 -0.963,0.536 -2.028,-0.445 -2.653,-1.079 -0.854,-0.866 -1.673,-1.791 -2.495,-2.689 -1.65,-1.799 -2.886,-4.186 -2.88,-6.671 l 0.001,-0.62 c 0.003,-5.723 0.99,-11.454 3.391,-16.685 0.824,-1.797 1.713,-3.583 2.924,-5.157 1.484,-1.932 3.329,-2.939 5.715,-3.406 1.326,-0.259 2.751,-0.136 4.096,-0.179 1.525,-0.048 2.996,0.042 4.448,0.55 2.678,0.937 4.644,2.681 6.221,4.988 1.641,2.409 3.345,4.729 4.554,7.399 1.17,2.583 1.581,5.224 1.826,8.03 l 0.077,0.875 c 0.34,3.776 0.317,7.439 -0.39,11.168 0,0 0.316,-1.663 0,0 z" /><path
   inkscape:connector-curvature="0"
   id="path489"
   d="m 409.5294,152.09385 c -0.433,-1.368 -0.696,-2.789 -1.28,-4.106 -0.612,-1.382 -1.543,-2.631 -2.479,-3.809 -1.756,-2.209 -3.725,-4.264 -5.58,-6.391 -1.726,-1.979 -3.793,-2.9 -6.356,-3.317 -1.438,-0.234 -2.9,-0.334 -4.348,-0.488 -1.477,-0.156 -3.166,-0.467 -4.622,-0.07 -2.61,0.71 -4.396,3.145 -6.294,4.897 -1.704,1.573 -3.283,2.991 -4.554,4.969 -3,4.669 -4.722,10.181 -4.669,15.743 0.025,2.689 0.652,5.317 1.1,7.958 0.496,2.946 1.572,5.778 2.606,8.573 1.085,2.934 2.591,5.647 3.854,8.498 0.47,1.061 0.702,2.225 1.335,3.212 0.749,1.169 2.019,1.668 3.239,2.203 l 0.412,0.181 c 1.032,0.46 2.069,0.623 3.196,0.603 1.356,-0.024 2.334,0.092 3.546,0.726 2.217,1.161 5.024,0.409 7.288,-0.25 l 0.524,-0.15 c 1.783,-0.509 3.315,-1.127 4.741,-2.344 1.552,-1.323 3.165,-2.563 4.525,-4.091 2.527,-2.841 4.583,-6.308 5.606,-9.983 2.057,-7.377 0.461,-15.433 -1.79,-22.564 -0.141,-0.448 3.01,9.534 0,0 z m 0.541,23.238 c -1.074,3.24 -2.975,6.306 -5.267,8.824 -1.29,1.417 -2.813,2.576 -4.269,3.816 -1.313,1.121 -2.72,1.671 -4.363,2.14 l -0.529,0.152 c -2.137,0.623 -4.688,1.323 -6.765,0.207 -2.119,-1.133 -4.432,-0.281 -6.579,-1.239 l -0.418,-0.184 c -1.037,-0.455 -2.187,-0.856 -2.818,-1.858 -0.706,-1.125 -0.961,-2.499 -1.555,-3.685 -1.38,-2.761 -2.739,-5.55 -3.759,-8.469 -0.974,-2.788 -1.965,-5.496 -2.433,-8.422 -0.44,-2.75 -1.056,-5.392 -0.96,-8.197 0.184,-5.389 2.061,-10.873 5.271,-15.219 1.451,-1.965 3.404,-3.41 5.12,-5.126 0.947,-0.948 1.919,-1.919 3.075,-2.613 1.304,-0.782 2.589,-0.739 4.061,-0.624 2.329,0.183 4.774,0.32 7.049,0.875 2.063,0.503 3.494,1.524 4.854,3.146 2.899,3.46 6.813,6.676 8.119,11.153 2.36,8.092 4.933,16.979 2.166,25.323 -1.082,3.264 1.955,-5.89 0,0 z" /><path
   inkscape:connector-curvature="0"
   id="path491"
   d="m 347.9304,151.03985 c -0.631,-1.336 -1.061,-2.759 -1.741,-4.073 -0.609,-1.179 -1.438,-2.28 -2.258,-3.321 -1.48,-1.884 -3.265,-3.463 -5.31,-4.714 -2.112,-1.292 -4.502,-2.241 -7.013,-1.89 -2.525,0.354 -4.546,1.151 -6.453,2.84 -2.035,1.801 -4.086,3.827 -5.554,6.128 -0.746,1.169 -1.104,2.468 -1.388,3.812 -0.325,1.537 -0.716,3.051 -0.944,4.607 -0.217,1.473 -0.559,2.963 -0.646,4.449 -0.091,1.52 0.093,3.035 0.16,4.551 0.06,1.355 0.11,2.713 0.507,4.022 0.321,1.067 0.938,2.535 2.103,2.909 0.45,0.145 0.938,0.137 1.405,0.141 0.637,0.054 1.357,0.091 1.979,-0.08 0.361,2.415 2.422,4.207 4.748,4.706 2.716,0.583 5.559,-0.861 7.126,-3.087 l 0.199,-0.28 c 0.274,-0.382 0.535,-0.75 0.751,-1.2 0.146,2.178 0.067,4.385 0.284,6.555 0.178,1.769 0.42,4.406 2.541,4.841 1.823,0.374 3.622,-0.688 4.688,-2.097 1.164,-1.539 2.179,-3.385 3.037,-5.11 1.807,-3.629 3.303,-7.645 3.729,-11.691 0.217,-2.056 0.366,-4.165 0.057,-6.22 -0.308,-2.045 -1.13,-3.941 -2.007,-5.798 -0.271,-0.574 0.961,2.035 0,0 z m 0.925,12.213 c -0.229,2.097 -0.794,4.134 -1.524,6.108 -0.802,2.161 -1.668,4.361 -2.85,6.344 -0.964,1.618 -1.853,3.891 -3.59,4.839 -0.762,0.416 -1.861,0.696 -2.685,0.29 -0.882,-0.438 -1.002,-1.753 -1.154,-2.608 -0.4,-2.245 -0.251,-4.565 -0.39,-6.835 -0.146,-2.376 -0.22,-4.77 -0.404,-7.142 -0.088,-1.117 -0.298,-2.22 -0.402,-3.335 -0.102,-1.089 0.003,-2.152 0.056,-3.24 0.043,-0.906 0.363,-2.987 -0.599,-3.594 l -0.562,0.823 c 0.365,0.447 0.199,1.539 0.186,2.063 -0.021,0.864 -0.104,1.724 -0.137,2.587 -0.045,1.249 0.189,2.496 0.349,3.729 0.182,1.396 0.17,2.806 0.255,4.209 -0.413,0.526 -0.411,1.211 -0.477,1.845 -0.071,0.706 -0.485,1.281 -0.889,1.841 l -0.206,0.289 c -1.438,2.044 -4.077,3.313 -6.534,2.574 -2.586,-0.779 -3.915,-3.053 -3.475,-5.669 0.225,-1.332 0.479,-2.633 0.641,-3.976 0.168,-1.403 0.224,-2.875 0.563,-4.249 0.327,-1.322 0.846,-2.602 1.257,-3.9 0.188,-0.591 0.352,-1.255 0.685,-1.784 0.33,-0.524 0.791,-1.031 0.827,-1.682 l -0.998,-0.056 c -0.034,0.588 -0.686,1.107 -0.907,1.64 -0.259,0.623 -0.463,1.269 -0.664,1.912 -0.417,1.336 -0.976,2.644 -1.258,4.019 -0.291,1.414 -0.368,2.898 -0.538,4.333 -0.187,1.573 -0.638,3.137 -0.706,4.718 -0.594,0.396 -2.399,0.309 -3.063,0.052 -1.024,-0.397 -1.449,-2.163 -1.628,-3.104 -0.246,-1.295 -0.223,-2.621 -0.311,-3.932 -0.105,-1.586 -0.242,-3.191 0.064,-4.765 0.578,-2.98 0.905,-5.994 1.729,-8.93 0.767,-2.731 3.031,-4.901 5.006,-6.83 1.866,-1.822 3.564,-3.112 6.166,-3.628 2.665,-0.528 4.944,0.107 7.262,1.482 2.357,1.4 4.282,3.276 5.889,5.489 1.623,2.238 2.505,4.752 3.637,7.252 0.755,1.668 1.381,3.393 1.56,5.228 0.177,1.86 0.022,3.742 -0.181,5.593 -0.413,3.743 0.191,-1.743 0,0 z" /><path
   inkscape:connector-curvature="0"
   id="path493"
   d="m 351.7874,147.12185 c -0.859,-3.387 -2.701,-6.246 -5.292,-8.567 -1.173,-1.051 -2.439,-1.989 -3.724,-2.899 -1.428,-1.013 -3.026,-1.471 -4.711,-1.856 l -0.154,-0.035 c -0.989,-0.227 -2.008,-0.289 -2.997,-0.507 l -0.583,-0.132 c -2.779,-0.639 -5.813,-0.781 -8.296,0.854 -1.218,0.801 -2.185,1.896 -3.278,2.843 -1.145,0.991 -2.224,1.906 -3.137,3.13 -1.829,2.454 -3.071,5.221 -4.246,8.03 -0.57,1.364 -1.302,2.731 -1.675,4.165 -0.401,1.547 -0.398,3.161 -0.398,4.749 v 0.105 c 0,2.66 0.104,5.418 0.332,8.067 0.214,2.488 1.182,4.692 2.169,6.958 1.126,2.586 2.101,5.226 3.182,7.83 0.526,1.266 0.916,2.89 1.784,3.965 0.81,1.001 1.783,1.751 2.519,2.837 l 0.299,0.44 c 0.888,1.279 1.868,2.427 3.309,3.09 1.895,0.872 3.885,0.78 5.91,0.589 l 0.294,-0.027 c 4.323,-0.402 7.88,-2.457 10.624,-5.756 1.409,-1.694 2.677,-3.521 3.68,-5.485 1.061,-2.073 1.536,-4.16 1.937,-6.438 0.386,-2.2 1.46,-4.132 1.974,-6.287 0.439,-1.843 0.456,-3.855 0.559,-5.741 0.117,-2.204 0.168,-4.411 0.181,-6.618 0.008,-2.39 0.332,-4.963 -0.262,-7.304 -0.399,-1.574 0.368,1.451 0,0 z m -0.716,4.658 c -0.1,3.876 -0.06,7.744 -0.366,11.613 -0.148,1.859 -0.4,3.546 -1.086,5.295 -0.78,1.992 -1.19,3.914 -1.581,6.01 -0.692,3.719 -2.893,7.065 -5.301,9.907 -2.522,2.976 -5.819,4.785 -9.737,5.149 l -0.296,0.028 c -1.76,0.166 -3.522,0.298 -5.189,-0.409 -1.375,-0.583 -2.279,-1.642 -3.113,-2.844 l -0.293,-0.43 c -0.662,-0.982 -1.424,-1.741 -2.259,-2.569 -0.945,-0.937 -1.3,-2.496 -1.8,-3.701 -1.084,-2.616 -2.051,-5.274 -3.189,-7.867 -0.938,-2.133 -1.946,-4.262 -2.198,-6.602 -0.141,-1.289 -0.095,-2.583 -0.155,-3.876 -0.07,-1.494 -0.21,-2.985 -0.21,-4.482 v -0.105 c 0,-1.356 -0.007,-2.729 0.268,-4.063 0.296,-1.44 1.026,-2.787 1.592,-4.137 1.157,-2.771 2.35,-5.517 4.124,-7.959 0.72,-0.991 1.536,-1.903 2.51,-2.651 1.133,-0.872 2.072,-1.962 3.195,-2.842 2.379,-1.861 5.312,-1.79 8.118,-1.144 l 0.593,0.134 c 0.987,0.217 2.003,0.279 2.988,0.505 l 0.154,0.036 c 1.929,0.441 3.486,1.059 5.095,2.226 1.55,1.124 3.062,2.323 4.357,3.738 1.343,1.467 2.343,3.149 3.025,5.017 0.729,1.989 0.81,3.923 0.754,6.023 -0.012,0.498 0.04,-1.522 0,0 z" /><path
   inkscape:connector-curvature="0"
   id="path495"
   d="m 290.5464,163.00285 c 0.014,-4.488 -2,-9.375 -4.965,-12.727 -0.746,-0.844 -1.601,-1.622 -2.594,-2.165 -1.15,-0.628 -2.538,-0.672 -3.817,-0.658 -1.337,0.016 -2.734,-0.045 -4.039,0.282 -1.272,0.319 -2.438,0.947 -3.577,1.579 l -0.412,0.227 c -1.314,0.72 -2.651,1.481 -3.536,2.733 -1.045,1.481 -1.605,3.296 -2.185,4.995 l -0.104,0.308 c -0.952,2.79 -1.172,5.603 -0.815,8.515 l 0.055,0.461 c 0.15,1.264 -0.044,2.479 0.601,3.644 0.52,0.94 1.342,1.631 2.163,2.297 0.768,0.623 1.456,1.495 2.319,1.98 1.003,0.563 1.914,0.034 2.956,0.095 l 0.04,0.34 0.387,0.049 c 1.331,0.169 2.745,0.084 3.896,-0.672 1.259,-0.827 1.989,-2.29 2.614,-3.611 0.021,0.842 -0.097,1.675 -0.08,2.517 0.006,0.351 0.034,0.707 0.131,1.046 0.053,0.185 0.46,0.662 0.46,0.779 l 0.012,0.735 c 0.812,-0.017 1.571,-0.375 2.317,-0.65 0.708,-0.26 1.435,-0.454 2.122,-0.771 1.414,-0.652 2.21,-1.84 3.135,-3.029 l 0.324,-0.416 c 0.783,-0.999 1.55,-2.012 2.051,-3.188 0.539,-1.265 0.559,-2.623 0.545,-3.975 l -0.004,-0.72 c 0.004,-1.322 0,0 0,0 z m -1.461,4.303 c -0.48,1.127 -1.179,2.019 -1.918,2.963 l -0.328,0.419 c -0.679,0.88 -1.286,1.873 -2.256,2.468 -1.064,0.652 -2.409,0.989 -3.588,1.387 l -0.068,-0.277 c -0.76,0.178 -0.389,-3.673 -0.407,-4.15 -0.091,-2.438 0.067,-4.87 0.52,-7.272 l 0.02,-0.101 c 0.542,-2.861 0.473,-4.213 -0.245,-4.665 l -0.542,0.839 c 0.069,0.069 0.388,0.569 -0.194,3.639 l -0.021,0.103 c -0.224,1.188 -0.328,2.394 -0.464,3.593 h -0.046 c 0,2.117 -0.801,3.96 -1.867,5.751 -0.921,1.546 -2.365,2.152 -4.13,2.008 -0.054,-1.13 0.203,-2.248 0.241,-3.375 0.043,-1.231 0.108,-2.442 0.243,-3.668 l 0.064,-0.608 c 0.094,-0.881 0.323,-1.907 0.545,-2.9 l 0.136,-0.607 c 0.291,-1.324 0.97,-2.695 0.774,-4.082 l -0.114,-0.817 -0.671,0.479 c -0.246,0.175 -0.33,0.379 -0.393,0.528 l -0.034,0.082 0.239,0.11 c 0.019,1.193 -0.528,2.337 -0.779,3.486 l -0.134,0.603 c -0.218,0.973 -0.465,2.076 -0.563,3.013 l -0.064,0.604 c -0.241,2.206 -0.448,4.494 -0.489,6.712 -0.891,-0.007 -1.823,0.484 -2.62,-0.096 -0.705,-0.514 -1.3,-1.206 -1.981,-1.757 -0.69,-0.56 -1.403,-1.133 -1.863,-1.91 -0.618,-1.046 -0.4,-2.218 -0.535,-3.371 l -0.057,-0.466 c -0.337,-2.769 -0.136,-5.42 0.77,-8.071 l 0.105,-0.309 c 0.494,-1.447 0.979,-2.924 1.749,-4.254 0.805,-1.393 2.134,-2.168 3.506,-2.919 l 0.416,-0.229 c 1.081,-0.599 2.188,-1.202 3.398,-1.496 1.202,-0.292 2.516,-0.227 3.747,-0.241 1.1,-0.013 2.332,-0.006 3.322,0.535 0.946,0.518 1.746,1.279 2.443,2.092 2.726,3.173 4.608,7.722 4.596,11.919 l 0.004,0.732 c 0.011,1.305 0.021,2.43 -0.467,3.576 -0.48,1.128 0.488,-1.146 0,0 z" /><path
   inkscape:connector-curvature="0"
   id="path497"
   d="m 295.5494,161.68785 c -0.195,-1.669 -1.31,-2.998 -1.772,-4.577 l -0.189,-0.661 c -0.61,-2.157 -1.426,-3.862 -2.89,-5.575 -1.436,-1.679 -3.037,-3.181 -4.835,-4.467 -0.923,-0.66 -1.904,-1.226 -2.841,-1.865 -0.855,-0.586 -1.729,-1.165 -2.725,-1.486 -1.867,-0.602 -4.497,-0.73 -6.291,0.187 l -0.915,0.463 c -4.854,2.442 -9.604,5.793 -11.53,11.122 -0.917,2.536 -1.335,5.307 -1.584,7.983 -0.232,2.515 -0.208,5.32 0.359,7.797 0.302,1.316 1.331,2.295 1.95,3.464 0.726,1.369 1.283,2.818 1.768,4.287 0.896,2.716 1.454,5.557 2.389,8.251 0.403,1.16 1.024,2.293 2.25,2.711 1.236,0.421 2.579,0.179 3.854,0.179 2.667,0 5.464,-0.516 7.598,-2.218 0.823,-0.657 1.523,-1.45 2.221,-2.236 l 0.366,-0.414 c 1.704,-1.908 3.024,-4.134 4.643,-6.115 0.717,-0.877 1.65,-1.569 2.435,-2.387 0.812,-0.847 1.563,-1.75 2.246,-2.701 1.286,-1.785 2.626,-3.885 3.239,-6.016 0.524,-1.832 0.473,-3.847 0.254,-5.726 -0.118,-1.011 0.146,1.258 0,0 z m -1.46,6.125 c -1.314,2.987 -3.107,5.752 -5.427,8.058 -1.25,1.243 -2.42,2.409 -3.482,3.831 -1.063,1.423 -2.01,2.938 -3.194,4.267 l -0.37,0.417 c -1.778,2.008 -3.598,3.418 -6.305,3.894 -1.37,0.241 -2.759,0.214 -4.145,0.27 -1.009,0.041 -2.349,0.12 -3.034,-0.786 -0.785,-1.038 -1.023,-2.399 -1.324,-3.633 -0.354,-1.456 -0.824,-2.893 -1.255,-4.329 -0.854,-2.85 -1.846,-5.619 -3.58,-8.058 -0.788,-1.106 -0.751,-2.271 -0.931,-3.561 -0.186,-1.326 -0.204,-2.681 -0.15,-4.017 0.104,-2.652 0.525,-5.413 1.271,-7.96 1.562,-5.333 5.96,-8.858 10.733,-11.28 0.216,-0.108 0.43,-0.216 0.644,-0.324 l 0.921,-0.466 c 1.573,-0.805 3.964,-0.655 5.598,-0.104 0.983,0.332 1.828,0.951 2.68,1.528 0.839,0.569 1.718,1.073 2.543,1.663 1.611,1.153 3.065,2.485 4.372,3.975 1.501,1.713 2.353,3.342 2.972,5.525 l 0.192,0.67 c 0.529,1.811 1.659,3.239 1.813,5.171 0.134,1.715 0.165,3.644 -0.542,5.249 -1.448,3.29 0.833,-1.89 0,0 z" /><path
   inkscape:connector-curvature="0"
   id="path499"
   d="m 240.5184,148.36585 c -2.321,-1.149 -4.556,-2.554 -7.264,-2.092 -3.054,0.521 -3.041,3.827 -1.054,5.641 -1.667,-0.099 -3.319,0.372 -3.793,2.158 -0.576,2.171 2.039,2.812 3.31,3.851 1.589,1.3 3.035,3.224 4.172,4.93 1.291,1.937 1.447,3.984 1.51,6.25 0.027,0.993 0.183,1.979 0.191,2.97 0.011,0.969 -0.032,1.941 0.078,2.907 0.203,1.788 1.542,3.36 3.507,2.427 2.712,-1.289 3.508,-5.379 4.404,-7.933 l 0.151,-0.42 c 0.578,-1.582 0.559,-3.053 0.563,-4.717 l 0.002,-1.084 c 0,-1.532 0.289,-3.046 0.319,-4.577 0.028,-1.502 -0.271,-2.942 -0.863,-4.321 -1.032,-2.405 -2.845,-4.808 -5.233,-5.99 -0.371,-0.184 2.912,1.441 0,0 z m 4.943,12.387 c -0.081,0.809 -0.165,1.645 -0.165,2.499 l -0.002,1.082 c -0.004,1.543 0.036,2.908 -0.502,4.375 l -0.156,0.433 c -0.457,1.307 -0.848,2.629 -1.396,3.903 -0.51,1.179 -1.158,2.656 -2.305,3.355 -1.746,1.066 -2.259,-0.902 -2.321,-2.176 -0.099,-1.946 -0.182,-3.902 -0.233,-5.85 -0.058,-2.117 -0.368,-4.066 -1.529,-5.879 -1.068,-1.668 -2.444,-3.357 -3.852,-4.755 -0.679,-0.674 -1.437,-1.14 -2.262,-1.605 -0.61,-0.344 -1.526,-0.829 -1.394,-1.667 0.338,-2.107 3.151,-1.606 4.608,-1.281 2.62,1.623 7.309,2.814 7.343,6.57 l 1,-0.009 c -0.039,-4.308 -4.865,-5.578 -7.891,-7.458 l 0.006,-0.024 c -0.023,-0.006 -0.048,-0.012 -0.072,-0.017 -0.913,-0.574 -1.944,-1.265 -2.39,-2.292 -0.39,-0.895 -0.258,-2.022 0.691,-2.467 2.291,-1.073 4.888,0.447 6.866,1.483 1.993,1.043 3.518,2.459 4.655,4.419 1.372,2.361 1.57,4.688 1.301,7.361 -0.081,0.809 0.119,-1.186 0,0 z" /><path
   inkscape:connector-curvature="0"
   id="path501"
   d="m 250.3034,156.63685 c -0.024,-2.398 -0.384,-4.435 -1.174,-6.702 l -0.117,-0.339 c -0.512,-1.476 -0.616,-3.057 -1.128,-4.534 -0.505,-1.459 -1.518,-2.419 -2.371,-3.655 -0.728,-1.057 -1.083,-2.243 -2.013,-3.171 -0.991,-0.99 -1.961,-1.741 -3.408,-1.741 l -0.802,0.008 c -0.951,0 -1.903,0.101 -2.854,0.04 -0.979,-0.064 -1.885,-0.491 -2.865,-0.539 l -0.175,-0.004 c -1.187,0 -2.238,0.613 -3.164,1.298 -0.921,0.682 -1.876,1.344 -2.773,2.051 -1.943,1.528 -3.456,3.625 -4.876,5.625 -1.41,1.987 -2.861,4.1 -4.011,6.249 -1.293,2.417 -1.045,4.933 -1.026,7.573 0.009,1.261 -0.109,2.524 0,3.784 0.115,1.329 0.575,2.548 1.08,3.771 0.984,2.395 1.34,4.972 2.373,7.347 0.961,2.208 2.25,4.244 3.665,6.186 0.761,1.044 1.531,2.092 2.415,3.037 0.848,0.905 1.764,1.36 2.817,1.968 0.438,0.933 2.817,0.365 3.545,0.192 1.231,-0.292 2.479,-0.717 3.594,-1.324 l 0.684,-0.368 c 2.109,-1.129 3.959,-2.421 5.671,-4.098 0.854,-0.836 1.695,-1.753 2.245,-2.824 0.617,-1.204 0.816,-2.545 1.238,-3.817 0.412,-1.243 1.037,-2.401 1.435,-3.656 0.43,-1.355 0.741,-2.743 1.021,-4.135 0.555,-2.772 1.005,-5.389 0.974,-8.222 -0.005,-0.464 0.017,1.581 0,0 z m -1.259,4.499 c -0.45,2.12 -0.785,4.266 -1.345,6.362 -0.569,2.129 -1.605,4.068 -2.165,6.194 -0.556,2.117 -1.522,3.633 -3.11,5.138 -1.582,1.498 -3.261,2.646 -5.178,3.674 l -0.69,0.372 c -1.548,0.843 -4.076,1.874 -5.856,1.375 -0.585,-0.639 -1.601,-0.795 -2.251,-1.386 -0.873,-0.791 -1.607,-1.731 -2.312,-2.671 -1.321,-1.768 -2.585,-3.585 -3.588,-5.556 -1.155,-2.27 -1.58,-4.641 -2.368,-7.032 -0.386,-1.168 -0.949,-2.269 -1.313,-3.445 -0.405,-1.311 -0.386,-2.663 -0.346,-4.02 0.071,-2.398 -0.422,-5.022 0.421,-7.325 0.81,-2.215 2.46,-4.322 3.771,-6.274 1.342,-1.999 2.796,-4.049 4.553,-5.708 0.875,-0.826 1.905,-1.443 2.85,-2.185 0.939,-0.74 2.016,-1.651 3.282,-1.651 l 0.125,0.003 c 0.843,0.041 1.626,0.406 2.461,0.503 1.104,0.129 2.214,-0.002 3.319,-0.002 l 0.789,-0.008 c 2.798,0 3.563,3.218 4.975,4.981 0.836,1.044 1.59,1.957 1.984,3.263 0.417,1.376 0.544,2.824 1.017,4.186 l 0.117,0.34 c 1.182,3.398 1.614,7.305 0.858,10.872 -0.152,0.717 0.293,-1.383 0,0 z" /><path
   inkscape:connector-curvature="0"
   id="path503"
   d="m 193.9574,166.92885 c -0.153,-1.101 -0.306,-2.191 -0.428,-3.223 l -0.044,-0.397 c -0.131,-1.185 -0.531,-1.961 -1.116,-2.983 -0.592,-1.034 -0.315,-2.491 -0.447,-3.64 -0.151,-1.319 0.035,-2.893 -0.477,-4.13 -0.448,-1.086 -1.313,-1.943 -2.277,-2.585 -1.724,-1.148 -3.888,-1.896 -5.817,-0.784 -2.094,1.205 -3.437,3.67 -2.821,6.045 -0.517,-0.025 -1.017,-0.183 -1.533,-0.189 -0.516,-0.006 -0.988,0.168 -1.493,0.226 -0.868,0.099 -3.072,0.164 -3.568,1.021 -0.495,0.855 -0.42,2.285 -0.373,3.234 0.059,1.195 0.622,2.276 1.644,2.93 0.949,0.607 2.083,0.558 3.112,0.932 1.239,0.451 2.157,1.461 3.116,2.321 0.907,0.812 2.019,1.464 2.737,2.465 0.765,1.063 0.739,2.39 0.879,3.637 l 0.033,0.29 c 0.155,1.386 0.148,2.735 0.189,4.121 0.043,1.455 0.983,2.414 2.479,2.296 1.128,-0.088 2.539,-0.221 3.486,-0.896 0.813,-0.579 1.22,-1.534 1.623,-2.412 l 0.199,-0.433 c 0.537,-1.153 0.711,-2.553 1.088,-3.773 0.403,-1.302 -0.007,-2.759 -0.191,-4.073 -0.153,-1.101 0.117,0.838 0,0 z m -0.928,4.249 c -0.378,1.029 -0.412,2.182 -0.875,3.174 l -0.202,0.438 c -0.318,0.693 -0.623,1.518 -1.255,1.995 -0.715,0.538 -1.771,0.56 -2.62,0.68 -1.31,0.186 -1.84,-0.359 -1.807,-1.646 0.034,-1.29 -0.052,-2.55 -0.195,-3.833 l -0.032,-0.29 c -0.226,-2.023 -0.404,-3.704 -2.009,-5.139 -0.712,-0.637 -1.492,-1.188 -2.197,-1.835 -0.678,-0.622 -1.342,-1.269 -2.126,-1.758 -1.448,-0.904 -3.621,-0.572 -4.688,-2.036 -0.764,-1.049 -0.489,-2.82 -0.28,-4.022 1.027,-0.464 2.101,-0.482 3.187,-0.694 1.095,-0.213 2.056,0.125 3.138,-0.001 l 0.31,-0.037 0.103,-0.294 c 0.182,-0.514 -0.018,-0.955 -0.15,-1.443 -0.127,-0.462 0.102,-0.864 0.211,-1.301 0.281,-1.131 0.77,-1.939 1.691,-2.664 1.882,-1.476 4.104,-0.713 5.834,0.659 0.775,0.615 1.484,1.447 1.636,2.458 0.178,1.189 0.165,2.467 0.276,3.672 0.098,1.042 -0.095,2.212 0.338,3.193 0.471,1.067 1.046,1.761 1.178,2.963 l 0.046,0.406 c 0.142,1.203 0.313,2.402 0.479,3.602 0.177,1.295 0.468,2.492 0.009,3.753 -0.078,0.213 0.2,-0.547 0,0 z" /><path
   inkscape:connector-curvature="0"
   id="path505"
   d="m 200.3784,156.53585 c -0.133,-1.283 0.085,-2.573 -0.073,-3.845 l -0.055,-0.452 c -0.509,-4.184 -1.566,-7.906 -4.543,-11.024 -2.51,-2.628 -6.282,-5.336 -9.983,-5.735 -1.977,-0.213 -4.051,0.2 -5.888,0.93 -2.079,0.827 -3.557,2.238 -5.214,3.682 -1.663,1.448 -3.45,2.682 -4.945,4.324 -0.614,0.671 -1.325,1.288 -1.738,2.116 -0.495,0.994 -0.56,2.163 -0.629,3.251 l -0.012,0.187 c -0.088,1.364 -0.976,2.552 -1.278,3.874 -0.353,1.54 -0.411,3.124 -0.784,4.662 -0.709,2.911 -0.993,5.986 -0.226,8.914 0.729,2.773 2.061,5.489 3.279,8.075 1.325,2.81 3.174,4.901 5.535,6.88 l 0.088,0.074 c 1.372,1.15 2.703,2.577 4.497,3.09 1.935,0.551 4.128,0.467 6.105,0.256 3.267,-0.349 6.727,-1.248 8.948,-3.838 1.418,-1.651 2.336,-3.838 3.267,-5.787 0.995,-2.086 1.98,-4.233 2.678,-6.441 1.302,-4.127 1.424,-8.919 0.971,-13.193 -0.028,-0.274 0.083,0.782 0,0 z m -2.237,13.796 c -1.13,2.99 -2.473,5.902 -3.997,8.711 -1.261,2.326 -2.877,3.951 -5.408,4.845 -2.356,0.833 -4.988,1.112 -7.476,1.026 -1.367,-0.047 -2.632,-0.201 -3.789,-0.974 -0.53,-0.353 -1.144,-0.608 -1.632,-1.019 -0.457,-0.383 -0.826,-0.858 -1.284,-1.242 l -0.088,-0.073 c -2.252,-1.887 -4.013,-3.864 -5.275,-6.543 -1.242,-2.64 -2.648,-5.435 -3.313,-8.288 -0.687,-2.94 -0.141,-5.828 0.495,-8.716 0.312,-1.415 0.318,-2.883 0.693,-4.285 0.344,-1.282 1.144,-2.388 1.229,-3.741 l 0.012,-0.188 c 0.059,-0.904 0.116,-1.823 0.441,-2.678 0.347,-0.909 1.229,-1.615 1.879,-2.308 1.377,-1.465 2.993,-2.594 4.511,-3.894 1.468,-1.256 2.761,-2.604 4.552,-3.408 1.838,-0.826 3.991,-1.315 6.008,-1.073 1.795,0.216 3.429,1.028 4.93,1.996 1.608,1.037 3.181,2.161 4.491,3.567 2.736,2.938 3.667,6.418 4.139,10.312 l 0.056,0.454 c 0.169,1.369 -0.036,2.777 0.106,4.164 0.158,1.536 0.139,3.074 0.103,4.616 -0.072,2.955 -0.332,5.953 -1.383,8.739 -1.229,3.25 1.3,-3.44 0,0 z" /><path
   inkscape:connector-curvature="0"
   id="path507"
   d="m 140.2894,164.75185 c -0.869,0 -1.658,0.454 -2.519,0.497 -0.063,-0.053 -0.124,-0.112 -0.19,-0.158 l -0.079,0.115 c -1.34,-1.165 -3.097,-2.325 -4.879,-1.147 -1.762,1.165 -1.324,3.791 -1.271,5.579 0.063,2.069 -0.134,4.021 -0.363,6.064 -0.148,1.326 -0.35,3.391 0.922,4.275 1.738,1.21 3.438,-0.514 4.4,-1.829 0.645,-0.881 1.257,-1.697 2.106,-2.395 0.865,-0.711 1.799,-1.342 2.571,-2.16 1.289,-1.366 2.6,-3.399 2.867,-5.29 0.307,-2.15 -1.576,-3.544 -3.565,-3.551 -0.464,0 1.236,0.004 0,0 z m 2.532,3.651 c -0.338,1.469 -1.243,2.862 -2.158,4.036 -1.094,1.405 -2.738,2.229 -3.941,3.525 -0.947,1.02 -1.568,2.58 -2.871,3.218 -1.404,0.689 -1.929,-0.671 -1.956,-1.799 -0.029,-1.296 0.276,-2.551 0.399,-3.833 0.187,-1.965 0.031,-3.94 0.005,-5.908 -0.018,-1.39 0.23,-3.03 1.968,-3.03 0.688,0 1.194,0.196 1.758,0.561 0.478,0.308 0.724,0.925 1.315,1.04 1.739,1.92 -0.16,4.02 -0.997,5.829 l 0.906,0.421 c 0.965,-2.077 2.646,-3.985 1.271,-6.325 1.014,-0.229 1.896,-0.563 2.927,-0.188 1.06,0.386 1.63,1.335 1.374,2.453 -0.303,1.325 0.157,-0.683 0,0 z" /><path
   inkscape:connector-curvature="0"
   id="path509"
   d="m 148.7904,161.93385 c -0.322,-2.318 -0.622,-4.722 -1.444,-6.926 -0.757,-2.025 -1.554,-4.027 -2.295,-6.06 -0.74,-2.032 -1.605,-4.034 -2.72,-5.892 -1.157,-1.932 -2.595,-3.051 -4.55,-4.121 l -0.549,-0.302 c -1.801,-1.008 -3.811,-1.438 -5.824,-0.863 -1.952,0.558 -3.821,1.41 -5.52,2.524 -3.304,2.168 -6.345,5.557 -7.533,9.367 -0.609,1.959 -1.316,4.081 -1.501,6.128 -0.194,2.173 -0.068,4.398 -0.108,6.58 -0.036,1.98 0.001,4.027 0.684,5.911 0.339,0.938 0.888,1.69 1.418,2.521 0.633,0.995 1.117,2.074 1.603,3.146 l 0.203,0.448 c 0.963,2.121 2.122,4.15 3.491,6.036 0.642,0.883 1.311,1.748 2.085,2.518 0.697,0.692 1.416,1.372 1.8,2.298 l 0.135,0.341 c 1.097,2.858 5.423,1.884 7.422,0.545 1.412,-0.946 2.844,-1.458 4.431,-2.036 1.613,-0.587 3.061,-1.498 4.321,-2.66 2.44,-2.245 4.133,-5.289 4.413,-8.616 0.146,-1.743 0.012,-3.491 0.055,-5.236 0.045,-1.879 0.244,-3.777 -0.017,-5.651 -0.243,-1.751 0.194,1.383 0,0 z m -0.933,4.248 c -0.171,3.978 0.425,7.933 -1.726,11.506 -0.958,1.592 -2.251,2.994 -3.768,4.067 -1.726,1.22 -3.729,1.583 -5.597,2.485 -0.903,0.436 -1.668,1.096 -2.552,1.563 -0.788,0.416 -1.627,0.484 -2.501,0.518 -0.632,0.024 -1.6,0.142 -2.146,-0.264 -0.491,-0.364 -0.618,-1.28 -0.911,-1.792 -0.457,-0.797 -1.12,-1.421 -1.765,-2.064 -0.738,-0.738 -1.377,-1.575 -1.986,-2.421 -1.31,-1.813 -2.42,-3.762 -3.345,-5.796 l -0.2,-0.445 c -0.374,-0.828 -0.748,-1.656 -1.187,-2.452 -0.479,-0.87 -1.134,-1.635 -1.557,-2.534 -0.834,-1.775 -0.901,-3.804 -0.88,-5.731 0.021,-1.957 -0.001,-3.921 0.052,-5.876 0.056,-2.111 0.71,-4.106 1.27,-6.127 1.063,-3.839 3.714,-7.147 6.977,-9.404 1.539,-1.065 3.234,-1.909 5.016,-2.487 2.012,-0.654 3.845,-0.454 5.693,0.581 l 0.557,0.307 c 0.951,0.52 1.931,1.042 2.728,1.79 0.84,0.788 1.426,1.882 1.968,2.885 1.1,2.034 1.948,4.202 2.666,6.397 0.8,2.445 1.971,4.697 2.489,7.235 0.551,2.691 0.825,5.311 0.705,8.059 -0.031,0.703 0.06,-1.385 0,0 z" /><path
   inkscape:connector-curvature="0"
   id="path511"
   d="m 108.2834,155.39185 c -0.36,-1.581 -0.296,-3.237 -0.834,-4.781 -0.536,-1.536 -1.604,-2.971 -2.532,-4.292 -1.024,-1.457 -2.148,-2.818 -3.458,-4.028 -1.354,-1.25 -2.848002,-2.024 -4.542002,-2.711 l -0.686,-0.281 c -2.043,-0.856 -4.234,-1.543 -6.436,-0.826 -2.001,0.652 -3.855,2.039 -5.401,3.437 -1.613,1.46 -3.172,3.002 -4.751,4.501 -1.47,1.396 -2.429,2.923 -3.016,4.865 -0.616,2.041 -0.729,4.202 -0.808,6.321 -0.089,2.368 -0.015,4.743 0.241,7.1 0.122,1.121 0.481,2.138 0.869,3.19 0.39,1.056 0.603,2.159 0.936,3.232 0.676,2.176 1.877,3.926 3.059,5.84 l 0.278,0.455 c 0.607,1.002 1.22,2.038 2.049,2.877 0.856,0.867 1.961,1.427 2.918,2.168 l 0.288,0.225 c 0.883,0.692 1.797,1.405 2.898,1.702 1.251,0.336 2.691,0.28 3.977,0.242 1.229,-0.036 2.409,-0.122 3.52,-0.69 1.032,-0.529 1.937,-1.281 2.787,-2.06 l 0.570002,-0.52 c 1.833,-1.667 3.738,-3.343 5.016,-5.494 1.233,-2.075 1.93,-4.403 2.612,-6.702 1.358,-4.535 1.504,-9.141 0.446,-13.77 -0.138,-0.609 0.78,3.409 0,0 z m -1.019,12.213 c -0.74,2.391 -1.354,4.847 -2.523,7.077 -1.246,2.376 -3.242,4.154 -5.201002,5.936 l -0.573,0.521 c -0.785,0.718 -1.616,1.423 -2.568,1.911 -0.939,0.481 -1.945,0.539 -2.983,0.573 -1.104,0.036 -2.218,0.012 -3.316,-0.112 -1.166,-0.131 -2.13,-0.916 -3.021,-1.614 l -0.291,-0.228 c -0.921,-0.713 -1.996,-1.249 -2.82,-2.082 -0.772,-0.783 -1.338,-1.76 -1.905,-2.694 l -0.28,-0.46 c -1.139,-1.847 -2.313,-3.533 -2.96,-5.631 -0.302,-0.97 -0.49,-1.973 -0.827,-2.931 -0.337,-0.959 -0.773,-1.909 -0.893,-2.928 -0.265,-2.255 -0.354,-4.529 -0.295,-6.798 0.058,-2.065 0.128,-4.208 0.678,-6.211 0.517,-1.885 1.368,-3.379 2.781,-4.732 1.551,-1.484 3.1,-2.991 4.682,-4.441 1.445,-1.325 3.182,-2.656 5.056,-3.303 1.99,-0.688 3.996,-0.013 5.847,0.762 l 0.695,0.285 c 2.68,1.087 4.689002,2.672 6.492002,4.943 1.553,1.955 3.384,4.313 3.797,6.831 0.816,5.018 1.966,10.322 0.428,15.326 -0.13,0.419 1.178,-3.832 0,0 z" /><path
   inkscape:connector-curvature="0"
   id="path513"
   d="m 102.9964,161.52485 c -0.589,0 -1.187,0.238 -1.5,0.759 -0.616,-0.678 -1.313,-1.214 -2.271002,-0.983 -0.993,0.239 -1.687,1.087 -2.044,2.003 -0.858,2.205 0.467,4.297 0.747,6.467 0.506,3.928 -5.979,7.2 -2.87,11.209 1.279,1.65 3.395,-2.195 3.979,-3.041 1.369002,-1.986 2.594002,-4.048 3.584002,-6.25 0.473,-1.052 0.896,-2.127 1.249,-3.225 0.331,-1.03 0.511,-2.097 0.973,-3.082 0.784,-1.671 0.405,-3.857 -1.847,-3.857 -0.573,0 1.01,0 0,0 z m 0.94,3.431 c -0.613,1.312 -0.844,2.769 -1.337,4.129 -0.508,1.403 -1.121,2.769 -1.813,4.091 -0.706,1.35 -1.508002,2.637 -2.367002,3.894 -0.729,1.064 -1.51,2.531 -2.555,3.317 -1.271,-1.539 -0.228,-3.563 0.729,-4.911 1.157,-1.633 2.499,-3.261 2.369,-5.386 -0.124,-2.028 -1.56,-4.134 -0.939,-6.169 0.244,-0.8 0.838,-1.686 1.769,-1.687 0.630002,0 1.271002,1.095 1.645002,1.513 l 1.189,1.338 -0.323,-1.76 c -0.15,-0.822 0.723,-0.925 1.309,-0.662 1.012,0.457 0.699,1.498 0.324,2.293 -0.106,0.225 0.233,-0.495 0,0 z" /><path
   inkscape:connector-curvature="0"
   id="path515"
   d="m 56.359398,168.54885 c -1.591,0 -3.055,1.962 -3.56,3.307 -0.299,0.795 -0.316,1.661 -0.474,2.49 -0.165,0.87 -0.398,1.726 -0.683,2.565 -0.435,1.292 -1.233,2.649 -1.16,4.057 0.077,1.497 1.564,1.8 2.701,1.117 1.148,-0.691 1.738,-2.072 2.194,-3.27 0.62,-1.63 1.09,-2.908 2.396,-4.122 0.88,-0.817 2.284,-1.982 1.732,-3.341 -0.459,-1.142 -1.809,-2.803 -3.146,-2.803 -0.551,0 0.898,0 0,0 z m 1.323,4.854 c -0.892,0.885 -1.873,1.657 -2.403,2.831 -0.54,1.2 -0.836,2.497 -1.468,3.659 -0.202,0.372 -1.622,2.314 -2.224,1.437 -0.607,-0.905 0.566,-2.851 0.87,-3.708 0.923,-2.603 0.661,-5.614 2.863,-7.551 1.207,-1.061 2.01,-0.069 2.813,0.93 0.809,1.005 0.389,1.566 -0.451,2.402 -0.198,0.196 1.35,-1.345 0,0 z" /><path
   inkscape:connector-curvature="0"
   id="path517"
   d="m 67.294398,154.69385 c -0.208,-1.822 -1.076,-3.206 -1.996,-4.67 l -0.575,-0.928 c -0.898,-1.459 -1.876,-2.833 -2.981,-4.143 -0.489,-0.578 -1.074,-0.992 -1.713,-1.389 -0.802,-0.499 -1.491,-1.124 -2.259,-1.67 -1.312,-0.937 -2.763,-2.011 -4.248,-2.648 -1.505,-0.646 -2.962,-0.266 -4.449,0.219 -3.1,1.011 -6.169,2.249 -8.752,4.282 -2.739,2.156 -4.447,5.384 -5.441,8.663 l -0.229,0.749 c -0.802,2.562 -1.802,4.74 -1.751,7.492 0.046,2.428 0.113,4.922 0.563,7.313 0.905,4.806 2.837,9.719 6.49,13.09 0.87,0.803 1.813,1.613 2.928,2.048 0.958,0.374 2.069,0.531 2.839,1.268 0.705,0.673 0.941,1.84 2.022,2.07 0.483,0.104 0.987,0.045 1.358,-0.309 0.323,-0.308 0.47,-0.845 0.938,-0.968 0.953,-0.25 1.984,0.151 2.936,-0.174 1.252,-0.43 2.512,-1.093 3.529,-1.942 2.037,-1.697 3.456,-4.042 4.786,-6.298 l 0.438,-0.74 c 0.896,-1.507 1.916,-2.939 2.532,-4.595 0.668,-1.8 1.398,-3.577 2.003,-5.4 1.253,-3.783 1.481,-7.378 1.032,-11.32 -0.208,-1.821 0.213,1.868 0,0 z m -0.801,5.946 c -0.298,2.638 -1.166,5.153 -2.104,7.622 -0.477,1.254 -0.897,2.556 -1.479,3.767 -0.581,1.212 -1.356,2.316 -2.044,3.467 l -0.44,0.745 c -1.199,2.034 -2.456,4.106 -4.207,5.723 -0.849,0.783 -1.844,1.344 -2.895,1.811 -1.07,0.475 -2.021,0.226 -3.141,0.351 -0.492,0.055 -0.943,0.229 -1.275,0.609 -0.195,0.224 -0.396,0.789 -0.751,0.765 -0.886,-0.061 -1.322,-1.514 -1.956,-2.036 -0.8,-0.658 -1.804,-0.875 -2.754,-1.216 -1.127,-0.403 -2.061,-1.215 -2.923,-2.024 -3.396,-3.187 -5.182,-7.808 -6.055,-12.306 -0.429,-2.208 -0.465,-4.469 -0.556,-6.71 -0.053,-1.322 -0.017,-2.653 0.341,-3.936 0.361,-1.301 0.946,-2.525 1.348,-3.813 l 0.232,-0.757 c 0.975,-3.219 2.66,-6.334 5.396,-8.392 2.511,-1.888 5.466,-3.025 8.431,-3.982 1.192,-0.385 2.354,-0.666 3.547,-0.125 1.475,0.668 2.947,1.736 4.246,2.7 0.606,0.451 1.163,0.957 1.805,1.362 0.604,0.381 1.197,0.733 1.67,1.279 1.104,1.277 2.061,2.642 2.942,4.078 l 0.581,0.936 c 0.917,1.46 1.692,2.855 1.888,4.595 0.201,1.815 0.359,3.663 0.153,5.487 -0.343,3.043 0.218,-1.924 0,0 z" />

















<text
   id="text786"
   x="-0.47999999"
   y="199.21275"><tspan
     style="font-size:10px;fill:#9b9da0;font-family:Helvetica"
     id="tspan788"
     font-size="10"
     y="199.21275"
     x="-0.47999999">Seed</tspan><tspan
     style="font-size:10px;fill:#9b9da0;font-family:Helvetica"
     id="tspan790"
     font-size="10"
     y="208.21275"
     x="-0.47999999">Silique</tspan><tspan
     style="font-size:10px;fill:#9b9da0;font-family:Helvetica"
     id="tspan792"
     font-size="10"
     y="217.21275"
     x="-0.47999999">Embryo</tspan></text>

<text
   id="text794"
   x="48.843304"
   y="199.21275"><tspan
     style="font-size:10px;fill:#9b9da0;font-family:Helvetica"
     id="tspan796"
     font-size="10"
     y="199.21275"
     x="48.843304">3</tspan><tspan
     style="font-size:10px;fill:#9b9da0;font-family:Helvetica"
     id="tspan798"
     font-size="10"
     y="208.21275"
     x="48.704296">+</tspan></text>

<text
   id="text800"
   x="90.689003"
   y="199.21275"><tspan
     style="font-size:10px;fill:#9b9da0;font-family:Helvetica"
     id="tspan802"
     font-size="10"
     y="199.21275"
     x="90.689003">4</tspan><tspan
     style="font-size:10px;fill:#9b9da0;font-family:Helvetica"
     id="tspan804"
     font-size="10"
     y="208.21275"
     x="90.548988">+</tspan></text>

<text
   id="text806"
   x="132.68901"
   y="199.21275"><tspan
     style="font-size:10px;fill:#9b9da0;font-family:Helvetica"
     id="tspan808"
     font-size="10"
     y="199.21275"
     x="132.68901">5</tspan><tspan
     style="font-size:10px;fill:#9b9da0;font-family:Helvetica"
     id="tspan810"
     font-size="10"
     y="208.21275"
     x="132.549">+</tspan></text>

<text
   id="text812"
   x="180.68898"
   y="199.21275"><tspan
     style="font-size:10px;fill:#9b9da0;font-family:Helvetica"
     id="tspan814"
     font-size="10"
     y="199.21275"
     x="180.68898">6</tspan><tspan
     style="font-size:10px;fill:#9b9da0;font-family:Helvetica"
     id="tspan816"
     font-size="10"
     y="208.21275"
     x="181.80403">-</tspan></text>

<text
   id="text818"
   x="230.68898"
   y="199.21275"><tspan
     style="font-size:10px;fill:#9b9da0;font-family:Helvetica"
     id="tspan820"
     font-size="10"
     y="199.21275"
     x="230.68898">7</tspan><tspan
     style="font-size:10px;fill:#9b9da0;font-family:Helvetica"
     id="tspan822"
     font-size="10"
     y="208.21275"
     x="231.80403">-</tspan></text>

<text
   id="text824"
   x="271.68896"
   y="199.21275"><tspan
     style="font-size:10px;fill:#9b9da0;font-family:Helvetica"
     id="tspan826"
     font-size="10"
     y="199.21275"
     x="271.68896">8</tspan><tspan
     style="font-size:10px;fill:#9b9da0;font-family:Helvetica"
     id="tspan828"
     font-size="10"
     y="208.21275"
     x="272.80402">-</tspan></text>

<text
   id="text830"
   x="331.68896"
   y="199.21275"><tspan
     style="font-size:10px;fill:#9b9da0;font-family:Helvetica"
     id="tspan832"
     font-size="10"
     y="199.21275"
     x="331.68896">9</tspan><tspan
     style="font-size:10px;fill:#9b9da0;font-family:Helvetica"
     id="tspan834"
     font-size="10"
     y="208.21275"
     x="332.80402">-</tspan></text>

<text
   id="text836"
   x="386.23486"
   y="199.21275"><tspan
     style="font-size:10px;fill:#9b9da0;font-family:Helvetica"
     id="tspan838"
     font-size="10"
     y="199.21275"
     x="386.23486">10 </tspan><tspan
     style="font-size:10px;fill:#9b9da0;font-family:Helvetica"
     id="tspan840"
     font-size="10"
     y="208.21275"
     x="390.13086">-</tspan></text>

<text
   style="font-size:10px;fill:#9b9da0;font-family:Helvetica"
   id="text842"
   font-size="10"
   x="50.839397"
   y="218.93935">globular</text>

<text
   style="font-size:10px;fill:#9b9da0;font-family:Helvetica"
   id="text844"
   font-size="10"
   x="110.23389"
   y="218.93935">heart</text>

<text
   style="font-size:10px;fill:#9b9da0;font-family:Helvetica"
   id="text846"
   font-size="10"
   x="144.67241"
   y="218.93935">torpedo</text>

<text
   style="font-size:10px;fill:#9b9da0;font-family:Helvetica"
   id="text848"
   font-size="10"
   x="188.29048"
   y="218.93935">walking-stick</text>

<text
   style="font-size:10px;fill:#9b9da0;font-family:Helvetica"
   id="text850"
   font-size="10"
   x="263.01221"
   y="218.93935">curled</text>

<text
   style="font-size:10px;fill:#9b9da0;font-family:Helvetica"
   id="text852"
   font-size="10"
   x="301.72607"
   y="218.93935">cotyledons</text>

<text
   style="font-size:10px;fill:#9b9da0;font-family:Helvetica"
   id="text854"
   font-size="10"
   x="360.54932"
   y="218.93935">green cotyledons</text>






















</svg>