<?xml version="1.0" encoding="UTF-8" standalone="no"?>
<!-- Created with Inkscape (http://www.inkscape.org/) -->

<svg
   xmlns:dc="http://purl.org/dc/elements/1.1/"
   xmlns:cc="http://creativecommons.org/ns#"
   xmlns:rdf="http://www.w3.org/1999/02/22-rdf-syntax-ns#"
   xmlns:svg="http://www.w3.org/2000/svg"
   xmlns="http://www.w3.org/2000/svg"
   xmlns:sodipodi="http://sodipodi.sourceforge.net/DTD/sodipodi-0.dtd"
   xmlns:inkscape="http://www.inkscape.org/namespaces/inkscape"
   width="54.121719"
   height="92.46418"
   id="svg11240"
   version="1.1"
   inkscape:version="0.48.3.1 r9886"
   sodipodi:docname="New document 34">
  <defs
     id="defs11242" />
  <sodipodi:namedview
     id="base"
     pagecolor="#ffffff"
     bordercolor="#666666"
     borderopacity="1.0"
     inkscape:pageopacity="0.0"
     inkscape:pageshadow="2"
     inkscape:zoom="5.6"
     inkscape:cx="26.861333"
     inkscape:cy="62.378076"
     inkscape:document-units="px"
     inkscape:current-layer="layer1"
     showgrid="false"
     fit-margin-top="0"
     fit-margin-left="0"
     fit-margin-right="0"
     fit-margin-bottom="0"
     inkscape:window-width="1024"
     inkscape:window-height="551"
     inkscape:window-x="0"
     inkscape:window-y="0"
     inkscape:window-maximized="1" />
  <metadata
     id="metadata11245">
    <rdf:RDF>
      <cc:Work
         rdf:about="">
        <dc:format>image/svg+xml</dc:format>
        <dc:type
           rdf:resource="http://purl.org/dc/dcmitype/StillImage" />
        <dc:title></dc:title>
      </cc:Work>
    </rdf:RDF>
  </metadata>
  <g
     inkscape:label="Layer 1"
     inkscape:groupmode="layer"
     id="layer1"
     transform="translate(-99.943935,-330.73858)">
    <g
       transform="translate(-73.043071,18.945421)"
       id="Imbibed seed, 24 h">
      <path
         style="fill:#ee7700"
         inkscape:connector-curvature="0"
         d="m 192.333,318.333 c 0,0 1.333,-7 9,-5.833 3,1 6.834,4.167 7.667,12 0,4.167 -0.5,12.5 -10.167,11 -2.667,-0.333 -7.167,-2.499 -7.5,-12.333 0.334,-2.5 1,-4.834 1,-4.834 z"
         id="path459" />
    </g>
    <g
       transform="translate(-116.25736,27.51685)"
       id="Dry seed">
      <path
         style="fill:#ff7700"
         inkscape:connector-curvature="0"
         d="m 236.167,362.834 c 0,0 5.333,-7.333 11.667,-2.5 2.167,1.666 5.833,5.667 4.667,14 -1.333,3.666 -2.333,7.166 -8.167,8.166 -3.833,-0.833 -9,-2.5 -9.5,-12 -0.167,-3.5 0.833,-6.832 1.333,-7.666 z"
         id="path462" />
    </g>
    <path
       inkscape:connector-curvature="0"
       id="path679"
       d="m 136.21764,393.57985 c -1.157,-3.824 -4.47,-8.334 -9.771,-7.862 -3.76,0.327 -6.578,2.95 -7.733,7.194 -1.596,5.869 0.302,12.918 4.232,15.713 1.46,1.039 3.197,1.59 5.022,1.59 2.703,0 5.183,-1.188 6.805,-3.258 2.922,-3.727 2.662,-9.354 1.445,-13.377 z m -2.232,12.76 c -1.431,1.825 -3.625,2.874 -6.018,2.874 -1.616,0 -3.152,-0.485 -4.443,-1.403 -3.555,-2.528 -5.316,-9.231 -3.846,-14.636 0.61,-2.243 2.312,-6.065 6.854,-6.463 0.222,-0.02 0.442,-0.028 0.657,-0.028 4.352,0 7.067,3.871 8.07,7.187 0.473,1.563 0.792,3.379 0.818,5.215 -0.045,-0.59 -0.102,-0.982 -0.104,-0.996 -0.344,-2.275 -1.206,-5.499 -3.356,-7.936 -1.208,-1.367 -3.298,-2.828 -5.546,-2.828 -0.734,0 -1.433,0.157 -2.078,0.469 -3.369,1.63 -4.254,7.013 -4.398,8.074 -0.138,1.021 -0.391,5.488 1.016,7.1 0.458,0.523 1.078,0.729 1.752,0.584 0.217,-0.047 0.414,-0.17 0.599,-0.377 0.458,1.511 1.441,2.426 2.708,2.426 0,0 0,0 10e-4,0 0.729,0 1.535,-0.295 2.397,-0.875 0.659,-0.443 1.148,-1.021 1.464,-1.73 0.508,1.097 1.192,1.807 2.07,2.152 0.922,0.366 1.724,0.23 2.32,-0.313 -0.261,0.529 -0.569,1.035 -0.937,1.504 z m -4.806,-10.341 c 0.083,0.5 0.148,1.084 0.219,1.705 0.126,1.115 0.269,2.377 0.548,3.539 -0.101,1.217 -0.558,2.062 -1.435,2.65 -0.694,0.468 -1.313,0.705 -1.839,0.705 -1.274,0 -1.848,-1.473 -1.965,-2.887 0.597,-1.729 1.045,-4.479 1.315,-6.137 0.092,-0.562 0.163,-1 0.214,-1.238 l -0.975,-0.223 c -0.189,0.777 -0.403,1.551 -0.618,2.321 -0.274,0.989 -0.559,2.013 -0.784,3.035 -0.147,0.668 -0.204,1.392 -0.165,2.103 -0.325,0.877 -0.548,1 -0.543,1 -0.32,0.066 -0.562,-0.011 -0.786,-0.267 -1.006,-1.151 -0.965,-4.927 -0.778,-6.308 0.363,-2.688 1.586,-6.217 3.842,-7.308 0.508,-0.246 1.061,-0.37 1.642,-0.37 1.916,0 3.733,1.287 4.796,2.491 1.989,2.253 2.793,5.279 3.117,7.422 0.212,1.402 0.338,4.659 -0.623,5.776 -0.34,0.396 -0.775,0.445 -1.392,0.203 -0.927,-0.366 -1.587,-1.368 -2.017,-3.062 0.083,-1.431 -0.267,-2.981 -0.577,-4.354 -0.077,-0.34 -0.151,-0.67 -0.212,-0.965 -0.032,-0.195 -0.067,-0.379 -0.105,-0.547 l -0.98,0.194 c 0.032,0.183 0.066,0.358 0.101,0.522 z" />
    <path
       inkscape:connector-curvature="0"
       id="path681"
       d="m 135.97993,340.31642 c -1.172,-5.264 -4.167,-8.699 -8.218,-9.428 -3.705,-0.668 -6.627,0.912 -8.298,4.451 -2.357,4.991 -1.687,13.234 1.38,16.961 1.533,1.863 3.917,2.933 6.54,2.933 2.255,0 4.474,-0.808 6.087,-2.218 3.693,-3.224 3.403,-8.686 2.509,-12.699 z m -3.167,11.945 c -1.433,1.254 -3.412,1.972 -5.429,1.972 -2.323,0 -4.425,-0.937 -5.768,-2.565 -2.808,-3.412 -3.426,-11.287 -1.248,-15.899 0.868,-1.839 2.574,-4.027 5.777,-4.027 0.459,0 0.944,0.045 1.44,0.134 5.161,0.928 6.907,6.364 7.418,8.659 0.836,3.747 1.133,8.825 -2.19,11.726 z" />
    <path
       inkscape:connector-curvature="0"
       id="path683"
       d="m 134.72593,343.36742 c -0.228,-2.703 -0.463,-5.497 -2.328,-7.712 -1.377,-1.635 -3.422,-2.571 -5.611,-2.571 -0.769,0 -1.525,0.118 -2.25,0.353 -3.614,1.165 -4.234,4.389 -4.367,7.698 -0.013,0.311 -0.105,0.826 -0.212,1.422 -0.402,2.24 -1.009,5.625 1.166,6.252 0.717,0.207 1.396,-0.35 2.014,-1.568 0.124,1.031 0.473,1.953 1.004,2.566 0.485,0.56 1.111,0.854 1.813,0.854 l 0,0 c 0.683,0 1.429,-0.278 2.218,-0.829 0.774,-0.541 1.238,-1.217 1.509,-1.928 0.46,1.268 1.176,2.372 2.341,2.702 0.233,0.065 0.458,0.099 0.67,0.099 0.517,0 0.974,-0.201 1.322,-0.582 1.063,-1.166 0.982,-3.766 0.763,-6.154 l -0.052,-0.602 z m -1.45,6.081 c -0.241,0.263 -0.548,0.317 -0.981,0.195 -1.066,-0.302 -1.812,-1.789 -2.274,-4.49 -0.049,-0.91 -0.204,-1.813 -0.353,-2.688 l -0.048,-0.277 c -0.056,-0.434 -0.111,-0.816 -0.173,-1.123 l -0.986,0.161 c 0.044,0.352 0.105,0.724 0.167,1.09 l 0.079,0.638 c 0.087,0.71 0.185,1.51 0.315,2.256 0.101,1.873 -0.337,3.047 -1.422,3.803 -1.157,0.81 -2.064,0.881 -2.703,0.142 -0.643,-0.742 -0.949,-2.249 -0.745,-3.666 0.229,-1.591 0.707,-3.183 1.169,-4.72 l 0.085,-0.284 -0.945,-0.325 c -0.104,0.268 -0.247,0.771 -0.444,1.469 -1.453,5.141 -2.219,6.223 -2.618,6.223 0,0 0,0 -10e-4,0 -1.308,-0.377 -0.776,-3.342 -0.458,-5.113 0.114,-0.634 0.212,-1.182 0.227,-1.561 0.136,-3.405 0.813,-5.863 3.674,-6.787 0.625,-0.2 1.279,-0.303 1.943,-0.303 1.894,0 3.66,0.809 4.847,2.217 1.66,1.971 1.882,4.604 2.096,7.15 l 0.053,0.608 c 0.102,1.083 0.406,4.389 -0.504,5.385 z" />
    <text
       id="text762"
       x="99.603935"
       y="365.84485">
      <tspan
         style="font-size:10px;fill:#9b9da0;font-family:Helvetica"
         id="tspan764"
         font-size="10"
         y="365.84485"
         x="99.603935">24h Imbibed</tspan>
      <tspan
         style="font-size:10px;fill:#9b9da0;font-family:Helvetica"
         id="tspan766"
         font-size="10"
         y="374.84485"
         x="115.44593">Seed</tspan>
    </text>
    <text
       style="font-size:10px;fill:#9b9da0;font-family:Helvetica"
       id="text768"
       font-size="10"
       x="107.33886"
       y="421.02277">Dry Seed</text>
  </g>
</svg>
