<?xml version="1.0" encoding="UTF-8" standalone="no"?>
<!-- Created with Inkscape (http://www.inkscape.org/) -->

<svg
   xmlns:dc="http://purl.org/dc/elements/1.1/"
   xmlns:cc="http://creativecommons.org/ns#"
   xmlns:rdf="http://www.w3.org/1999/02/22-rdf-syntax-ns#"
   xmlns:svg="http://www.w3.org/2000/svg"
   xmlns="http://www.w3.org/2000/svg"
   xmlns:sodipodi="http://sodipodi.sourceforge.net/DTD/sodipodi-0.dtd"
   xmlns:inkscape="http://www.inkscape.org/namespaces/inkscape"
   width="450.02621"
   height="166.19687"
   id="svg4178"
   version="1.1"
   inkscape:version="0.48.3.1 r9886"
   sodipodi:docname="ath-leaf-series.svg">
  <defs
     id="defs4180" />
  <sodipodi:namedview
     id="base"
     pagecolor="#ffffff"
     bordercolor="#666666"
     borderopacity="1.0"
     inkscape:pageopacity="0.0"
     inkscape:pageshadow="2"
     inkscape:zoom="1.979899"
     inkscape:cx="262.19834"
     inkscape:cy="97.444361"
     inkscape:document-units="px"
     inkscape:current-layer="layer1"
     showgrid="false"
     fit-margin-top="0"
     fit-margin-left="0"
     fit-margin-right="0"
     fit-margin-bottom="0"
     inkscape:window-width="1024"
     inkscape:window-height="551"
     inkscape:window-x="0"
     inkscape:window-y="0"
     inkscape:window-maximized="1" />
  <metadata
     id="metadata4183">
    <rdf:RDF>
      <cc:Work
         rdf:about="">
        <dc:format>image/svg+xml</dc:format>
        <dc:type
           rdf:resource="http://purl.org/dc/dcmitype/StillImage" />
        <dc:title />
      </cc:Work>
    </rdf:RDF>
  </metadata>
  <g
     inkscape:label="Layer 1"
     inkscape:groupmode="layer"
     id="layer1"
     transform="translate(-185.10882,-511.74692)">
    <g
       transform="translate(-154.7937,255.23992)"
       id="Rosette Leaf 12-2">
      <path
         style="fill:#659966"
         inkscape:connector-curvature="0"
         d="m 675.5,313.625 0.375,-0.5 2.25,0.25 c 0,0 6.75,8 9.75,23.375 1,7.125 1.75,16.25 1.125,20.5 -1.625,2.75 -12,20.125 -10.5,33.375 -2.875,0.5 -3.625,0.625 -3.625,0.625 1,-2.875 3.875,-7.625 -3.875,-20.125 -2.625,-5 -6.75,-14.875 -4.875,-30.5 1.25,-9 6.625,-22.875 9.375,-27 z"
         id="path5-4" />
    </g>
    <g
       transform="translate(-154.7937,255.23992)"
       id="Rosette Leaf 10-4">
      <path
         style="fill:#669966"
         inkscape:connector-curvature="0"
         d="m 636.25,308.625 c 0,0 0.375,-1.625 3.5,-1.5 3,0.375 6.625,1.625 8.125,6.75 1.125,3.5 2.125,6.125 2.625,7.25 0.625,1.375 1,3.75 1.5,4.875 0.75,2.75 2.125,5.5 2,13.875 0,5.125 0.546,13.91 -2.597,24.518 -1.278,4.982 -2.901,9.174 -4.528,12.232 -1,1.75 -1.625,4.375 -1.25,7.125 0.375,3.5 1.375,12.125 1.375,12.125 -1.75,-0.125 -3.75,-0.5 -3.75,-0.5 -0.875,-2.5 -2.75,-12.625 -2.75,-14 -0.25,-2.5 0,-4.875 -1.375,-6.25 -2.75,-3.25 -12.5,-17.625 -13,-29.25 -0.25,-5.25 0.125,-8.875 0.875,-11.5 0.375,-3.625 1.875,-17.625 9.25,-25.75 z"
         id="path8-6" />
    </g>
    <g
       transform="translate(-154.7937,255.23992)"
       id="Rosette Leaf 8-0">
      <path
         style="fill:#65cc66"
         inkscape:connector-curvature="0"
         d="m 613.75,313.875 c 1.125,-17.625 -3.75,-28.5 -5.5,-31.75 -2,-7.625 -10,-10.375 -13.625,-12.125 -3,-1.875 -5.875,0.5 -5.875,0.5 0,0 -11.25,16.875 -13,26.75 -0.75,5.125 -1.125,7.75 2.375,23.75 1.375,6 4.375,18.375 5.5,23.5 0.375,2.625 0.5,2.875 2.25,5.625 2.25,3.375 10.125,13.75 11.25,15.875 0.5,3.5 3.375,22.625 3.625,29.75 1.25,0.375 3.75,0.25 3.75,0.25 -0.375,-4.625 -2.75,-26.375 -1,-34.625 2.375,-10.875 7.625,-26.625 8.75,-34.25 1.25,-6.25 1.5,-13.25 1.5,-13.25 z"
         id="path11-9" />
    </g>
    <g
       transform="translate(-154.7937,255.23992)"
       id="Rosette Leaf 6-3">
      <path
         style="fill:#66cc66"
         inkscape:connector-curvature="0"
         d="m 487.875,275.625 c 0,0 2.75,-6.5 7.75,-0.125 1.625,2.125 11.875,11.125 15.75,28.25 1.125,8.375 2.5,16.75 0.375,28.75 -1.5,4.875 -1.875,7.625 -9.5,23.25 -0.875,1.875 -1.875,4.625 -1.75,7.625 -0.25,4.25 -1.125,18.125 -0.125,35.5 -2,-0.5 -3.875,-1.75 -3.875,-1.75 -0.625,-7.625 -2.125,-26 -3.625,-30.125 -3.5,-6.25 -17.625,-37.625 -19,-46.625 -0.875,-6.375 -2.25,-11.625 6.375,-31 2.625,-5.75 7.625,-13.75 7.625,-13.75 z"
         id="path14-4" />
    </g>
    <g
       transform="translate(-154.7937,255.23992)"
       id="Leaf 7, Distal Half-8">
      <path
         style="fill:#64cc66"
         inkscape:connector-curvature="0"
         d="m 542.25,257.875 c -4.125,-3.125 -6.875,3.125 -9.5,6.875 -7.875,10.625 -8.125,18 -9,24.5 -0.875,5.875 -0.125,22.875 -0.125,22.875 0.004,0.079 0.014,0.168 0.021,0.252 0.616,-0.059 1.23,-0.129 1.861,-0.201 1.188,-0.136 2.567,-0.346 3.693,-0.64 2.636,-0.687 5.323,-1.246 7.964,-1.995 2.729,-0.775 5.533,-0.991 8.334,-1.378 2.839,-0.392 5.738,0.345 8.5,0.337 1.26,-0.004 2.432,0.3 3.666,0.333 1.256,0.035 2.44,0.051 3.667,0.204 1.292,0.161 2.549,0.332 3.874,0.454 0.208,0.019 0.418,0.057 0.627,0.101 -0.512,-8.744 -3.334,-27.092 -3.334,-27.092 -3.748,-11.375 -16.373,-21.125 -20.248,-24.625 z"
         id="path17-3" />
    </g>
    <g
       transform="translate(-154.7937,255.23992)"
       id="Rosette Leaf 4-0">
      <path
         style="fill:#98ff66"
         inkscape:connector-curvature="0"
         d="m 440.5,324.375 c 0,0 5.75,-3.5 9.75,0.125 4.25,3 12.625,7.875 14.75,18.75 0.625,7.375 2.125,15.25 -12.75,26.125 -0.25,1.625 0.25,15.75 2.75,22.875 -1.625,-0.25 -3.75,-0.625 -3.75,-0.625 -1.375,-4.625 -4.625,-20.875 -4.625,-20.875 -5.25,-3.5 -18.125,-12.625 -16.5,-25.5 0.75,-4.5 3.125,-14.25 10.375,-20.875 z"
         id="path20-9" />
    </g>
    <g
       transform="translate(-154.7937,255.23992)"
       id="Rosette Leaf 2-1">
      <path
         style="fill:#99ff66"
         inkscape:connector-curvature="0"
         d="m 397.75,357.25 c 0,0 -0.25,-3.875 4.125,-5.5 3.75,-1 14,0.375 17.75,8 1.5,3.5 3.25,10.75 -2.375,15.875 C 414.625,377.5 411,380 411,380 c 0.75,4.25 2.375,12.5 2.375,12.875 -1.25,-0.625 -4.375,-1.75 -4.375,-1.75 -1.125,-5.75 -2.25,-11.25 -2.25,-11.25 -4,-3.5 -9.875,-8.25 -9.5,-14.375 -0.125,-4.25 0.5,-8.25 0.5,-8.25 z"
         id="path23-4" />
    </g>
    <g
       transform="translate(-154.7937,255.23992)"
       id="Leaf 1 + 2-7">
      <path
         style="fill:#99fe00"
         inkscape:connector-curvature="0"
         d="m 374.625,355.875 c 0,0 6.875,-1.625 10,1.75 3.125,3.25 7,6.25 4.75,11.5 -3.375,5.625 -8.625,13.25 -8.5,13.625 0.25,2.5 1.875,11.625 1.875,11.625 -1.5,0 -3.375,0.125 -3.375,0.125 -1,-4.625 -2.75,-11.75 -2.75,-11.75 -2.75,-3 -11.75,-12 -10.125,-17.125 1.375,-3.5 3.375,-7.25 8.125,-9.75 z"
         id="path26-4" />
    </g>
    <g
       transform="translate(-154.7937,255.23992)"
       id="Leaf 7, Petiole-3">
      <path
         style="fill:#00cbff"
         inkscape:connector-curvature="0"
         d="m 545.333,362.667 c -0.275,-0.008 -0.543,-0.038 -0.808,-0.077 0.513,2.477 0.416,4.542 0.35,7.285 0,5.75 1.375,24.375 2.25,30.25 0,0 3.75,0 5.875,0.125 0,0 -1.625,-16.875 -2.125,-23 -0.563,-7.48 0.347,-12.372 0.84,-14.361 -1.136,-0.086 -2.289,-0.119 -3.382,-0.221 -0.987,-0.092 -2.009,0.025 -3,-0.001 z"
         id="path29-9" />
    </g>
    <g
       transform="translate(-154.7937,255.23992)"
       id="Leaf 7, Proximal Half-2">
      <path
         style="fill:#00cc66"
         inkscape:connector-curvature="0"
         d="m 561.333,309.037 c -1.227,-0.152 -2.411,-0.169 -3.667,-0.204 -1.234,-0.034 -2.406,-0.337 -3.666,-0.333 -2.762,0.008 -5.661,-0.729 -8.5,-0.337 -2.801,0.387 -5.604,0.603 -8.334,1.378 -2.641,0.75 -5.328,1.309 -7.964,1.995 -1.126,0.294 -2.507,0.504 -3.693,0.64 -0.631,0.072 -1.245,0.143 -1.861,0.201 0.218,2.578 1.889,7.486 2.979,10.998 1.875,8.375 11.25,25.875 14.75,31.125 1.801,3.484 2.705,5.941 3.15,8.09 0.265,0.039 0.531,0.069 0.808,0.077 0.991,0.026 2.013,-0.091 3,0.001 1.093,0.102 2.246,0.135 3.382,0.22 0.166,-0.67 0.285,-1.013 0.285,-1.013 2,-6.125 8,-18.25 10.375,-25.875 3.125,-10.625 3.5,-21.75 3.5,-25.625 -0.012,-0.251 -0.025,-0.513 -0.041,-0.783 -0.209,-0.044 -0.419,-0.082 -0.627,-0.101 -1.327,-0.122 -2.584,-0.293 -3.876,-0.454 z"
         id="path32-7" />
    </g>
    <g
       transform="translate(-154.7937,255.23992)"
       id="Senescing Leaf-1">
      <path
         style="fill:#999900"
         inkscape:connector-curvature="0"
         d="m 746.625,317.25 c 0,0 3.125,4.375 6,5.875 1.75,1.25 3,2.875 2.625,6.875 -0.125,1.375 0.25,2.375 1.25,3.5 1.875,1.625 6.125,3.75 6,7.125 -0.125,2.5 0,6.123 0.875,7.875 0.375,2.25 1,5.5 -0.125,8.125 -1.375,2.5 -2.25,4.625 -1.625,5.75 0.75,1.25 1.875,2.625 0.125,5.625 -1.375,2.125 -1.625,3.375 -1.375,5 0.25,1.625 1.246,3.834 -1.314,5.542 -2.561,1.833 -5.311,3.833 -5.186,5.208 -0.25,2.25 -0.25,7.5 -0.25,7.5 -0.75,0.25 -4.125,-1 -4.125,-1 0,-2.25 0.375,-5.75 -1,-6.625 -1.25,-1.125 -2.25,-3.375 -3.5,-3.375 -1.25,-1.375 -3.25,-3 -3.25,-8.125 -0.125,-4.75 -0.055,-6.49 -2.652,-8.745 -1.598,-1.505 -2.598,-2.505 -1.973,-5.63 0.125,-2.625 1.625,-7.5 1.375,-9.375 -0.625,-2 -2.5,-5.375 -1.375,-9 1.125,-3.625 2.125,-7.875 2.625,-8.375 1.25,-1.75 4,-3.75 3.75,-7 0,-1.875 1.125,-3.875 1.75,-4.375 0.75,-0.875 1.375,-2.375 1.375,-2.375 z"
         id="path35-0" />
    </g>
    <path
       style="fill:#99cc65"
       inkscape:connector-curvature="0"
       id="path432"
       d="m 559.1683,573.52792 c 0,0 0.663,4.587 2.913,8.337 1.5,2.25 4.375,4.625 4.875,8.5 1.063,2.368 4.264,10.625 4.944,12.375 0.556,3.125 1.806,7.125 1.556,14.5 -0.25,3.875 -0.25,7.25 -6.625,16 -1.75,1.875 -4.375,4 -3.375,8 -1.5,0 -3.5,0 -3.5,0 0.5,-1.125 1.125,-3.875 -0.625,-4 -1.875,-2 -6.25,-9 -6.5,-9.375 -0.75,-1.125 -1.5,-5.625 -1.5,-9.25 0.125,-3.375 0.625,-4.875 -0.625,-5.875 -1.625,-3 -3.5,-8.375 -2.5,-13.25 1,-3.875 4.375,-15.5 5.375,-17.625 1,-3.5 3.549,-8.549 5.587,-8.337" />
    <path
       inkscape:connector-curvature="0"
       id="path519-0"
       d="m 599.4573,647.65892 -5.251,-1.545 v -0.374 c 0,-1.738 0.377,-3.62 -0.167,-5.313 -0.252,-0.783 -0.814,-1.266 -1.357,-1.847 -0.627,-0.672 -0.888,-1.651 -1.676,-2.167 -0.69,-0.451 -1.355,-0.758 -1.847,-1.461 -0.488,-0.699 -0.753,-1.523 -1.219,-2.238 -0.419,-0.644 -0.896,-1.244 -1.172,-1.97 -0.354,-0.93 -0.334,-1.94 -0.318,-2.919 l 0.006,-0.585 c 0,-1.615 0.148,-3.273 -0.223,-4.861 -0.388,-1.654 -1.563,-2.621 -2.738,-3.746 -1.211,-1.158 -1.854,-2.367 -1.729,-4.064 0.113,-1.542 0.137,-3.112 0.59,-4.598 l 0.113,-0.379 c 0.285,-0.969 0.349,-2.008 0.564,-2.994 0.218,-0.994 0.322,-2.043 0.188,-3.058 -0.121,-0.934 -0.592,-1.651 -0.985,-2.485 -0.498,-1.049 -0.529,-2.193 -0.53,-3.332 l -0.001,-0.229 c -0.009,-2.538 0.803,-4.659 1.438,-7.063 0.631,-2.385 1.4,-4.524 3.003,-6.439 l 0.305,-0.359 c 0.819,-0.963 1.36,-1.6 1.507,-2.941 l 0.045,-0.43 c 0.149,-1.455 0.293,-3.014 1.047,-4.303 0.719,-1.226 2.144,-2.117 2.204,-3.66 l 0.062,-1.502 0.939,1.368 c 0.971,1.411 1.96,2.761 3.292,3.856 1.351,1.109 3.021,2.02 4.14,3.378 1.018,1.233 1.269,2.791 1.27,4.345 0,0.87 -0.191,1.75 -0.08,2.619 0.096,0.738 0.703,1.331 1.174,1.865 l 0.226,0.258 c 0.91,1.066 2.017,1.836 3.188,2.65 l 0.729,0.512 c 1.612,1.148 2.285,2.639 2.125,4.6 -0.174,2.1 -0.402,4.235 0.408,6.248 l 0.094,0.229 c 0.372,0.918 0.642,1.582 0.638,2.771 l -10e-4,1.947 10e-4,1.301 c -10e-4,1.688 -0.424,3.232 -1.198,4.725 -0.632,1.217 -1.579,2.869 -0.766,4.209 1.017,1.672 1.122,3.08 0.331,4.892 -0.789,1.808 -1.983,3.182 -1.725,5.237 l 0.048,0.379 c 0.196,1.697 0.788,3.691 -0.506,5.106 -1.388,1.519 -3.396,2.331 -4.831,3.813 l -0.191,0.195 c -1.198,1.213 -0.988,2.406 -1.179,3.989 -0.229,1.894 0.014,3.806 0.017,5.702 v 0.668 l -0.002,0 z m -4.246,-2.292 3.235,0.952 c -0.046,-1.715 -0.207,-3.442 0.001,-5.152 0.099,-0.837 0.063,-1.686 0.209,-2.519 0.148,-0.854 0.659,-1.456 1.251,-2.055 l 0.185,-0.188 c 1.336,-1.378 3.066,-2.23 4.496,-3.49 1.374,-1.209 0.753,-3.027 0.565,-4.617 l -0.045,-0.371 c -0.25,-1.965 0.534,-3.215 1.399,-4.926 0.403,-0.798 0.813,-1.646 0.892,-2.549 0.082,-0.972 -0.407,-1.623 -0.856,-2.423 -0.774,-1.377 -0.182,-3.19 0.531,-4.478 0.846,-1.524 1.381,-3.053 1.382,-4.813 l -0.001,-1.299 0.001,-1.953 c 0.003,-0.992 -0.21,-1.52 -0.564,-2.391 l -0.094,-0.232 c -0.753,-1.867 -0.777,-4.004 -0.557,-5.979 0.212,-1.898 -0.003,-3.27 -1.63,-4.428 l -0.722,-0.505 c -1.171,-0.813 -2.382,-1.657 -3.376,-2.821 l -0.216,-0.246 c -0.467,-0.531 -0.978,-1.084 -1.251,-1.746 -0.313,-0.767 -0.203,-1.67 -0.142,-2.471 0.105,-1.392 0.098,-2.923 -0.648,-4.154 -0.854,-1.409 -2.53,-2.299 -3.801,-3.291 -1.36,-1.062 -2.475,-2.276 -3.464,-3.687 -0.511,1.263 -1.701,2.054 -2.261,3.271 -0.506,1.104 -0.611,2.359 -0.733,3.553 l -0.046,0.434 c -0.181,1.649 -0.868,2.459 -1.739,3.483 l -0.299,0.354 c -1.421,1.695 -2.16,3.594 -2.716,5.715 -0.633,2.427 -1.503,4.586 -1.493,7.143 l 10e-4,0.23 c 0.001,1.119 0.046,2.185 0.577,3.192 0.552,1.05 0.946,2.007 0.988,3.209 0.032,0.913 -0.072,1.832 -0.27,2.724 -0.221,1.002 -0.286,2.047 -0.575,3.029 l -0.117,0.389 c -0.419,1.369 -0.408,2.81 -0.536,4.229 -0.157,1.762 0.669,2.736 1.903,3.88 1.143,1.056 2.111,2.114 2.5,3.662 0.427,1.7 0.277,3.476 0.277,5.208 l -0.006,0.602 c -0.015,0.863 -0.053,1.777 0.271,2.597 0.289,0.729 0.82,1.329 1.224,1.995 0.433,0.709 0.674,1.531 1.209,2.178 0.517,0.626 1.372,0.822 1.938,1.402 0.574,0.586 0.836,1.388 1.409,1.979 0.592,0.609 1.146,1.168 1.439,1.989 0.618,1.71 0.317,3.612 0.275,5.385 0,0 0.008,-0.331 0,0 z" />
    <path
       inkscape:connector-curvature="0"
       id="path521-4"
       d="m 597.7063,623.99492 -1,-0.01 c 0.018,-1.92 0.211,-3.642 0.576,-5.115 l 0.062,-0.249 c 0.68,-2.722 0.707,-5.468 0.645,-8.264 -0.06,-2.557 -0.582,-4.986 -2,-7.148 -0.61,-0.932 -1.427,-1.716 -1.978,-2.687 -0.586,-1.034 -0.846,-2.253 -0.829,-3.438 0.017,-1.155 0.362,-2.251 0.649,-3.358 0.364,-1.414 0.388,-2.834 0.378,-4.285 l -0.003,-0.701 h 1 l 0.003,0.693 c 0.009,1.307 0.022,2.632 -0.259,3.914 -0.263,1.199 -0.718,2.369 -0.766,3.608 -0.103,2.696 1.712,4.095 2.966,6.232 1.374,2.344 1.814,4.893 1.844,7.577 0.028,2.754 -0.012,5.412 -0.68,8.096 l -0.063,0.248 c -0.345,1.402 -0.528,3.044 -0.545,4.887 0,0 0.017,-1.843 0,0 z" />
    <path
       inkscape:connector-curvature="0"
       id="path523-0"
       d="m 563.9603,641.73992 h -5.25 l 0.9,-0.861 c 0.397,-0.381 0.433,-1.289 0.421,-1.793 -0.019,-0.809 -0.466,-1.133 -1.07,-1.584 -1.438,-1.076 -2.173,-2.757 -3.218,-4.164 -1.14,-1.535 -2.197,-3.166 -3.193,-4.798 -0.938,-1.534 -1.18,-3.261 -1.377,-5.015 l -0.02,-0.174 c -0.2,-1.784 -0.199,-3.756 -0.197,-5.662 v -0.449 c 0,-0.857 0.16,-1.73 0.029,-2.587 -0.154,-0.999 -0.898,-1.806 -1.247,-2.737 l -0.114,-0.303 c -1.396,-3.713 -2.773,-7.58 -1.883,-11.583 0.983,-4.421 2.054,-8.833 3.589,-13.101 1.113,-3.096 2.146,-6.275 3.432,-9.304 0.648,-1.528 2.313,-5.396 4.576,-4.567 l 0.373,0.135 -0.046,0.395 c -0.15,1.282 0.527,2.666 1.008,3.814 0.549,1.313 1.01,2.67 1.715,3.908 0.67,1.176 1.602,2.138 2.424,3.199 0.983,1.271 1.766,2.605 2.294,4.127 1.074,3.1 2.382,6.082 3.511,9.164 0.619,1.689 1.279,3.371 1.866,5.071 0.522,1.517 0.693,3.132 0.87,4.716 l 0.046,0.401 c 0.293,2.603 0.531,5.149 0.576,7.771 0.046,2.459 0.018,4.842 -0.81,7.187 -1.546,4.386 -3.848,8.772 -7.167,12.085 l -0.342,0.336 c -0.761,0.742 -1.57,1.521 -1.806,2.602 -0.231,1.072 0.097,2.187 0.104,3.268 l 0.006,0.503 0,0 z m -3.169,-1 h 2.146 c -0.083,-1.145 -0.316,-2.275 0.053,-3.398 0.357,-1.088 1.169,-1.906 1.969,-2.688 l 0.335,-0.329 c 3.207,-3.199 5.426,-7.447 6.921,-11.684 0.791,-2.236 0.806,-4.514 0.763,-6.86 -0.044,-2.59 -0.278,-5.106 -0.571,-7.679 l -0.045,-0.4 c -0.711,-6.428 -4.049,-12.115 -6.019,-18.193 -0.479,-1.479 -1.127,-2.789 -2.058,-4.037 -0.885,-1.188 -1.934,-2.24 -2.686,-3.524 -0.668,-1.142 -1.102,-2.375 -1.609,-3.589 -0.579,-1.385 -1.294,-2.855 -1.337,-4.383 -0.997,0.18 -1.714,1.591 -2.15,2.373 -0.688,1.238 -1.162,2.543 -1.629,3.875 -1.209,3.453 -2.622,6.832 -3.689,10.334 -1.057,3.459 -2.154,7.117 -2.661,10.705 -0.484,3.426 0.854,6.854 2.039,10 l 0.113,0.305 c 0.332,0.879 0.961,1.622 1.215,2.535 0.284,1.023 0.067,2.1 0.067,3.141 v 0.45 c -0.002,1.879 -0.003,3.821 0.191,5.55 l 0.02,0.174 c 0.179,1.598 0.376,3.188 1.228,4.59 0.979,1.611 2.028,3.223 3.151,4.737 1.038,1.399 1.757,3.05 3.203,4.099 1.316,0.946 1.545,2.375 1.04,3.896 0,0 0.259,-0.779 0,0 z" />
    <path
       inkscape:connector-curvature="0"
       id="path525-3"
       d="m 563.2063,626.90492 h -1 v -0.128 c 0,-3.559 -0.582,-7.078 -0.855,-10.618 -0.267,-3.455 -0.099,-6.903 -0.633,-10.342 l -0.156,-0.979 c -0.141,-0.854 -0.199,-1.744 -0.39,-2.588 -0.209,-0.931 -0.68,-1.9 -0.453,-2.874 l 0.976,0.228 c -0.172,0.734 0.242,1.578 0.418,2.277 0.228,0.905 0.286,1.873 0.437,2.795 l 0.158,0.986 c 0.508,3.273 0.379,6.545 0.601,9.837 0.252,3.751 0.896,7.474 0.899,11.24 l -0.002,0.166 0,0 z" />
    <path
       inkscape:connector-curvature="0"
       id="path527-4"
       d="m 561.8593,613.78492 -0.808,-0.59 c -0.062,0.083 -0.069,0.163 -0.067,0.188 -0.04,-0.61 -2.128,-3.83 -2.614,-4.271 l 0.672,-0.74 c 0.169,0.151 3.503,4.475 2.817,5.413 0,0 0.686,-0.938 0,0 z" />
    <path
       inkscape:connector-curvature="0"
       id="path529-4"
       d="m 562.4073,622.69792 -0.402,-0.916 c 0.784,-0.347 1.117,-1.433 1.628,-2.056 0.42,-0.508 1.631,-0.946 1.834,-1.588 l 0.979,0.197 c -0.193,0.984 -1.469,1.332 -2.042,2.027 -0.652,0.794 -0.989,1.894 -1.997,2.336 0,0 0.712,-0.313 0,0 z" />
    <path
       inkscape:connector-curvature="0"
       id="path531-4"
       d="m 523.6173,567.95592 -0.149,-0.216 h -2.548 l -0.145,0.246 c -11.101,18.869 -13.353,39.975 -6.004,56.502 4.055,7.095 7.884,13.796 4.967,21.576 l -0.273,0.728 4.751,-0.323 -0.02,-0.485 c -0.416,-9.981 3.096,-21.247 10.438,-33.485 l 0.063,-0.104 0.008,-0.121 c 1.076,-17.225 -2.654,-32.138 -11.088,-44.318 z m 10.098,44.132 c -7.284,12.172 -10.827,23.422 -10.535,33.449 l -2.251,0.153 c 2.584,-7.921 -1.415,-14.921 -5.266,-21.653 -7.163,-16.117 -4.982,-36.77 5.829,-55.297 h 1.451 c 8.179,11.925 11.802,26.507 10.772,43.348 z" />
    <path
       inkscape:connector-curvature="0"
       id="path533-5"
       d="m 521.9563,599.48992 c 0,0.75 -0.028,1.497 -0.063,2.238 -0.063,-0.232 -0.134,-0.465 -0.229,-0.688 -0.134,-0.311 -0.35,-0.697 -0.579,-1.109 -0.38,-0.682 -0.854,-1.528 -0.88,-1.973 l -0.998,0.061 c 0.04,0.672 0.53,1.551 1.005,2.4 0.211,0.377 0.411,0.733 0.534,1.019 0.171,0.396 0.265,0.852 0.363,1.334 0.134,0.657 0.277,1.334 0.637,1.913 -0.024,0.604 -0.042,1.207 -0.04,1.806 0.006,2.438 -0.061,4.913 -0.125,7.306 -0.062,2.28 -0.125,4.639 -0.125,6.943 h 1 c 0,-2.292 0.063,-4.643 0.124,-6.916 0.064,-2.4 0.132,-4.882 0.126,-7.335 -0.002,-1.128 0.058,-2.245 0.122,-3.429 0.063,-1.159 0.128,-2.358 0.128,-3.57 v -7.165 h -1 v 7.165 l 0,0 z" />
    <path
       inkscape:connector-curvature="0"
       id="path535-4"
       d="m 499.7343,598.51092 c -0.016,-1.015 -0.028,-2.023 -0.028,-3.021 0,-4.145 -0.098,-8.495 -1.26,-12.164 -0.137,-0.428 -0.292,-0.857 -0.449,-1.293 -0.2,-0.552 -0.403,-1.109 -0.567,-1.682 -0.104,-0.365 -0.156,-0.743 -0.212,-1.144 -0.071,-0.524 -0.146,-1.065 -0.352,-1.595 -0.255,-0.658 -0.543,-1.309 -0.832,-1.957 -0.479,-1.075 -0.973,-2.188 -1.285,-3.309 -1.006,-3.604 -2.242,-7.27 -5.285,-9.042 -1.97,-1.147 -3.846,-1.553 -6.062,-1.315 -1.231,0.133 -1.667,0.746 -2.17,1.456 -0.108,0.153 -0.227,0.317 -0.36,0.492 -0.197,0.255 -0.397,0.505 -0.6,0.756 -0.33,0.409 -0.659,0.819 -0.973,1.25 -3.865,5.352 -6.332,12.584 -7.328,21.5 -0.097,0.857 -0.333,1.74 -0.586,2.676 -0.253,0.939 -0.515,1.911 -0.621,2.867 -0.162,1.441 -0.125,2.951 -0.09,4.411 0.016,0.618 0.03,1.233 0.03,1.839 0,3.678 0.7,7.75 1.972,11.468 2.282,6.677 6.469,12.865 10.56,18.634 1.188,1.676 1.72,2.781 1.72,4.898 0,1.913 0.228,3.67 0.757,5.874 0.199,0.827 0.32,1.692 0.448,2.61 0.146,1.035 0.295,2.105 0.568,3.143 0.087,0.327 0.153,0.813 0.226,1.326 0.216,1.546 0.459,3.297 1.478,3.965 l 0.108,0.07 4.172,0.299 -0.007,-0.543 c -0.026,-2.149 -0.392,-4.319 -0.745,-6.418 -0.188,-1.118 -0.381,-2.273 -0.515,-3.381 -0.221,-1.842 -0.221,-4.31 0,-6.143 0.175,-1.441 0.85,-2.667 1.563,-3.966 0.152,-0.274 0.307,-0.556 0.457,-0.84 1.832,-3.449 3.012,-7.709 3.738,-10.614 1.065,-4.255 1.803,-8.123 2.253,-11.822 0.364,-2.986 0.32,-6.188 0.277,-9.285 z m -1.268,9.168 c -0.444,3.658 -1.175,7.486 -2.23,11.701 -0.714,2.854 -1.87,7.035 -3.65,10.389 -0.148,0.279 -0.301,0.556 -0.45,0.826 -0.763,1.386 -1.481,2.693 -1.68,4.328 -0.233,1.935 -0.233,4.438 0,6.381 0.136,1.131 0.331,2.297 0.521,3.427 0.315,1.882 0.643,3.821 0.717,5.721 l -2.803,-0.2 c -0.568,-0.509 -0.784,-2.054 -0.943,-3.195 -0.075,-0.545 -0.147,-1.06 -0.249,-1.444 -0.259,-0.978 -0.404,-2.019 -0.544,-3.024 -0.126,-0.899 -0.256,-1.832 -0.467,-2.707 -0.513,-2.123 -0.729,-3.81 -0.729,-5.64 0,-2.375 -0.614,-3.658 -1.903,-5.478 -4.05,-5.709 -8.189,-11.83 -10.43,-18.379 -1.236,-3.615 -1.917,-7.574 -1.917,-11.145 0,-0.613 -0.016,-1.236 -0.031,-1.863 -0.035,-1.427 -0.07,-2.9 0.084,-4.275 0.1,-0.879 0.352,-1.813 0.595,-2.719 0.25,-0.93 0.509,-1.891 0.612,-2.824 0.979,-8.741 3.382,-15.815 7.146,-21.024 0.302,-0.418 0.621,-0.813 0.938,-1.209 0.206,-0.255 0.411,-0.511 0.612,-0.771 0.145,-0.187 0.269,-0.362 0.385,-0.525 0.465,-0.656 0.678,-0.956 1.462,-1.04 1.991,-0.214 3.669,0.147 5.45,1.185 2.72,1.583 3.875,5.041 4.826,8.447 0.332,1.189 0.842,2.336 1.334,3.444 0.282,0.635 0.563,1.27 0.813,1.911 0.162,0.42 0.227,0.882 0.292,1.369 0.059,0.418 0.117,0.85 0.242,1.283 0.17,0.594 0.38,1.174 0.588,1.747 0.153,0.421 0.306,0.839 0.438,1.255 1.119,3.531 1.213,7.795 1.213,11.86 0,1.003 0.014,2.019 0.028,3.035 0.04,3.064 0.085,6.232 -0.27,9.153 z" />
    <path
       inkscape:connector-curvature="0"
       id="path537-7"
       d="m 488.4043,621.76692 -0.032,0.017 c -0.036,-0.188 -0.061,-0.39 -0.078,-0.532 -0.03,-0.24 -0.06,-0.466 -0.104,-0.638 -0.053,-0.198 -0.117,-0.415 -0.186,-0.64 -0.136,-0.449 -0.274,-0.914 -0.314,-1.276 -0.078,-0.701 -0.139,-1.379 -0.197,-2.051 -0.08,-0.901 -0.16,-1.794 -0.278,-2.722 -0.1,-0.776 -0.209,-1.55 -0.317,-2.319 -0.183,-1.275 -0.361,-2.575 -0.494,-3.894 0.408,-0.683 0.706,-1.395 0.99,-2.084 0.163,-0.396 0.326,-0.794 0.515,-1.188 0.104,-0.222 0.219,-0.539 0.343,-0.89 0.211,-0.596 0.604,-1.703 0.929,-1.865 l -0.444,-0.895 c -0.688,0.342 -1.079,1.448 -1.427,2.426 -0.11,0.313 -0.211,0.598 -0.305,0.795 -0.192,0.41 -0.364,0.822 -0.534,1.233 -0.069,0.172 -0.144,0.333 -0.214,0.5 -0.026,-0.499 -0.05,-1 -0.05,-1.505 v -15.25 c 0,-0.195 0.021,-0.504 0.045,-0.869 0.158,-2.42 0.12,-3.645 -0.528,-4.054 l -0.563,0.821 c 0.278,0.347 0.144,2.396 0.093,3.166 -0.025,0.394 -0.047,0.726 -0.047,0.936 v 15.251 c 0.001,2.586 0.356,5.088 0.7,7.507 0.107,0.767 0.218,1.534 0.315,2.308 0.117,0.914 0.195,1.793 0.274,2.682 0.06,0.68 0.121,1.363 0.199,2.072 0.051,0.453 0.203,0.963 0.352,1.455 0.063,0.211 0.126,0.416 0.174,0.603 0.036,0.138 0.057,0.315 0.079,0.508 0.075,0.609 0.159,1.3 0.615,1.681 l 1.357,1.14 -0.563,-1.681 c -0.083,-0.257 -0.186,-0.505 -0.305,-0.748 z" />
    <path
       inkscape:connector-curvature="0"
       id="path539-1"
       d="m 453.9273,537.29492 c -1.432,-6.875 -8.102,-9.856 -12.521,-11.833 -0.51,-0.228 -0.991,-0.443 -1.435,-0.65 -0.899,-0.708 -1.844,-1.066 -2.804,-1.066 -2.723,0 -4.557,2.855 -4.62,2.957 -0.482,0.688 -11.841,17.016 -12.59,30.001 -0.371,5.206 1.838,14.47 3.613,21.913 0.641,2.688 1.246,5.227 1.651,7.25 1.29,4.904 3.25,13.553 3.493,15.721 0.438,2.19 2.078,4.293 3.526,6.146 0.284,0.365 0.56,0.719 0.793,1.027 0.912,1.418 2.392,3.43 3.959,5.561 2.142,2.912 4.568,6.212 4.969,7.251 0.026,0.157 2.654,16.29 3.494,29.45 l 0.028,0.438 4.767,0.317 -0.048,-0.578 c -0.015,-0.183 -1.502,-18.323 -1.748,-25.729 -0.255,-6.627 1.894,-14.385 4.731,-23.845 4.05,-14.331 6.019,-23.696 6.017,-28.597 1.8,-22.848 -3.508,-33.039 -5.275,-35.734 z m 4.279,35.695 c 0,4.846 -1.956,14.123 -5.979,28.355 -2.863,9.543 -5.032,17.381 -4.771,24.16 0.223,6.676 1.448,22.024 1.705,25.196 l -2.734,-0.183 c -0.873,-13.125 -3.452,-28.959 -3.503,-29.207 -0.473,-1.262 -2.731,-4.334 -5.125,-7.586 -1.557,-2.116 -3.026,-4.116 -3.941,-5.537 -0.259,-0.344 -0.537,-0.702 -0.826,-1.072 -1.379,-1.768 -2.942,-3.77 -3.327,-5.684 -0.263,-2.36 -2.313,-11.264 -3.507,-15.793 -0.402,-2.015 -1.011,-4.561 -1.653,-7.256 -1.76,-7.377 -3.949,-16.559 -3.588,-21.618 0.732,-12.707 12.294,-29.325 12.424,-29.512 0.016,-0.025 1.61,-2.511 3.788,-2.511 0.744,0 1.493,0.297 2.228,0.884 l 0.1,0.062 c 0.462,0.217 0.967,0.443 1.503,0.683 4.254,1.902 10.683,4.775 11.97,11.213 l 0.074,0.179 c 1.661,2.502 6.954,12.42 5.162,35.227 z" />
    <path
       inkscape:connector-curvature="0"
       id="path541-9"
       d="m 441.5403,568.12092 c -0.873,-10.329 -1.818,-19.013 -1.837,-19.185 l -0.994,0.108 c 0.022,0.207 1.384,12.727 2.349,25.59 -2.146,-8.949 -4.087,-20.35 -4.107,-20.479 l -0.986,0.167 c 0.025,0.148 2.533,14.879 5.011,24.047 l 0.347,-0.094 c 0.179,2.62 0.334,5.205 0.451,7.657 -1.664,-2.305 -2.595,-4.367 -2.607,-4.397 l -0.914,0.406 c 0.065,0.147 1.33,2.95 3.599,5.739 0.146,3.566 0.199,6.779 0.108,9.289 l 1,0.037 c 0.081,-2.236 0.048,-5.031 -0.063,-8.129 0.312,0.332 1.89569,-2.7177 2.23569,-2.4007 l -0.26702,-1.0161 c -0.77783,0.46772 -1.50567,2.4688 -2.02967,1.8438 -0.177,-4.17 -0.477,-8.799 -0.823,-13.361 l 0.191,-0.03 c -0.012,-0.077 -1.13,-7.808 4.594,-13.054 l -0.676,-0.737 c -2.723,2.491 -4.001,5.448 -4.582,7.999 z"
       sodipodi:nodetypes="ccccccccccccccccccccccc" />
    <path
       inkscape:connector-curvature="0"
       id="path543-5"
       d="m 409.6973,547.53192 c -0.292,-2.544 -0.558,-4.85 -0.751,-6.639 -2.406,-12.274 -14.651,-22.507 -19.88,-26.876 l -0.745,-0.619 c -1.022,-1.095 -2.084,-1.651 -3.156,-1.651 -2.232,0 -3.59,2.397 -3.594,2.423 -0.453,0.546 -11.10999,13.49 -12.11099,24.011 -0.103,0.869 -0.221,1.799 -0.346,2.782 -1.088,8.573 -2.732,21.528 1.117,34.435 3.675,11.025 7.39599,20.098 15.53999,33.84 2.184,3.818 4.171,8.036 3.935,12.984 -0.258,7.496 1.536,30.474 2.265,33.389 l 0.096,0.379 h 6.751 l -0.12,-0.598 c -0.247,-1.237 -1.995,-19.336 -2.241,-28.93 -0.403,-7.258 3.887,-16.47 7.334,-23.871 0.767,-1.646 1.494,-3.211 2.135,-4.676 4.664,-12.346 5.598,-24.854 5.782,-29.677 -0.002,-3.216 -1.116,-12.914 -2.011,-20.706 z m -4.699,50.008 c -0.628,1.435 -1.353,2.991 -2.116,4.63 -3.494,7.504 -7.842,16.842 -7.426,24.334 0.229,8.938 1.721,24.979 2.171,28.486 h -4.766 c -0.765,-4.094 -2.403,-25.549 -2.156,-32.727 0.249,-5.213 -1.915,-9.76 -4.069,-13.528 -8.102,-13.672 -11.802,-22.692 -15.44899,-33.638 -3.785,-12.69 -2.156,-25.52 -1.079,-34.008 0.125,-0.986 0.242,-1.919 0.348,-2.802 0.974,-10.224 11.77699,-23.347 11.93799,-23.554 0.012,-0.02 1.132,-1.986 2.771,-1.986 0.784,0 1.6,0.449 2.469,1.375 l 0.791,0.663 c 5.147,4.301 17.202,14.375 19.534,26.258 0.188,1.748 0.452,4.057 0.745,6.604 0.892,7.767 2.002,17.433 2.002,20.573 -0.183,4.756 -1.105,17.135 -5.708,29.32 z" />
    <path
       inkscape:connector-curvature="0"
       id="path545-2"
       d="m 384.7143,538.07992 c 0.022,0.122 2.247,12.279 2.493,17.682 l 0.998,-0.045 c -0.248,-5.471 -2.484,-17.695 -2.507,-17.818 l -0.984,0.181 z" />
    <path
       inkscape:connector-curvature="0"
       id="path547-0"
       d="m 387.7093,536.04692 c 0.019,0.152 1.747,15.267 1.747,19.193 h 1 c 0,-3.983 -1.682,-18.683 -1.753,-19.307 l -0.994,0.114 z" />
    <path
       inkscape:connector-curvature="0"
       id="path549-1"
       d="m 392.2063,574.48992 h -1 c 0,0.246 0.028,0.875 0.071,1.809 0.174,3.811 0.581,12.732 0.18,21.168 l 0.998,0.047 c 0.404,-8.48 -0.005,-17.438 -0.179,-21.262 -0.042,-0.908 -0.07,-1.522 -0.07,-1.762 z" />
    <path
       inkscape:connector-curvature="0"
       id="path551-8"
       d="m 357.19531,559.13592 c -3.336,-15.654 -11.282,-23.646 -15.588,-27.951 -1.438,-2.533 -3.015,-3.816 -4.687,-3.816 -2.749,0 -4.583,3.494 -4.643,3.611 -0.596,0.975 -14.573,24.041 -14.323,38.496 -0.245,8.356 4.313,18.707 7.04,24.893 l 0.247,0.561 c 2.09,5.146 6.139,13.795 9.096,20.11 1.654,3.536 2.962,6.328 3.38,7.313 1.469,6.359 3.232,25.304 3.488,30.164 l 0.015,0.291 5.098,2.548 -0.116,-0.929 c -1.475,-11.793 -0.284,-35.799 0.487,-40.299 0.459,-1.138 1.636,-3.66 3.12,-6.842 1.811,-3.884 4.064,-8.717 5.873,-12.896 3.893,-12.455 3.422,-23.089 1.513,-35.254 z m -2.448,34.905 c -1.784,4.119 -4.035,8.945 -5.844,12.823 -1.513,3.242 -2.706,5.802 -3.161,6.94 l -0.028,0.099 c -0.758,4.294 -1.933,27.519 -0.611,39.727 l -2.912,-1.457 c -0.309,-5.305 -2.045,-23.757 -3.521,-30.124 -0.452,-1.086 -1.764,-3.887 -3.424,-7.434 -2.952,-6.307 -6.994,-14.941 -9.08,-20.076 l -0.253,-0.574 c -2.691,-6.105 -7.194,-16.328 -6.955,-24.482 -0.245,-14.188 14.032,-37.745 14.194,-38.012 0.016,-0.031 1.633,-3.101 3.771,-3.101 1.297,0 2.592,1.133 3.85,3.367 l 0.082,0.108 c 4.221,4.221 12.076,12.078 15.358,27.474 1.882,11.998 2.349,22.504 -1.466,34.722 z" />
    <path
       inkscape:connector-curvature="0"
       id="path553-8"
       d="m 340.54931,587.19892 c -0.063,0.088 -0.959,1.365 -1.681,3.191 -0.01,-1.504 0.01,-2.971 0.051,-4.4 h 0.037 c 0,-0.152 -0.014,-0.309 -0.024,-0.464 0.374,-11.733 2.233,-20.542 2.264,-20.681 l -0.978,-0.211 c -0.026,0.126 -1.557,7.37 -2.133,17.479 -1.033,-2.598 -2.627,-4.786 -2.727,-4.92 l -0.806,0.594 c 0.033,0.044 3.135,4.299 3.379,7.776 -0.089,2.823 -0.094,5.813 0.034,8.895 -0.003,0.095 -0.011,0.188 -0.011,0.282 h 0.024 c 0.19,4.35 0.642,8.867 1.483,13.343 l 0.982,-0.186 c -0.85,-4.507 -1.297,-9.058 -1.48,-13.433 0.117,-3.438 2.373,-6.651 2.396,-6.686 l -0.81,-0.579 z" />
    <path
       inkscape:connector-curvature="0"
       id="path555-6"
       d="m 311.20631,604.23192 c -0.217,-14.303 -8.211,-19.771 -13.502,-23.393 -0.896,-0.615 -1.744,-1.195 -2.471,-1.767 -1.46,-0.974 -3.003,-1.467 -4.587,-1.467 -3.345,0 -5.687,2.177 -5.799,2.282 -0.11,0.115 -11.146,11.563 -10.141,24.646 0.763,8.386 5.408,12.323 16.634,21.84 l 0.156,0.132 c 0.813,4.254 4.433,20.428 4.47,20.594 l 0.071,0.316 4.938,0.987 -0.3,-0.833 c -2.159,-5.997 -3.179,-19.249 -2.989,-22.549 12.316,-8.119 13.039,-15.705 13.52,-20.788 z m -11.748,42.849 -2.585,-0.518 c -0.521,-2.331 -3.742,-16.773 -4.426,-20.415 l -0.032,-0.176 -0.426,-0.36 c -11.323,-9.601 -15.562,-13.19 -16.285,-21.16 -0.97,-12.618 9.751,-23.751 9.846,-23.849 0.021,-0.021 2.146,-1.996 5.098,-1.996 1.384,0 2.739,0.438 4,1.275 0.721,0.567 1.581,1.157 2.492,1.781 5.12,3.503 12.857,8.799 13.068,22.527 -0.491,5.156 -1.163,12.22 -13.275,20.129 l -0.201,0.133 -0.022,0.241 c -0.254,2.776 0.684,15.788 2.748,22.388 z" />
    <path
       inkscape:connector-curvature="0"
       id="path557-8"
       d="m 266.95631,621.96892 c -0.482,-11.324 -8.959,-15.68 -16.78,-15.978 -3.082,0.187 -5.297,1.106 -6.583,2.733 -1.322,1.674 -1.2,3.531 -1.144,3.994 -0.217,1.008 -1.842,9.168 1.36,14.826 1.426,1.852 3.42,3.715 5.021,5.211 1.195,1.116 2.232,2.086 2.668,2.701 0.74,2.538 2.199,11.03 2.214,11.117 l 0.051,0.295 5.637,1.878 -0.207,-0.873 c -0.021,-0.092 -2.107,-8.922 -2.459,-12.358 8.173,-4.664 9.978,-8.63 10.222,-13.546 z m -10.995,12.835 -0.278,0.156 0.025,0.316 c 0.208,2.705 1.744,9.518 2.308,11.955 l -3.367,-1.123 c -0.272,-1.573 -1.531,-8.744 -2.214,-11.014 l -0.063,-0.135 c -0.473,-0.709 -1.525,-1.691 -2.858,-2.938 -1.575,-1.473 -3.536,-3.305 -4.873,-5.031 -3.114,-5.511 -1.217,-14.057 -1.197,-14.143 l 0.021,-0.099 -0.017,-0.1 c -0.003,-0.019 -0.291,-1.769 0.928,-3.31 1.104,-1.395 3.074,-2.188 5.811,-2.354 7.326,0.28 15.316,4.376 15.771,14.976 -0.236,4.708 -1.947,8.316 -9.997,12.844 z" />
    <path
       inkscape:connector-curvature="0"
       id="path559-9"
       d="m 250.96731,621.34192 c 0,0.002 1.249,5.998 1.999,9.746 l 0.98,-0.195 c -0.75,-3.752 -2.001,-9.754 -2.001,-9.754 l -0.978,0.203 z" />
    <path
       inkscape:connector-curvature="0"
       id="path561-7"
       d="m 228.59331,611.50392 -0.824,-0.654 -0.173,-0.09 c -1.435,-0.414 -2.83,-0.625 -4.147,-0.625 -6.5,0 -9.325,4.943 -9.658,5.573 -0.479,0.565 -4.504,5.554 -1.775,10.517 1.607,3.035 4.896,6.74 7.298,9.447 0.93,1.047 1.737,1.957 2.187,2.543 0.99,3.734 2.702,11.553 2.72,11.633 l 0.086,0.394 h 4.263 l -0.12,-0.599 c -0.018,-0.086 -1.703,-8.534 -1.982,-11.577 0.602,-1.462 2.354,-3.901 4.207,-6.479 2.245,-3.125 4.566,-6.354 5.28,-8.523 0.732,-5.16 -3.756,-8.709 -7.362,-11.56 z m 6.389,11.328 c -0.646,1.938 -2.923,5.104 -5.123,8.168 -1.938,2.695 -3.767,5.241 -4.37,6.811 l -0.041,0.107 0.01,0.114 c 0.214,2.569 1.488,9.169 1.889,11.208 h -2.238 c -0.366,-1.658 -1.805,-8.137 -2.669,-11.379 l -0.083,-0.171 c -0.459,-0.613 -1.271,-1.526 -2.297,-2.685 -2.368,-2.668 -5.61,-6.32 -7.165,-9.258 -2.542,-4.623 1.642,-9.377 1.684,-9.425 l 0.075,-0.11 c 0.024,-0.051 2.61,-5.08 8.794,-5.08 1.194,0 2.465,0.188 3.775,0.561 l 0.75,0.595 c 3.582,2.833 7.643,6.044 7.009,10.544 z" />
    <path
       inkscape:connector-curvature="0"
       id="path563-2"
       d="m 222.20631,621.98992 c 0,0.749 0.24,8.678 0.25,9.016 l 1,-0.031 c -0.003,-0.082 -0.25,-8.25 -0.25,-8.983 l -1,-0.002 0,0 z" />
    <text
       style="font-size:10px;fill:#9b9da0;font-family:Helvetica"
       id="text856-6"
       font-size="10"
       x="184.30882"
       y="665.42737">Leaf</text>
    <text
       style="font-size:10px;fill:#9b9da0;font-family:Helvetica"
       id="text858-4"
       font-size="10"
       x="221.25951"
       y="665.42737">1</text>
    <text
       style="font-size:10px;fill:#9b9da0;font-family:Helvetica"
       id="text860-5"
       font-size="10"
       x="253.259"
       y="665.42737">2</text>
    <text
       style="font-size:10px;fill:#9b9da0;font-family:Helvetica"
       id="text862-7"
       font-size="10"
       x="293.93091"
       y="665.42737">4</text>
    <text
       style="font-size:10px;fill:#9b9da0;font-family:Helvetica"
       id="text864-8"
       font-size="10"
       x="339.93091"
       y="665.42737">6</text>
    <text
       style="font-size:10px;fill:#9b9da0;font-family:Helvetica"
       id="text872-5"
       font-size="10"
       x="445.93094"
       y="665.42737">8</text>
    <text
       style="font-size:10px;fill:#9b9da0;font-family:Helvetica"
       id="text874-0"
       font-size="10"
       x="483.14975"
       y="665.42737">10</text>
    <text
       style="font-size:10px;fill:#9b9da0;font-family:Helvetica"
       id="text876-8"
       font-size="10"
       x="516.14972"
       y="665.42737">12</text>
    <text
       style="font-size:10px;fill:#9b9da0;font-family:Helvetica"
       id="text878-7"
       font-size="10"
       x="544.75513"
       y="665.42737">Cauline</text>
    <text
       style="font-size:10px;fill:#9b9da0;font-family:Helvetica"
       id="text880-5"
       font-size="10"
       x="588.08331"
       y="665.42737">Senescent</text>
    <text
       id="text866"
       x="392.04251"
       y="666.76379">
      <tspan
         style="font-size:10px;fill:#9b9da0;font-family:Helvetica"
         id="tspan868"
         font-size="10"
         y="666.76379"
         x="392.04251">7</tspan>
      <tspan
         style="font-size:10px;fill:#9b9da0;font-family:Helvetica"
         id="tspan870"
         font-size="10"
         y="675.76379"
         x="356.47351">(dist/prox/petiole)</tspan>
    </text>
  </g>
</svg>
