<?xml version="1.0" encoding="UTF-8" standalone="no"?>
<!-- Created with Inkscape (http://www.inkscape.org/) -->

<svg
   xmlns:dc="http://purl.org/dc/elements/1.1/"
   xmlns:cc="http://creativecommons.org/ns#"
   xmlns:rdf="http://www.w3.org/1999/02/22-rdf-syntax-ns#"
   xmlns:svg="http://www.w3.org/2000/svg"
   xmlns="http://www.w3.org/2000/svg"
   xmlns:sodipodi="http://sodipodi.sourceforge.net/DTD/sodipodi-0.dtd"
   xmlns:inkscape="http://www.inkscape.org/namespaces/inkscape"
   width="206.53601"
   height="580.1532"
   id="svg4778"
   version="1.1"
   inkscape:version="0.48.3.1 r9886"
   sodipodi:docname="ath-mature-plant.svg">
  <defs
     id="defs4780" />
  <sodipodi:namedview
     id="base"
     pagecolor="#ffffff"
     bordercolor="#666666"
     borderopacity="1.0"
     inkscape:pageopacity="0.0"
     inkscape:pageshadow="2"
     inkscape:zoom="7.9195962"
     inkscape:cx="125.59643"
     inkscape:cy="551.94372"
     inkscape:document-units="px"
     inkscape:current-layer="layer1"
     showgrid="false"
     inkscape:window-width="1024"
     inkscape:window-height="551"
     inkscape:window-x="0"
     inkscape:window-y="0"
     inkscape:window-maximized="1"
     fit-margin-top="0"
     fit-margin-left="0"
     fit-margin-right="0"
     fit-margin-bottom="0" />
  <metadata
     id="metadata4783">
    <rdf:RDF>
      <cc:Work
         rdf:about="">
        <dc:format>image/svg+xml</dc:format>
        <dc:type
           rdf:resource="http://purl.org/dc/dcmitype/StillImage" />
      </cc:Work>
    </rdf:RDF>
  </metadata>
  <g
     inkscape:label="Layer 1"
     inkscape:groupmode="layer"
     id="layer1"
     transform="translate(-400.64547,-121.89696)">
    <path
       style="fill:#ffcc98"
       inkscape:connector-curvature="0"
       d="m 534.2747,163.84181 c 0,0 -1.5,-2.75 3,-6.875 4,-3.625 8.75,-8.25 13.125,-10.25 4.25,-2.125 4.75,-2.5 4.75,-2.5 -1.875,2.625 -5.375,7.875 -8.125,10 -3.25,1.875 -7.5,4.5 -8,5 -1.125,1.25 -3.375,5 -4.75,4.625 z"
       id="path42" />
    <path
       style="fill:#ffcc97"
       inkscape:connector-curvature="0"
       d="m 506.14034,173.53702 c 0,0 -6,-12.75 -8.5,-20.875 -1.5,-5.875 -2.125,-11.5 0.75,-11.625 1.375,0.625 3.75,3.25 3.875,7.875 0.625,5.125 2.125,10.875 3.375,14.25 0.25,4 2.375,9.5 0.5,10.375 z"
       id="path49" />
    <path
       style="fill:#99cc65"
       inkscape:connector-curvature="0"
       id="path428-0"
       d="m 496.60148,307.25816 c 0,0 8.5,-5.5 19.25,-3.125 7.5,2.25 14.75,7.875 17.375,24.5 0.375,3.375 0.375,6.25 0.75,6.875 0.625,1.125 2.5,5.375 -2.375,3.25 -4.875,-3.25 -16.75,-9.25 -20,-15.5 -2.875,-5.625 -7.5,-13.875 -11.375,-14.375 -1.75,0.625 -2.75,2.125 -4.125,1.75 0.125,-2.625 0.5,-3.375 0.5,-3.375 z" />
    <path
       style="fill:#99cc65"
       inkscape:connector-curvature="0"
       id="path430-7"
       d="m 488.35148,412.00816 c 0,0 -4.875,-4.25 -6.5,-4.125 -4.25,-0.5 -16,-0.25 -26,8.75 -3.875,3.875 -5.75,6.875 -8.5,13.875 -2.125,5 -5.75,15 -6.375,16.125 1.625,0.375 15.75,1.75 25.25,-8.5 4.75,-4.625 11,-12.375 12,-14.625 2.375,-2.75 5.625,-5.875 11.125,-5.5 -1.375,-1 -3,-4.375 -1,-6 z" />
    <g
       transform="translate(389.47648,99.008159)"
       id="Entire Rosette After Transition to Flowering">
      <path
         style="fill:#99cc66"
         inkscape:connector-curvature="0"
         d="m 18,400.25 c 0,0 -2.375,-1.375 6,-12.25 6.875,-8.5 15.375,-18 21.25,-21 6,-3.625 11.875,-8 24.625,-3.125 4.125,2.375 9.125,5.25 10.625,8 2.25,1.375 7.125,4.875 7.625,5.75 2.75,1.375 16.625,11.625 20.125,12.875 -3.375,-3.125 -12.25,-13.125 -18.5,-14.625 -3.25,-2.625 -7.375,-5 -6.375,-17.125 1.25,-6.875 2.5,-10.875 2.5,-10.875 2.75,2.375 14.375,12.875 16.5,16.875 0.625,1.625 0.625,4.875 1.625,8.125 0.75,2.875 2.625,6 3.75,6.75 0.25,-2.125 0.875,-5.125 0.875,-5.125 1,1.5 4.625,4.25 4.625,4.25 0.625,1.375 2.875,7.5 2.625,9 -0.375,2.375 -0.75,5.875 -0.75,5.875 1.875,-2.25 5.75,-5.875 7.5,-13.5 0.625,-4.25 0.375,-12.875 3.125,-16.75 2.5,-3.625 4.625,-7.375 10.625,-9 3.25,-0.75 8.375,-2.25 10.125,5.375 -0.25,1.625 -0.375,6.125 -6.25,13 -4.125,3.625 -12.875,11.5 -13,12 -2,2.375 -2.875,3.375 -2.875,3.375 4.125,-2.875 16.5,-9.5 18.25,-10.125 1.875,-2.375 13.875,-14.5 28.25,-16.375 5.875,1.25 20.5,3.5 24.875,5.75 -2.375,1.25 -6.25,3.375 -6.875,5.375 -0.75,2.25 -2.75,6.75 -5.375,6.625 2.5,1.625 11.5,7.375 15.125,12.375 2.75,3.125 12,9.875 17.625,11.25 -1,1.5 -10.66878,10.77538 -27.75,5.375 -9.00854,-2.84813 -13.875,-8.5 -22.375,-15.125 -5,-3.375 -12.75,-8.75 -24.375,-6.75 -6.5,1.5 -17.875,5.125 -23,9.125 -1,1.25 -1,1.25 -1,1.25 2.75,-0.125 24,-2 28.125,3.25 3.5,4.625 7.25,9.75 7.25,9.75 -2.125,1.75 -12.625,10.5 -23.625,-0.125 -4.25,-4.875 -7.75,-9.625 -11.5,-9.25 1.75,2.25 10.375,13.875 16.125,17 6.5,1.75 23.5,4.125 27.5,17.5 2.375,7.625 2.75,16.375 2.75,16.375 -3.875,1.625 -16,10.125 -32.75,-11 -3.875,-7.5 -4.5,-8.125 -7.75,-24 -2.25,-4.375 -4.375,-8.75 -8,-11.625 C 112,404.5 110.5,404.375 110,404.625 c -3,0.375 -11,1 -14.25,6 C 92,415.5 86.125,422.625 73.625,429 67.125,431.75 61,435 51.25,423.625 48.875,420 47.75,412.25 51.625,408 55.75,403.5 62,396.75 70.25,394.625 75.125,394.875 94.625,398.25 108.625,401 106.75,398.625 96.25,384.5 74,384.125 c -4.25,0.375 -9.75,1.125 -16.375,5.5 -7.625,4.75 -17.125,12.875 -28.875,9.25 -3.25,0 -7.5,-0.375 -10.75,1.375 z"
         id="path435"
         sodipodi:nodetypes="cccccccccccccccccccccccccccccccsccccccccccccccccccccccccc" />
    </g>
    <g
       transform="translate(389.47648,99.008159)"
       id="Stem, 2nd Internode-7">
      <path
         style="fill:#99ccff"
         inkscape:connector-curvature="0"
         d="m 99.625,302.75 h 4.875 c 0,-6.625 0,-30.125 0,-32.875 -0.125,-6.625 0.75,-31.625 1.125,-36.375 0.75,-9 1,-21.875 1,-21.875 l -4.75,0.125 c 0,3.25 -0.5,17.375 -0.375,18.125 0,4.375 -1.625,23.875 -1.375,26.625 -0.25,4.75 -0.75,26.125 -0.75,29.75 0,3.125 0.25,16.5 0.25,16.5 z"
         id="path438-4" />
    </g>
    <g
       transform="translate(389.47648,99.008159)"
       id=" x31 st Node-9">
      <path
         style="fill:#00ccff"
         inkscape:connector-curvature="0"
         d="m 99.625,302.75 h 4.875 c 0,0 0.25,7.125 0,7.75 -0.375,2 -0.25,8.75 -0.25,8.75 -1.375,-0.125 -4.375,-0.25 -4.375,-0.25 -0.125,-1.375 -1.5,-0.25 -1.5,-0.25 -0.75,-0.25 -0.875,-2.25 -0.875,-2.25 0,0 -0.125,-0.25 -0.25,-0.625 -0.125,-0.375 0,-0.875 0,-0.875 l 0.375,-0.875 0.625,-0.5 L 98.875,313 100,309.375 c 0,0 -0.625,-4.875 -0.375,-6.625 z"
         id="path441-7" />
    </g>
    <path
       inkscape:connector-curvature="0"
       id="path647"
       d="m 492.25748,573.83416 0.938,0.348 c 2.282,-6.16 -0.11,-12.179 -2.031,-17.014 -0.25,-0.628 -0.493,-1.241 -0.714,-1.822 -2.869,-8.366 3.095,-15.441 3.156,-15.512 l -0.758,-0.652 c -0.064,0.074 -6.402,7.57 -3.338,16.504 0.229,0.603 0.475,1.219 0.726,1.853 1.953,4.918 4.169,10.495 2.021,16.295 z" />
    <path
       inkscape:connector-curvature="0"
       id="path649"
       d="m 527.83048,461.36216 -0.707,-0.707 c -5.487,5.486 -11.817,16.879 -12.084,17.361 l 0.875,0.484 c 0.064,-0.117 6.529,-11.752 11.916,-17.138 z" />
    <path
       inkscape:connector-curvature="0"
       id="path651"
       d="m 528.75948,506.18616 0.935,-0.354 c -2.088,-5.482 -11.286,-6.289 -11.677,-6.32 l -0.081,0.996 c 0.089,0.006 8.957,0.779 10.823,5.678 z" />
    <path
       inkscape:connector-curvature="0"
       id="path653"
       d="m 473.57948,502.28016 c -6.49,1.995 -19.808,10.446 -20.372,10.806 l 0.537,0.844 c 0.137,-0.087 13.767,-8.736 20.128,-10.694 l -0.293,-0.956 z" />
    <path
       inkscape:connector-curvature="0"
       id="path655"
       d="m 461.10948,517.91816 0.734,0.68 c 0.151,-0.163 15.19,-16.289 23.562,-15.095 l 0.142,-0.99 c -8.917,-1.27 -23.808,14.724 -24.438,15.405 z" />
    <path
       inkscape:connector-curvature="0"
       id="path657"
       d="m 425.65848,486.37216 0.637,0.771 c 0.155,-0.129 15.855,-12.84 39.124,-10.139 l 0.115,-0.994 c -23.686,-2.738 -39.717,10.23 -39.876,10.362 z" />
    <path
       inkscape:connector-curvature="0"
       id="path659"
       d="m 481.68848,462.31716 -0.924,0.383 c 0.175,0.424 4.333,10.39 7.872,13.676 l 0.681,-0.732 c -3.381,-3.141 -7.587,-13.226 -7.629,-13.327 z" />
    <path
       inkscape:connector-curvature="0"
       id="path661"
       d="m 500.76248,481.94416 c 0.01,0.024 0.981,2.467 1.219,4.135 l 0.99,-0.141 c -0.256,-1.789 -1.239,-4.261 -1.281,-4.365 l -0.928,0.371 z" />
    <path
       inkscape:connector-curvature="0"
       id="path663"
       d="m 535.43348,540.30516 c -3.992,-8.979 -14.003,-19.05 -14.104,-19.149 l -0.707,0.706 c 0.099,0.101 9.981,10.04 13.896,18.851 l 0.915,-0.408 z" />
    <path
       inkscape:connector-curvature="0"
       id="path665"
       d="m 606.43948,502.05616 c -0.662,-0.312 -1.419,-0.629 -2.255,-0.979 -4.5,-1.886 -11.3,-4.732 -17.588,-12.904 -1.099,-1.21 -5.464,-5.71 -12.633,-9.479 2.584,-0.896 3.646,-3.514 4.459,-5.526 0.253,-0.625 0.492,-1.216 0.732,-1.65 0.692,-1.153 3.089,-3.323 6.251,-4.54 l 0.782,-0.301 -0.637,-0.546 c -1.926,-1.649 -16.954,-4.668 -25.093,-5.62 -13.821,0.484 -28.235,15.217 -29.737,16.792 -4.444,1.763 -9.11,4.146 -13.987,7.295 3.411,-3.58 6.861,-6.62 9.437,-8.886 1.735,-1.525 3.105,-2.732 3.946,-3.639 2.116,-2.646 5.756,-7.754 6.359,-12.313 0,-3.401 -1.148,-5.683 -3.413,-6.778 -4.087,-1.982 -10.561,0.7 -13.718,3.205 -6.831,8.008 -6.902,10.94 -7.073,18.025 l -0.044,1.751 c -0.641,6.839 -3.865,11.22 -7.031,15.418 0.1,-0.634 0.196,-1.405 0.273,-2.308 h 0.002 c 0.008,-0.059 0.01,-0.115 0.017,-0.174 0.048,-0.304 0.235,-1.035 0.418,-1.748 0.551,-2.15 1.475,-5.75 1.818,-9.356 0.246,-3.442 0.011,-10.337 -1.289,-14.231 -1.369,-3.193 -6.352,-15.951 -7.136,-17.961 l 5.099,-1.873 -0.345,-0.938 -12.25,4.5 0.345,0.938 2.267,-0.832 c 0.594,1.727 2.77,7.896 5.097,12.549 2.633,6.582 2.686,8.961 2.781,13.281 0.024,1.094 0.051,2.305 0.123,3.733 -1.061,-0.843 -2.88,-2.433 -4.018,-4.22 l -0.726,-1.141 -0.191,1.338 c -0.009,0.065 -0.215,1.535 -0.439,5.002 l -0.059,-0.01 c -0.003,0.018 -0.004,0.033 -0.007,0.051 -2.359,-2.332 -4,-8.557 -4,-12.223 0,-4.506 -15.643,-17.872 -17.427,-19.382 l -0.604,-0.513 -0.202,0.768 c -0.013,0.048 -1.266,4.826 -2.265,10.082 -1.122,12.346 2.027,14.936 4.805,17.223 0.375,0.309 0.748,0.613 1.105,0.94 l 0.185,0.106 c 5.168,1.668 11.039,7.33 15.755,11.879 0.45,0.435 0.888,0.855 1.312,1.262 -2.223,-1.469 -4.718,-3.208 -7.167,-4.915 -4.58,-3.193 -8.542,-5.956 -10.259,-6.644 -0.181,-0.133 -0.512,-0.435 -0.923,-0.809 -1.267,-1.15 -3.616,-3.289 -6.737,-5.137 -5.001,-5.91 -13.251,-10.071 -21.078,-10.61 -13.137,0 -26.855,15.611 -34.226,23.999 l -0.17,0.194 c -8.418,10.896 -8.672,13.097 -8.089,15.428 l 0.155,0.619 0.564,-0.298 c 3.898,-2.064 7.445,-1.729 14.511,-1.06 l 1.23,0.115 c 7.553,0.4 12.286,-2.727 16.461,-5.477 1.31,-0.861 2.548,-1.677 3.827,-2.348 4.179,-2.572 12.049,-6.988 17.743,-7.676 21.621,-0.248 31.452,10.962 35.65,15.737 0.102,0.115 0.2,0.228 0.294,0.335 -2.925,-0.452 -8.379,-1.555 -14.1,-2.709 -8.013,-1.618 -17.094,-3.451 -21.044,-3.86 -7.27,-0.812 -18.649,9.472 -22.713,15.208 l -0.059,0.111 c -4.173,10.955 1.384,16.236 6.91,20.321 8.656,6.758 19.923,-1.486 25.977,-5.917 1.353,-0.988 2.521,-1.845 3.381,-2.326 1.733,-1.301 6.127,-5.295 10.345,-11.095 3.266,-4.196 9.71,-4.988 12.971,-4.83 0.211,0.813 0.75,3.237 1.135,8.042 0.173,4.686 -2.271,9.66 -4.428,14.051 -0.877,1.785 -1.707,3.474 -2.296,5.022 -2.282,6.847 2.959,15.185 5.343,18.482 5.584,6.555 6.876,11.696 7.883,17.223 1.082,11.468 -1.042,17.044 -3.095,22.438 -0.298,0.781 -0.594,1.559 -0.849,2.281 -1.397,2.642 -1.322,7.47 -1.248,12.139 0.049,3.098 0.095,6.022 -0.284,7.938 -0.865,2.595 -1.39,5.355 -1.604,8.077 l -0.27,-0.278 c -0.345,0.335 -8.434,8.285 -6.637,15.73 1.201,4.804 2.224,10.972 1.515,13.947 -1.485,2.73 -2.292,4.839 -2.027,7.48 l 0.995,-0.1 c -0.242,-2.416 0.496,-4.312 1.941,-6.961 l 0.046,-0.118 c 0.783,-3.131 -0.261,-9.539 -1.499,-14.488 -1.418,-5.879 4.15,-12.415 5.863,-14.254 -0.164,3.247 0.141,6.399 0.952,9.091 5.607,11.457 5.459,15.05 4.972,26.955 l -0.026,0.561 c -0.413,9.704 2.364,15.19 5.587,21.525 0.064,0.216 0.117,0.425 0.185,0.645 l 0.122,-0.038 c 0.617,1.215 1.247,2.462 1.871,3.786 1.719,12.039 2.231,18.332 2.236,18.395 l 0.997,-0.08 c -0.005,-0.063 -0.521,-6.405 -2.253,-18.53 l -0.042,-0.143 c -0.73,-1.551 -1.468,-3.001 -2.182,-4.404 -4.044,-13.639 -2.117,-23.352 -1.271,-27.633 0,-1.062 -0.178,-2.7 -0.42,-4.461 1.3,0.863 4.421,3.354 4.427,7.379 -0.734,4.406 -1.316,7.896 1.792,11.087 0.098,0.432 0.137,1.102 0.182,1.866 0.146,2.489 0.346,5.897 2.767,7.311 l 0.504,-0.862 c -1.958,-1.144 -2.14,-4.242 -2.272,-6.506 -0.053,-0.898 -0.099,-1.675 -0.249,-2.2 l -0.036,-0.124 -0.092,-0.092 c -2.854,-2.854 -2.332,-5.983 -1.604,-10.396 0,-5.736 -5.292,-8.575 -5.518,-8.693 l -0.061,0.116 c -0.264,-1.79 -0.568,-3.605 -0.801,-4.999 l -0.126,-0.756 -0.029,-0.104 c -0.155,-0.388 -0.354,-1.218 -0.586,-2.179 -0.489,-2.031 -1.16,-4.816 -2.205,-6.9 -1.209,-1.937 -2.657,-7.055 -2.176,-10.187 0.068,-0.681 0.294,-1.824 0.58,-3.272 0.738,-3.739 1.854,-9.39 1.671,-14.313 -0.479,-6.713 0.938,-9.968 3.285,-15.361 l 0.198,-0.466 c 0.599,-2.098 0.884,-5.122 1.01,-8.438 1.368,0.813 5.509,3.891 5.51,11.282 -0.252,7.319 -0.264,10.68 2.109,13.58 l 0.331,0.408 c 1.888,2.326 4.238,5.222 3.313,14.479 l 0.995,0.1 c 0.967,-9.668 -1.527,-12.74 -3.531,-15.209 l -0.329,-0.407 c -2.148,-2.625 -2.131,-5.856 -1.887,-12.934 0,-9.086 -5.77,-12.09 -6.473,-12.422 0.089,-3.238 0.047,-6.681 0.009,-9.774 -0.019,-1.475 -0.036,-2.851 -0.037,-4.082 -0.304,-5.317 -2.812,-8.782 -5.467,-12.45 -1.775,-2.452 -3.611,-4.988 -4.821,-8.215 -3.647,-8.713 -1.083,-12.994 1.179,-16.772 0.463,-0.774 0.902,-1.506 1.282,-2.261 0.091,-0.114 0.154,-0.255 0.236,-0.378 2.238,5.646 3.451,10.651 3.591,14.854 0,5.256 4.951,9.373 5.943,10.146 l 0.614,-0.789 c -0.928,-0.723 -5.557,-4.564 -5.558,-9.372 -0.147,-4.437 -1.431,-9.688 -3.815,-15.606 -0.073,-0.183 -0.124,-0.309 -0.162,-0.408 1.062,-2.675 0.824,-6.492 0.591,-9.951 -0.041,-0.613 -0.082,-1.215 -0.115,-1.723 0.122,-1.34 0.361,-2.354 0.614,-3.431 0.197,-0.837 0.399,-1.697 0.539,-2.715 1.884,1.55 4.305,5.17 7.369,11.012 3.086,18.73 6.212,23.027 10.616,27.432 15.18,16.144 25.784,10.168 29.776,7.917 0.212,-0.118 0.404,-0.228 0.575,-0.318 l 0.223,-0.12 0.036,-0.25 c 0.357,-2.503 0.704,-9.416 -3.775,-19.49 -3.365,-9.319 -19.888,-13.132 -26.042,-14.547 -4.736,-1.805 -13.012,-12.438 -15.934,-16.494 2.829,0.482 5.749,4.054 8.357,7.242 1.953,2.388 3.64,4.449 5.163,5.159 10.507,5.641 19.463,-0.937 21.116,-2.865 l 0.244,-0.284 -0.205,-0.313 c -0.038,-0.059 -3.816,-5.833 -7.782,-10.293 -3.802,-4.646 -17.197,-3.533 -24.394,-2.934 -1.144,0.096 -2.123,0.178 -2.868,0.219 0.066,-0.113 0.14,-0.227 0.208,-0.34 1.083,-0.689 16.139,-10.131 29.612,-9.883 8.248,0.893 16.166,5.1 24.22,12.875 4.64,4.159 14.275,11.281 25.821,11.281 5.834,0 12.157,-1.818 18.568,-6.757 l 0.649,-0.5 -0.742,-0.353 z m -46.022,-40.552 c 7.696,0.906 20.15,3.445 23.674,4.941 -2.756,1.271 -4.992,3.219 -5.802,4.568 -0.279,0.502 -0.529,1.121 -0.794,1.776 -0.931,2.302 -1.979,4.891 -4.943,5.187 -5.248,-2.553 -11.846,-4.625 -19.642,-4.854 2.066,-0.92 8.452,-3.417 15.257,-2.619 l 0.117,-0.992 c -8.558,-1.008 -16.216,2.887 -16.538,3.053 l 0.281,0.545 c -5.728,-0.065 -12.083,0.869 -19.009,3.326 4.322,-4.126 16.287,-14.536 27.399,-14.931 z m -59.994,-1.971 c -2.325,-4.648 -4.492,-10.803 -5.07,-12.483 l 3.007,-1.104 c 0.762,1.953 5.776,14.789 7.142,17.972 1.242,3.728 1.466,10.442 1.227,13.794 -0.239,2.513 -0.772,5.033 -1.256,7.049 -0.421,-3.561 -1.721,-6.318 -2.003,-6.884 -0.114,-1.847 -0.147,-3.349 -0.177,-4.673 -0.095,-4.292 -0.152,-6.882 -2.87,-13.671 z m -5.401,26.609 c -4.76,-4.591 -10.677,-10.298 -16.039,-12.075 -0.346,-0.313 -0.704,-0.606 -1.065,-0.904 -2.713,-2.231 -5.519,-4.54 -4.451,-16.311 0.751,-3.943 1.653,-7.639 2.045,-9.193 6.03,5.16 16.464,14.91 16.464,18.101 0,4.043 1.916,11.166 4.841,13.394 -0.565,4.765 0.234,7.744 1.407,10.026 -0.966,-0.883 -2.04,-1.918 -3.202,-3.038 z m -32.974,-3.634 c -0.209,0 -0.42,0.001 -0.631,0.004 -5.938,0.712 -13.953,5.205 -18.172,7.803 -1.293,0.678 -2.551,1.506 -3.882,2.383 -4.047,2.662 -8.65,5.677 -15.839,5.313 l -1.208,-0.114 c -6.922,-0.655 -10.558,-1.001 -14.486,0.875 -0.234,-1.551 0.387,-4.05 8.023,-13.933 l 0.15,-0.171 c 7.266,-8.269 20.79,-23.659 33.44,-23.66 7.564,0.521 15.572,4.573 20.401,10.321 l 0.129,0.109 c 3.068,1.807 5.308,3.842 6.645,5.059 0.511,0.466 0.849,0.772 1.081,0.928 l 0.098,0.051 c 1.571,0.604 5.716,3.494 10.104,6.555 4.483,3.125 9.113,6.352 12.017,7.879 0.048,0.069 0.096,0.142 0.144,0.209 0.433,0.627 0.842,1.219 1.196,1.83 0.466,1.909 0.342,3.401 -0.37,4.437 -0.622,0.901 -1.555,1.226 -1.986,1.331 -0.287,-0.301 -0.616,-0.67 -1.019,-1.129 -3.883,-4.419 -14.131,-16.08 -35.835,-16.08 z m 49.005,13.997 c 6.514,-0.54 20.068,-1.668 23.55,2.585 3.389,3.813 6.637,8.59 7.489,9.866 -2.066,2.07 -10.16,7.441 -19.654,2.349 -1.341,-0.626 -3.039,-2.701 -4.836,-4.898 -3.059,-3.738 -6.523,-7.967 -10.171,-7.646 l -0.854,0.078 0.488,0.704 c 0.105,0.151 10.82,15.335 17.049,17.703 6.075,1.4 22.212,5.126 25.405,13.966 4.246,9.553 4.074,16.125 3.745,18.729 -0.115,0.064 -0.237,0.134 -0.367,0.206 -3.807,2.146 -13.916,7.841 -28.568,-7.741 -4.283,-4.283 -7.319,-8.477 -10.36,-26.979 l -0.05,-0.151 c -3.588,-6.85 -6.269,-10.646 -8.436,-11.945 l -0.683,-0.41 -0.072,0.794 c -0.122,1.34 -0.361,2.354 -0.614,3.431 -0.25,1.063 -0.508,2.159 -0.637,3.643 0.032,0.584 0.073,1.188 0.115,1.806 0.272,4.035 0.581,8.609 -1.253,10.851 l -0.06,0.094 c -0.369,0.737 -0.807,1.469 -1.27,2.243 -2.266,3.783 -5.086,8.493 -1.251,17.655 1.25,3.334 3.126,5.925 4.94,8.432 2.567,3.547 4.991,6.896 5.278,11.894 0,1.207 0.017,2.587 0.036,4.066 0.078,6.263 0.185,14.84 -0.994,18.983 l -0.175,0.403 c -2.408,5.534 -3.862,8.874 -3.366,15.814 0.177,4.789 -0.925,10.37 -1.654,14.063 -0.292,1.477 -0.521,2.64 -0.591,3.342 -0.529,3.439 1.046,8.803 2.297,10.8 0.971,1.941 1.625,4.661 2.104,6.647 0.241,1.001 0.433,1.8 0.609,2.263 l 0.118,0.705 c 0.511,3.048 1.367,8.149 1.376,10.313 -0.752,3.762 -2.375,11.911 0.093,23.326 -2.142,-4.652 -3.661,-9.493 -3.354,-16.709 l 0.023,-0.555 c 0.482,-11.782 0.645,-15.751 -5.043,-27.358 -1.481,-4.938 -1.196,-11.624 0.761,-17.51 0.416,-2.08 0.369,-5.058 0.32,-8.21 -0.072,-4.543 -0.146,-9.24 1.16,-11.719 0.282,-0.782 0.576,-1.554 0.872,-2.33 2.094,-5.499 4.26,-11.186 3.15,-22.929 -1.039,-5.712 -2.366,-10.99 -8.086,-17.703 -2.269,-3.142 -7.317,-11.142 -5.188,-17.529 0.566,-1.485 1.385,-3.152 2.252,-4.918 2.209,-4.496 4.713,-9.592 4.529,-14.55 -0.499,-6.238 -1.243,-8.522 -1.274,-8.618 l -0.105,-0.313 -0.331,-0.025 c -3.314,-0.262 -10.537,0.502 -14.193,5.204 -4.157,5.716 -8.455,9.625 -10.088,10.856 -0.857,0.477 -1.992,1.308 -3.429,2.357 -6.25,4.573 -16.712,12.227 -24.781,5.927 -5.471,-4.043 -10.486,-8.85 -6.603,-19.109 4.522,-6.352 15.452,-15.437 21.754,-14.74 3.906,0.403 12.962,2.233 20.953,3.847 6.806,1.374 13.234,2.672 15.548,2.903 l 1.394,0.14 -0.384,-0.385 c 0.612,-0.231 1.411,-0.677 2.014,-1.545 0.899,-1.294 1.071,-3.087 0.511,-5.328 l -0.051,-0.127 c -0.383,-0.67 -0.817,-1.297 -1.276,-1.961 -1.774,-2.564 -3.761,-5.451 -3.125,-11.798 l 0.168,0.099 0.048,-0.813 c 0.129,-2.191 0.259,-3.721 0.353,-4.68 1.644,2.071 3.788,3.65 4.256,3.984 0.351,0.719 2.501,5.378 1.914,10.411 -0.013,0.086 -0.021,0.157 -0.021,0.212 -0.241,2.891 -0.722,4.37 -0.727,4.385 l 0.095,0.049 c -0.541,2.915 -0.377,5.045 -0.368,5.15 l 0.997,-0.083 c -0.002,-0.024 -0.161,-2.123 0.368,-4.946 0.323,-0.437 0.649,-0.871 0.98,-1.311 3.151,-4.176 6.722,-8.909 7.404,-16.188 l 0.046,-1.789 c 0.17,-7.031 0.233,-9.662 6.764,-17.334 3.002,-2.369 9.048,-4.736 12.591,-3.021 1.89,0.916 2.849,2.895 2.853,5.813 -0.567,4.254 -4.093,9.189 -6.121,11.728 -0.782,0.842 -2.136,2.032 -3.85,3.54 -3.298,2.9 -8.016,7.058 -12.283,12.015 -0.181,0.128 -0.36,0.249 -0.542,0.38 l 0.101,0.141 c -2.234,2.646 -4.328,5.505 -5.998,8.522 l -0.411,0.742 h 0.848 c 0.792,-0.002 2.132,-0.113 3.829,-0.255 z m 51.77,1.144 c -8.207,-7.924 -16.316,-12.222 -24.838,-13.141 -11.456,-0.213 -23.931,6.346 -28.485,8.994 1.341,-2.021 2.839,-3.957 4.409,-5.786 25.632,-18.063 45.674,-14.876 58.068,-8.908 v 0.2 c 0.128,0 0.246,-0.014 0.369,-0.02 7.694,3.785 12.362,8.59 13.484,9.824 6.424,8.352 13.371,11.261 17.968,13.187 0.517,0.216 1.002,0.42 1.454,0.617 -18.264,13.445 -35.727,1.04 -42.429,-4.967 z" />
    <path
       inkscape:connector-curvature="0"
       id="path667"
       d="m 539.53848,480.04516 0.376,0.926 c 0.169,-0.068 17.244,-6.637 41.482,14.663 l 0.66,-0.752 c -24.697,-21.703 -42.342,-14.909 -42.518,-14.837 z" />
    <path
       inkscape:connector-curvature="0"
       id="path669-1"
       d="m 461.78548,431.02416 0.883,0.471 c 0.098,-0.186 9.998,-18.461 23.263,-17.237 l 0.091,-0.996 c -13.938,-1.262 -23.822,16.982 -24.237,17.762 z" />
    <path
       inkscape:connector-curvature="0"
       id="path671-2"
       d="m 520.02948,321.23216 0.895,-0.447 c -6.55,-13.101 -15.527,-13.993 -15.906,-14.024 l -0.084,0.996 c 0.087,0.007 8.813,0.912 15.095,13.475 z" />
    <path
       inkscape:connector-curvature="0"
       id="path673-2"
       d="m 440.42148,254.59516 c 4.066,0 8.81,-0.504 12.273,-0.873 1.702,-0.181 3.046,-0.324 3.68,-0.335 0.358,-0.006 0.713,-0.01 1.066,-0.01 3.319,0 5.722,0.342 8.035,1.144 0.654,0.227 1.441,0.587 2.275,0.969 1.963,0.898 4.188,1.917 6.125,1.917 0.416,0 0.808,-0.048 1.165,-0.143 0.563,-0.149 0.961,-0.371 1.226,-0.648 l 0.016,0.139 c 1.602,-0.179 4.629,1.019 9.891,7.739 0.557,0.712 1.363,1.519 2.216,2.374 2.137,2.141 4.797,4.806 4.589,7.094 l 0.489,0.044 c -1.678,15.016 -2.791,39.366 -2.989,59.709 -2.158,25.895 -2.489,61.813 -1.611,73.771 -13.213,-12.817 -17.774,-27.357 -21.456,-39.094 -0.325,-1.036 -0.643,-2.05 -0.954,-3.021 -5.938,-21.242 -4.946,-44.027 -4.758,-47.404 11.259,-0.881 14.738,6.664 17.805,13.322 0.342,0.743 0.68,1.476 1.021,2.184 l 0.808,1.673 0.141,-1.853 c 0.535,-7.025 -1.088,-12.297 -4.824,-15.67 -5.417,-4.891 -13.483,-4.235 -15.697,-3.945 l -0.211,-5.263 c 0.149,0.02 0.301,0.032 0.456,0.032 0.557,0 1.151,-0.131 1.759,-0.395 1.787,-0.775 3.258,-2.491 3.498,-4.079 0.143,-0.949 -0.17,-1.97 -0.797,-2.602 -0.494,-0.497 -1.146,-0.72 -1.838,-0.616 -0.411,0.06 -0.769,0.267 -1.091,0.545 0.172,-0.358 0.303,-0.719 0.345,-1.066 0.126,-1.033 -0.403,-1.826 -1.453,-2.176 -0.281,-0.094 -0.545,-0.151 -0.799,-0.188 0.051,-0.376 0.116,-0.771 0.18,-1.16 0.143,-0.863 0.275,-1.682 0.26,-2.314 0.555,-0.251 0.967,-0.579 1.216,-0.991 0.409,-0.677 0.379,-1.514 -0.09,-2.486 -0.716,-1.485 -2.024,-1.677 -3.001,-1.21 -0.033,0.016 -0.063,0.039 -0.095,0.056 -0.306,-0.663 -0.829,-1.113 -1.503,-1.244 -1.61,-0.313 -2.052,0.608 -2.167,1.02 -0.363,1.304 0.767,3.533 2.046,4.124 -0.002,0.472 -0.129,1.055 -0.274,1.673 -0.23,0.978 -0.482,2.064 -0.285,3.063 -0.254,-0.097 -0.575,-0.156 -1.013,-0.163 -1.184,-0.021 -2.017,0.496 -2.442,1.447 -0.329,0.734 -0.342,1.643 -0.092,2.473 -0.114,0.057 -0.227,0.107 -0.344,0.182 -1.491,0.954 -1.881,2.288 -1.071,3.659 0.383,0.648 0.8,0.971 1.25,1.133 -0.091,0.166 -0.156,0.341 -0.161,0.532 -0.01,0.393 0.12,0.736 0.376,0.992 0.603,0.604 1.741,0.58 2.651,0.558 0.063,-10e-4 0.131,-0.002 0.199,-0.004 l -0.175,2.974 c -3.256,-2.83 -6.426,-3.957 -9.439,-3.351 -5.251,1.057 -8.449,7.152 -9.581,9.723 l 0.811,0.555 c 8.985,-8.983 13.651,-6.184 16.738,-4.331 0.177,0.106 0.348,0.209 0.514,0.306 -1.292,1.073 -4.438,3.869 -6.998,7.612 -2.793,3.557 -3.62,7.719 -2.856,14.31 0,6.08 2.992,8.578 5.243,9.929 l 0.757,0.454 v -0.883 c 0,-0.042 0.009,-4.216 0.697,-6.776 1.03,-2.06 1.546,-3.093 1.803,-7.974 0,-4.139 1.458,-8.237 2.825,-11.179 0.108,2.682 0.334,8.482 0.676,18.214 1.174,16.673 5.687,29.736 8.673,38.38 l 0.592,1.713 c 3.875,14.603 10.92,23.793 15.992,28.845 -16.306,-3.16 -28.339,8.748 -31.653,13.72 -1.474,1.895 -6.22,14.022 -9.055,21.27 -0.624,1.596 -1.149,2.938 -1.515,3.852 l -0.25,0.623 0.669,0.062 c 1.124,0.101 2.216,0.149 3.28,0.149 17.928,0 27.551,-13.746 32.857,-21.326 0.679,-0.969 1.278,-1.824 1.78,-2.488 3.796,-4.242 8.189,-5.422 10.104,-5.178 -0.529,10.494 3.412,21.533 4.358,24.016 l -4.722,1.35 0.274,0.961 14,-4 -0.274,-0.961 -8.313,2.375 c -0.872,-2.269 -4.96,-13.554 -4.3,-24.113 l 0.025,-0.401 -0.387,-0.11 c -2.149,-0.615 -7.289,0.68 -11.535,5.429 -0.534,0.702 -1.141,1.569 -1.829,2.552 -5.442,7.773 -15.52,22.166 -34.559,20.807 0.34,-0.858 0.772,-1.965 1.267,-3.229 2.631,-6.725 7.528,-19.239 8.934,-21.051 3.318,-4.979 15.532,-17.024 31.966,-13.042 l 0.036,-0.146 c 2.803,2.612 4.773,3.809 4.828,3.842 l 0.508,-0.861 c -0.151,-0.09 -15.155,-9.202 -21.531,-33.231 l -0.603,-1.749 c -2.969,-8.594 -7.457,-21.582 -8.621,-38.106 -0.494,-14.089 -0.748,-19.947 -0.75,-20.004 h -0.011 c 0.794,-1.497 1.408,-2.423 1.426,-2.449 l -0.828,-0.561 c -0.218,0.321 -5.336,7.97 -5.335,16.004 -0.244,4.646 -0.73,5.617 -1.733,7.645 -0.555,2.033 -0.708,4.808 -0.751,6.225 -1.901,-1.327 -4.017,-3.681 -4.02,-8.65 -0.743,-6.441 -10e-4,-10.264 2.666,-13.661 3.164,-4.624 7.349,-7.853 7.391,-7.885 l 0.636,-0.486 -0.716,-0.358 c -0.344,-0.172 -0.714,-0.395 -1.118,-0.637 -2.914,-1.749 -7.644,-4.591 -15.889,2.547 1.532,-2.66 4.085,-5.949 7.604,-6.657 2.917,-0.585 6.055,0.694 9.335,3.807 l 0.78,0.74 0.293,-4.977 2.297,-0.707 0.247,6.174 0.565,-0.101 c 0.096,-0.016 9.596,-1.642 15.42,3.622 3.133,2.832 4.672,7.147 4.585,12.844 -0.052,-0.114 -0.105,-0.228 -0.158,-0.343 -3.244,-7.042 -6.92,-15.024 -19.233,-13.863 l -0.422,0.04 -0.03,0.423 c -0.018,0.248 -1.682,25.104 4.772,48.188 0.316,0.987 0.633,1.999 0.958,3.033 3.803,12.125 8.536,27.216 22.677,40.43 l 0.967,0.904 -0.128,-1.318 c -1.01,-10.352 -0.739,-48.03 1.502,-74.947 0.263,-26.838 2.105,-60.594 4.743,-70.671 0.654,-3.854 1.633,-9.047 2.744,-14.648 l 0.245,-0.067 c -0.043,-0.157 -0.095,-0.308 -0.14,-0.463 2.673,-13.44 6.075,-29.057 7.631,-34.244 1.632,-4.809 8.699,-25.319 16.215,-42.386 0.515,-0.475 0.836,-1.296 1.032,-2.313 1.664,-3.686 3.339,-7.166 4.971,-10.226 l 0.055,-0.173 c 0.413,-3.302 0.525,-6.399 0.518,-8.911 l 0.683,0.139 c -0.415,1.028 -0.65,1.989 -0.431,2.835 l 0.968,-0.251 c -0.256,-0.989 0.5,-2.535 1.232,-4.031 0.135,-0.276 0.27,-0.554 0.401,-0.832 -0.275,1.913 -0.803,3.839 -1.376,5.535 l -0.233,0.042 c 0.033,0.182 0.025,0.411 -0.011,0.671 -0.43,1.202 -0.862,2.256 -1.205,3.039 l 0.268,0.117 c -0.294,0.853 -0.577,1.709 -0.696,2.43 l 0.522,0.165 c -3.216,7.303 -9.39,23.168 -11.093,28.038 -3.021,6.881 -6.97,22.404 -9.854,33.738 -1.433,5.633 -2.671,10.498 -3.42,12.832 -2.177,7.983 -6.007,25.724 -7.013,39.315 -0.405,3.04 -0.756,6.921 -1.053,10.961 -0.056,0.146 -0.119,0.289 -0.172,0.436 l 0.136,0.049 c -0.768,10.639 -1.16,22.192 -1.165,22.354 l -0.04,1.195 0.879,-0.812 c 1.839,-1.698 8.709,-4.412 15.856,-3.77 5.669,0.507 10.179,2.931 13.393,7.187 4.607,6.681 6.892,12.012 7.412,24.238 l 0.042,0.182 c 0.636,1.432 0.801,2.915 0.368,3.307 -0.275,0.249 -0.989,0.083 -1.861,-0.41 -1.136,-0.853 -2.881,-1.907 -4.901,-3.128 -5.067,-3.063 -12.008,-7.259 -14.469,-11.477 -0.452,-0.763 -0.927,-1.583 -1.418,-2.433 -3.346,-5.786 -7.138,-12.343 -10.502,-12.785 -0.874,-0.115 -1.671,0.177 -2.395,0.902 -0.621,0.746 -1.269,0.721 -2.166,0.68 -0.566,-0.025 -1.207,-0.052 -1.858,0.166 l 0.316,0.948 c 0.35,-0.116 0.711,-0.135 1.086,-0.128 -0.104,2.058 -1.516,29.87 -1.994,40.636 -0.228,6.143 -0.196,17.184 -0.166,27.862 0.037,12.882 0.075,26.203 -0.334,31.382 -0.493,10.604 1.196,25.013 3.543,30.229 l 0.912,-0.41 c -2.296,-5.104 -3.944,-19.293 -3.458,-29.756 0.411,-5.205 0.373,-18.546 0.336,-31.449 -0.03,-10.668 -0.062,-21.699 0.165,-27.818 0.48,-10.813 1.903,-38.838 1.995,-40.648 0.796,-10e-4 1.633,-0.146 2.359,-1.02 0.467,-0.467 0.965,-0.656 1.527,-0.585 2.875,0.378 6.858,7.265 9.766,12.294 0.493,0.853 0.97,1.677 1.421,2.439 2.588,4.436 9.654,8.707 14.814,11.826 1.997,1.207 3.722,2.25 4.87,3.106 1.395,0.797 2.43,0.903 3.079,0.318 0.958,-0.866 0.56,-2.872 -0.085,-4.367 -0.484,-11.177 -2.262,-16.953 -7.597,-24.687 -3.355,-4.444 -8.236,-7.071 -14.114,-7.598 -6.426,-0.577 -12.859,1.453 -15.747,3.359 0.117,-3.138 0.502,-12.727 1.149,-21.588 1.198,-3.058 3.143,-5.928 5.539,-8.128 0.591,-0.542 1.461,-1.112 2.383,-1.715 1.732,-1.134 3.664,-2.411 4.436,-3.986 0.845,0.125 1.623,0.198 2.336,0.198 2.99,0 5.28,-1.1 7.425,-3.565 0.518,-0.596 1.012,-1.188 1.498,-1.771 1.935,-2.323 3.762,-4.517 6.535,-6.113 3.972,-2.287 8.175,-4.244 12.241,-6.136 2.209,-1.028 4.494,-2.092 6.723,-3.199 5.411,-2.688 7.981,-5.064 7.86,-7.264 -0.065,-1.188 -0.81,-1.869 -2.042,-1.869 -1.539,0 -3.616,1 -4.857,1.598 -0.187,0.09 -0.35,0.168 -0.482,0.229 l -0.434,0.199 c -13.648,6.257 -29.116,13.349 -37.241,26.59 l -0.896,0.896 0.299,0.049 c -0.749,1.214 -2.434,2.319 -3.945,3.308 -0.958,0.626 -1.861,1.218 -2.513,1.816 -1.871,1.718 -3.437,3.76 -4.641,6.003 0.248,-3.032 0.528,-5.879 0.84,-8.224 0.225,-3.03 0.59,-6.266 1.045,-9.552 l 0.096,0.077 c 0.758,-0.947 1.546,-2.174 2.381,-3.472 1.205,-1.875 2.45,-3.813 3.841,-5.325 0.854,-0.928 1.733,-1.85 2.614,-2.774 1.389,-1.458 2.812,-2.956 4.148,-4.49 3.604,-0.937 6.483,-3.458 9.056,-6.101 4.823,-4.954 10.046,-8.994 16.438,-12.715 1.344,-0.783 2.693,-1.593 4.043,-2.404 1.689,-1.015 3.436,-2.064 5.149,-3.042 l 0.65,-0.364 c 2.456,-1.363 7.027,-3.902 7,-6.591 l -0.004,-0.453 -0.452,-0.04 c -0.154,-0.014 -0.305,-0.005 -0.458,-0.012 l 0.002,-0.025 c -0.168,-0.017 -0.344,0.002 -0.517,0.012 -3.31,0.001 -6.476,1.427 -9.451,2.927 -5.329,2.687 -10.277,6.064 -15.062,9.331 -0.841,0.574 -1.682,1.148 -2.526,1.72 -3.327,2.252 -6.01,4.806 -8.445,8.038 -0.366,0.486 -0.767,0.988 -1.179,1.505 -1.524,1.91 -3.225,4.059 -3.949,6.343 -0.018,0.019 -0.037,0.037 -0.055,0.055 l -0.001,-0.001 c -0.004,0.005 -0.009,0.01 -0.013,0.016 -0.319,0.317 -0.631,0.624 -0.956,0.95 l 0.007,0.007 c -0.161,0.034 -0.319,0.076 -0.483,0.103 l 0.084,0.51 c -1.215,1.372 -2.497,2.72 -3.75,4.034 -0.885,0.929 -1.769,1.855 -2.626,2.788 -1.45,1.576 -2.776,3.64 -3.946,5.461 -0.473,0.736 -0.929,1.439 -1.37,2.084 1.602,-10.838 4.079,-21.909 5.666,-27.73 0.752,-2.341 1.994,-7.22 3.431,-12.869 0.125,-0.493 0.255,-1.003 0.385,-1.511 l 0.4,0.212 c 3.736,-7.049 8.467,-13.243 14.74,-19.264 0.033,-0.021 0.068,-0.036 0.1,-0.058 l -0.015,-0.022 c 0.881,-0.844 1.792,-1.685 2.735,-2.524 3.275,-2.913 6.912,-5.501 10.429,-8.005 3.818,-2.718 7.767,-5.528 11.286,-8.774 l 0.322,-0.292 c 1.424,-1.284 4.759,-4.29 4.773,-6.509 10e-4,-0.189 -0.028,-0.365 -0.072,-0.535 0.241,-0.311 0.474,-0.636 0.689,-0.993 l -0.857,-0.516 c -0.122,0.203 -0.252,0.39 -0.384,0.575 -0.005,-0.005 -0.009,-0.011 -0.014,-0.016 -1.841,-1.702 -6.198,0.305 -10.218,2.491 l -0.603,0.325 c -7.688,4.04 -14.032,9.843 -19.964,18.263 -4.797,6.81 -8.692,14.147 -12.185,21.1 2.639,-10.254 5.775,-21.884 8.268,-27.564 0.467,-1.335 1.268,-3.489 2.248,-6.06 l 0.043,0.07 c 0.921,-0.57 1.526,-1.894 2.11,-3.174 0.296,-0.648 0.576,-1.261 0.853,-1.661 0.546,-0.787 1.161,-1.55 1.756,-2.288 0.585,-0.726 1.19,-1.476 1.742,-2.263 0.354,-0.504 1.108,-1.35 1.981,-2.329 2.254,-2.527 3.837,-4.385 4.205,-5.604 0.978,-0.48 1.883,-1.55 2.838,-2.687 0.698,-0.832 1.42,-1.691 2.092,-2.18 0.93,-0.675 1.95,-1.288 2.937,-1.881 1.173,-0.705 2.386,-1.435 3.483,-2.285 4.358,-3.378 7.504,-7.577 10.11,-11.248 l -0.675,-0.712 c -1.385,0.876 -2.852,1.645 -4.271,2.387 -2.436,1.275 -4.954,2.594 -7.132,4.497 l -0.744,0.649 c -2.029,1.771 -4.128,3.602 -6.12,5.478 -1.119,1.054 -4.672,5.532 -3.447,7.712 -0.292,1.024 -2.772,3.807 -4.022,5.208 -0.894,1.002 -1.667,1.868 -2.053,2.42 -0.533,0.76 -1.127,1.497 -1.702,2.209 -0.606,0.752 -1.232,1.529 -1.799,2.346 -0.126,0.182 -0.248,0.397 -0.367,0.624 2.689,-6.902 5.914,-14.893 7.692,-18.751 0.028,-0.094 0.072,-0.213 0.113,-0.327 l 0.025,0.023 c 0.567,-0.611 1.106,-1.24 1.647,-1.87 1.103,-1.285 2.243,-2.615 3.623,-3.77 0.713,-0.597 1.502,-1.195 2.266,-1.774 1.082,-0.82 2.19,-1.668 3.164,-2.562 2.301,-1.267 7.451,-4.335 7.599,-6.489 0.026,-0.378 -0.076,-0.915 -0.708,-1.331 -0.41,-0.269 -1.106,-0.496 -2.089,-0.053 -2.399,1.081 -5.174,5.622 -5.363,6.938 l 0.09,0.013 c -0.046,0.044 -0.098,0.087 -0.145,0.131 -0.357,0.194 -0.678,0.362 -0.915,0.475 l 0.111,0.234 c -0.75,0.631 -1.556,1.247 -2.348,1.847 -0.772,0.586 -1.572,1.191 -2.303,1.804 -1.284,1.074 -2.347,2.269 -3.36,3.446 1.646,-3.415 4.184,-8.089 5.116,-9.593 2.071,0.081 4.319,-2.746 5.986,-4.855 0.334,-0.423 0.636,-0.805 0.894,-1.105 l 0.095,-0.11 0.021,-0.144 c 0.216,-1.517 -1.47,-2.755 -2.52,-3.37 l 0.052,-0.035 c 0.017,-0.011 0.025,-0.028 0.041,-0.04 l 0.146,0.058 c 0.046,-0.115 0.104,-0.233 0.154,-0.349 0.351,-0.408 0.511,-0.907 0.575,-1.295 0.058,-0.129 0.117,-0.257 0.172,-0.386 l 2.94,-2.287 -0.614,-0.789 -0.932,0.725 -0.669,0.223 c -0.338,0.113 -0.58,0.226 -0.764,0.328 l -0.076,-0.116 -0.113,-0.158 c 0.008,-0.021 0.01,-0.036 0.029,-0.065 l 0.277,-0.416 -2.062,-1.375 c -0.109,-0.426 -0.25,-0.844 -0.434,-1.21 l -0.739,-1.477 -0.883,7.067 c -0.545,-0.095 -1.022,0 -1.422,0.277 -0.753,0.522 -1.176,1.629 -1.333,3.581 -0.067,-0.044 -0.138,-0.083 -0.213,-0.116 -0.673,-0.294 -1.541,-0.056 -2.635,0.726 -0.887,0.591 -1.272,1.387 -1.47,2.182 l 0.007,-0.047 -0.027,-0.1 c -0.007,-0.026 -0.683,-2.559 -0.035,-4.867 1.644,-1.81 1.497,-3.201 1.258,-3.875 -0.318,-0.9 -1.148,-1.57 -2.116,-1.706 -0.786,-0.114 -1.51,0.159 -1.95,0.726 -1.944,1.521 -3.044,3.418 -3.272,5.64 -0.303,2.959 1.084,5.846 2.15,7.166 0.099,1.023 0.631,7.23 -0.253,14.395 -1.239,2.328 -2.503,4.897 -3.767,7.609 0.021,-0.758 0.019,-1.535 0.009,-2.296 l -0.006,-0.688 c -0.003,-1.483 0.024,-2.978 0.057,-4.475 0.266,-1.79 0.524,-3.627 0.635,-5.457 0.314,-5.166 0.312,-10.088 0.309,-15.3 v -1.697 l 10e-4,-0.275 c 0.013,-2.699 -0.127,-5.941 -1.333,-7.06 -0.332,-0.308 -0.736,-0.453 -1.171,-0.418 l -0.432,0.035 -0.028,0.432 c -0.285,4.44 0.125,8.949 0.523,13.31 0.167,1.834 0.34,3.731 0.456,5.577 0.206,3.291 0.131,6.699 0.059,9.995 -0.006,0.258 -0.012,0.516 -0.017,0.773 -0.027,0.183 -0.055,0.366 -0.082,0.548 -0.485,3.248 -0.988,6.606 -0.725,10.078 l 0.35,-0.026 c -5.303,11.807 -10.466,25.629 -13.78,34.896 -0.229,-2.53 -0.565,-5.065 -0.895,-7.537 -0.631,-4.726 -1.283,-9.612 -1.157,-14.404 0.022,-0.845 0.049,-1.676 0.076,-2.495 0.207,-6.404 0.386,-11.935 -1.666,-18.272 -0.954,-2.948 -1.699,-6.086 -2.415,-10.176 -0.074,-0.423 -0.145,-0.936 -0.223,-1.503 -0.413,-2.997 -0.979,-7.102 -3.175,-8.554 -0.817,-0.541 -1.557,-0.646 -2.197,-0.313 -1.406,0.728 -1.638,3.287 -1.671,4.354 -0.116,3.642 1.205,7.121 2.481,10.485 l 0.184,0.485 c 0.541,1.429 1.047,2.855 1.551,4.274 1.717,4.838 3.34,9.407 6.141,13.779 l 0.109,-0.07 c 0,0.096 0,0.193 0,0.289 -0.207,-0.015 -0.325,-0.163 -0.339,-0.199 0.072,0.26 0.211,0.376 0.339,0.425 -0.009,1.612 -0.062,3.256 -0.117,4.963 -0.027,0.821 -0.054,1.654 -0.076,2.501 -0.128,4.872 0.529,9.798 1.166,14.563 0.426,3.189 0.866,6.487 1.062,9.721 -1.166,3.296 -2.026,5.807 -2.476,7.133 -1.499,4.997 -4.691,19.566 -7.31,32.608 -1.151,-3.207 -2.727,-6.184 -4.385,-9.295 -0.518,-0.972 -1.039,-1.95 -1.548,-2.94 -0.893,-1.736 -1.925,-3.669 -3.108,-5.461 -0.029,-0.062 -0.059,-0.125 -0.088,-0.187 -1.276,-2.676 -2.482,-5.205 -3.087,-8.174 -1.165,-5.719 -4.637,-10.661 -7.994,-15.439 -1.098,-1.563 -2.233,-3.179 -3.242,-4.766 -0.089,-0.141 -9.163,-14.092 -13.817,-14.197 -0.412,-0.004 -0.789,0.101 -1.125,0.294 l -0.154,-0.169 c -0.234,0.213 -0.395,0.465 -0.497,0.747 -0.024,0.031 -0.053,0.053 -0.076,0.086 l 0.039,0.027 c -0.048,0.166 -0.083,0.338 -0.088,0.525 -0.061,2.226 3.2,5.534 5.581,7.95 0.738,0.749 1.375,1.396 1.711,1.813 3.387,4.208 6.254,8.539 8.612,12.22 2.84,4.437 5.355,8.802 7.65,12.859 0.73,1.292 1.78,2.357 2.794,3.388 0.708,0.72 1.441,1.464 2.041,2.266 0.301,0.402 0.585,0.829 0.869,1.256 0.417,0.876 0.838,1.763 1.242,2.683 l 0.309,-0.136 c 0.549,0.978 1.066,1.954 1.538,2.872 0.512,0.995 1.035,1.977 1.555,2.953 1.922,3.608 3.734,7.032 4.869,10.815 -1.134,5.71 -2.133,11.009 -2.797,14.918 -0.556,2.124 -1.077,5.306 -1.556,9.241 -0.761,-2.12 -2.837,-4.205 -4.59,-5.961 -0.831,-0.833 -1.617,-1.62 -2.137,-2.284 -4.211,-5.379 -7.679,-8.107 -10.341,-8.135 -0.087,-2.807 -10.49,-7.27 -10.596,-7.315 -2.904,-1.224 -5.858,-1.793 -9.297,-1.793 -2.698,0 -5.394,0.345 -8.248,0.709 l -1.693,0.214 c -0.503,0.062 -1.428,0.069 -2.499,0.078 -3.655,0.029 -9.18,0.074 -11.162,2.141 -0.531,0.554 -0.788,1.218 -0.762,1.973 0.063,1.941 2.625,2.845 8.058,2.845 z m 16.652,52.102 c -0.045,-0.051 -0.102,-0.092 -0.155,-0.135 0.028,-0.053 0.06,-0.104 0.085,-0.158 0.008,0.019 0.008,0.039 0.017,0.058 l 0.912,-0.409 c -0.162,-0.362 -0.096,-0.741 0.196,-1.126 0.354,-0.468 0.962,-0.813 1.564,-0.96 0.083,-0.014 0.165,-0.031 0.249,-0.056 0.194,-0.028 0.387,-0.041 0.563,-0.016 0.158,0.023 0.289,0.075 0.408,0.14 -0.039,0.074 -0.083,0.162 -0.12,0.226 l 0.591,0.338 c 0.166,0.464 -0.167,1.139 -0.896,1.807 -1.064,0.976 -2.314,1.364 -2.669,1.196 -0.026,-0.013 -0.107,-0.051 -0.092,-0.315 l -0.374,-0.021 c -0.048,-0.262 -0.173,-0.451 -0.279,-0.569 z m 4.303,-3.54 c -0.022,-0.012 -0.041,-0.026 -0.063,-0.037 0.059,-0.051 0.115,-0.108 0.173,-0.162 -0.037,0.067 -0.074,0.133 -0.11,0.199 z m 2.587,-1.41 c 0.378,-0.054 0.711,0.056 0.985,0.332 0.405,0.408 0.613,1.11 0.517,1.747 -0.188,1.25 -1.438,2.674 -2.906,3.311 -0.4,0.173 -1.054,0.377 -1.716,0.277 0.11,-0.089 0.218,-0.18 0.319,-0.272 1.059,-0.972 1.48,-2.029 1.156,-2.902 -0.05,-0.134 -0.122,-0.25 -0.192,-0.366 0.466,-0.886 1.114,-2.022 1.837,-2.127 z m -2.659,-2.737 c 0.598,0.199 0.845,0.55 0.777,1.105 -0.134,1.096 -1.348,2.423 -2.263,2.794 -0.553,0.075 -1.111,0.292 -1.597,0.608 -0.003,-0.105 -0.008,-0.209 -0.028,-0.313 0.089,-0.118 0.165,-0.254 0.225,-0.411 0.092,-0.081 0.166,-0.244 0.167,-0.573 0.051,-0.241 0.096,-0.494 0.14,-0.767 0.154,-0.975 0.33,-2.08 0.967,-2.468 0.011,-0.007 0.025,-0.008 0.037,-0.015 0,0.011 -0.001,0.024 -0.001,0.035 l 1,0.002 c 0,-0.044 0.005,-0.095 0.007,-0.141 0.176,0.032 0.363,0.076 0.569,0.144 z m -1.288,-2.46 c -0.075,0.451 -0.149,0.907 -0.205,1.345 -0.229,0.049 -0.447,0.12 -0.639,0.237 -0.586,0.356 -0.908,0.966 -1.112,1.631 -0.098,-0.398 -0.206,-0.726 -0.405,-0.977 l 0.536,-0.212 c -0.333,-0.843 -0.074,-1.943 0.176,-3.006 0.049,-0.208 0.096,-0.412 0.139,-0.613 0.658,-0.034 1.242,-0.109 1.75,-0.226 -0.028,0.509 -0.132,1.166 -0.24,1.821 z m -0.197,-5.937 c 0.25,-0.121 1.108,-0.418 1.669,0.743 0.313,0.648 0.358,1.165 0.134,1.535 -0.348,0.576 -1.37,0.945 -2.901,1.054 0,-0.01 0.001,-0.021 0.001,-0.032 l 0.003,-0.148 h -0.05 c 0,-0.004 0,-0.007 0,-0.011 0.651,-0.638 0.957,-1.718 0.915,-2.693 -0.004,-0.098 -0.019,-0.188 -0.03,-0.283 0.082,-0.064 0.167,-0.121 0.259,-0.165 z m -3.233,-0.803 c 0.029,-0.104 0.098,-0.353 0.589,-0.353 0.116,0 0.256,0.014 0.424,0.046 0.526,0.103 0.772,0.55 0.889,0.959 -0.404,0.556 -0.556,1.286 -0.214,2.008 l 0.085,-0.04 c -0.019,0.045 -0.037,0.09 -0.058,0.132 l -0.267,0.159 c -0.803,-0.415 -1.67,-2.111 -1.448,-2.911 z m -2.019,10.284 c 0.26,-0.58 0.775,-0.891 1.514,-0.856 0.826,0.013 0.836,0.056 1.011,0.777 0.042,0.174 0.09,0.369 0.154,0.584 0.083,0.277 0.271,1.157 0.329,1.566 -0.053,0.222 -0.113,0.407 -0.183,0.47 l 0.1,0.111 -0.421,0.304 c 0.156,0.217 0.204,0.518 0.125,0.785 -0.005,0.017 -0.015,0.039 -0.022,0.058 -0.12,-0.415 -0.304,-0.8 -0.551,-1.118 -0.455,-0.584 -1.193,-1.018 -2.103,-0.916 -0.179,-0.602 -0.178,-1.261 0.047,-1.765 z m -1.558,5.397 c -0.194,-0.328 -0.784,-1.327 0.749,-2.307 0.075,-0.048 0.146,-0.065 0.219,-0.104 0.114,0.184 0.237,0.36 0.382,0.517 l 0.735,-0.678 c -0.007,-0.007 -0.012,-0.017 -0.019,-0.024 0.283,0.07 0.543,0.219 0.758,0.495 0.551,0.708 0.685,1.914 0.156,2.798 -0.457,-0.069 -0.955,-0.029 -1.393,0.097 -0.795,0.02 -1.152,-0.057 -1.587,-0.794 z m 3.233,2.724 c -0.647,0.016 -1.621,0.037 -1.921,-0.264 -0.043,-0.044 -0.087,-0.109 -0.083,-0.262 0.003,-0.133 0.204,-0.295 0.499,-0.404 0.008,-0.003 0.017,-0.003 0.025,-0.006 0.072,-0.002 0.143,-0.004 0.216,-0.006 0.159,-0.006 0.328,-0.012 0.507,-0.015 l -10e-4,-0.098 c 0.359,-0.007 0.667,0.059 0.806,0.181 l 0.03,0.032 c 0.003,-0.003 0.005,-0.007 0.008,-0.01 h 10e-4 c 0.069,0.077 0.053,0.219 -0.049,0.42 l 0.656,0.329 c 0.033,0.049 0.071,0.081 0.107,0.121 -0.228,-0.02 -0.484,-0.026 -0.801,-0.018 z m 91.497,-64.2 0.434,-0.199 c 0.136,-0.063 0.305,-0.144 0.499,-0.237 1.088,-0.524 3.113,-1.499 4.424,-1.499 0.715,0 1.007,0.259 1.044,0.923 0.065,1.191 -1.149,3.254 -7.307,6.313 -2.217,1.102 -4.496,2.162 -6.699,3.188 -4.085,1.901 -8.309,3.867 -12.318,6.176 -2.928,1.686 -4.811,3.946 -6.804,6.339 -0.481,0.578 -0.97,1.165 -1.484,1.755 -1.964,2.258 -3.959,3.222 -6.67,3.222 -0.535,0 -1.102,-0.037 -1.717,-0.113 8.022,-12.766 23.195,-19.723 36.598,-25.868 z m 0.463,-21.507 -0.661,0.37 c -1.723,0.983 -3.474,2.036 -5.168,3.053 -1.346,0.809 -2.691,1.617 -4.031,2.397 -6.473,3.769 -11.764,7.862 -16.652,12.882 -2.073,2.129 -4.34,4.183 -7.01,5.308 4.975,-4.933 9.316,-8.835 14.677,-12.487 2.69,-1.832 5.346,-3.758 7.914,-5.621 3.073,-2.229 6.25,-4.534 9.481,-6.672 0.516,-0.341 1.114,-0.8 1.747,-1.286 1.918,-1.472 4.295,-3.281 6.062,-3.192 0.021,0 0.042,0 0.064,10e-4 -0.542,1.981 -4.464,4.159 -6.423,5.247 z m -29.825,17.908 c 0.418,-0.524 0.825,-1.034 1.196,-1.527 2.366,-3.141 4.974,-5.623 8.207,-7.811 0.845,-0.572 1.688,-1.147 2.53,-1.722 4.758,-3.248 9.678,-6.606 14.948,-9.264 1.604,-0.808 3.264,-1.591 4.957,-2.132 -0.81,0.542 -1.599,1.142 -2.324,1.699 -0.619,0.475 -1.204,0.924 -1.69,1.246 -3.249,2.149 -6.435,4.461 -9.516,6.696 -2.563,1.859 -5.212,3.781 -7.889,5.604 -4.816,3.28 -8.809,6.755 -13.154,10.972 0.783,-1.315 1.796,-2.585 2.735,-3.761 z m 30.968,-59.856 -0.33,0.299 c -3.474,3.203 -7.396,5.995 -11.188,8.695 -3.539,2.519 -7.198,5.124 -10.513,8.073 -0.943,0.839 -1.844,1.681 -2.726,2.524 -0.578,0.353 -1.252,0.44 -1.842,0.23 0,-0.045 0.011,-0.098 0.012,-0.144 0.908,-0.631 1.534,-1.488 2.127,-2.333 0.304,-0.433 0.618,-0.88 0.964,-1.279 1.317,-1.521 2.781,-2.759 4.34,-4.077 0.829,-0.701 1.684,-1.379 2.542,-2.059 1.067,-0.845 2.17,-1.72 3.219,-2.638 3.102,-2.717 6.597,-4.935 9.978,-7.079 1.113,-0.706 2.227,-1.413 3.333,-2.14 l 0.785,-0.51 c 1.286,-0.832 2.527,-1.634 3.612,-2.679 -0.622,1.788 -3.343,4.242 -4.313,5.117 z m -25.162,14.404 c 5.837,-8.286 12.069,-13.99 19.611,-17.954 l 0.615,-0.331 c 1.512,-0.823 5.543,-3.015 7.827,-3.015 0.518,0 0.946,0.113 1.234,0.379 0.029,0.026 0.039,0.06 0.063,0.087 -1.121,1.269 -2.498,2.16 -4.032,3.152 l -0.791,0.514 c -1.102,0.724 -2.211,1.428 -3.32,2.131 -3.412,2.165 -6.94,4.404 -10.101,7.172 -1.029,0.901 -2.123,1.768 -3.181,2.606 -0.867,0.687 -1.73,1.372 -2.576,2.086 -1.581,1.337 -3.073,2.6 -4.441,4.178 -0.379,0.438 -0.708,0.907 -1.026,1.36 -0.361,0.514 -0.717,1.003 -1.121,1.433 0.026,-0.134 0.047,-0.268 0.074,-0.401 0.15,-0.747 0.282,-1.448 0.215,-2.015 0.316,-0.46 0.627,-0.924 0.95,-1.382 z m -2.138,3.17 c -0.002,0.011 -0.004,0.021 -0.006,0.032 -0.167,0.83 -0.356,1.77 -0.273,2.599 l 0.027,0.267 0.238,0.125 c 0.373,0.196 0.779,0.29 1.191,0.317 -3.803,3.789 -7.025,7.663 -9.794,11.788 2.572,-5.023 5.39,-10.177 8.617,-15.128 z m 15.544,-40.772 c 1.978,-1.862 4.069,-3.687 6.091,-5.451 l 0.745,-0.65 c 2.089,-1.825 4.444,-3.058 6.938,-4.364 0.75,-0.393 1.514,-0.793 2.275,-1.213 -2.286,3.098 -5.006,6.389 -8.517,9.11 -1.05,0.814 -2.238,1.528 -3.386,2.218 -1.005,0.604 -2.043,1.229 -3.009,1.928 -0.772,0.561 -1.534,1.468 -2.271,2.346 -0.756,0.901 -1.535,1.828 -2.253,2.293 -0.343,-1.545 2.082,-4.988 3.387,-6.217 z m 9.666,-16.201 c 0.271,-0.123 0.488,-0.163 0.656,-0.163 0.26,0 0.407,0.097 0.473,0.14 0.244,0.16 0.269,0.299 0.26,0.426 -0.085,1.234 -3.401,3.528 -5.903,5.018 0.729,-1.565 2.776,-4.638 4.514,-5.421 z m -17.977,3.143 0.5,-0.051 c -0.154,0.644 -0.289,1.307 -0.302,1.996 l 1,0.019 c 0.011,-0.584 0.125,-1.159 0.267,-1.75 0.075,0.159 0.171,0.322 0.3,0.492 -0.172,0.527 -0.373,1.06 -0.581,1.608 -0.375,0.983 -0.761,2 -0.972,3.024 -0.008,-2.516 -0.135,-4.426 -0.212,-5.338 z m 1.624,-3.505 c 0.058,-0.178 0.109,-0.344 0.163,-0.514 0.059,0.35 0.118,0.61 0.151,0.748 -0.077,0.476 -0.214,0.867 -0.348,1.245 l -0.392,-0.054 c 0.127,-0.481 0.277,-0.965 0.426,-1.425 z m 0.155,7.086 c 0.111,-0.306 0.225,-0.611 0.34,-0.913 0.259,-0.68 0.516,-1.373 0.723,-2.074 0.092,-0.084 0.176,-0.173 0.248,-0.269 -0.224,1.022 -0.771,2.152 -1.311,3.256 z m 2.239,-2.84 0.223,-0.033 0.011,0.462 0.403,0.012 c -0.083,0.184 -0.154,0.373 -0.215,0.565 l 0.022,0.013 c -0.091,0.163 -0.181,0.326 -0.267,0.492 0,-0.001 0,-0.002 0,-0.004 l -0.67,-0.06 c 0.203,-0.486 0.374,-0.97 0.493,-1.447 z m 3.651,-0.18 c 0.007,0.005 0.015,0.006 0.021,0.011 -0.837,1.316 -3.566,6.298 -5.302,9.912 0.096,-0.336 0.189,-0.677 0.291,-1.001 0.21,-0.671 0.479,-1.351 0.762,-2.069 0.473,-1.197 0.944,-2.431 1.166,-3.671 0.264,-0.655 0.599,-1.292 0.97,-1.911 0.019,-0.032 0.039,-0.063 0.057,-0.094 0.31,-0.512 0.64,-1.012 0.976,-1.498 l -0.364,-0.251 0.098,-0.387 -0.011,0.002 c 0.41,-0.429 0.569,-1.233 0.554,-2.045 0.021,1.425 0.195,2.575 0.782,3.002 z m 1.271,-2.373 c -0.549,-0.741 -0.292,-2.423 0.182,-3.568 -0.128,0.46 -0.216,0.931 -0.263,1.38 -0.073,0.691 -0.064,1.492 0.081,2.188 z m 0.051,0.201 c 0.149,0.58 0.4,1.071 0.803,1.321 0.021,0.013 0.055,0.024 0.079,0.037 -0.509,0.338 -0.996,0.525 -1.428,0.482 l -0.188,-0.476 c -0.128,-0.084 -0.26,-0.416 -0.327,-1.263 0.109,0.218 0.249,0.415 0.426,0.581 l 0.635,-0.682 z m 5.471,-3.634 c -0.24,0.286 -0.513,0.632 -0.812,1.01 -0.761,0.963 -1.798,2.272 -2.835,3.228 l -0.133,-0.211 c -0.239,0.153 -0.328,0.098 -0.359,0.079 -0.342,-0.212 -0.618,-1.326 -0.469,-2.757 0.139,-1.337 0.686,-3.038 1.765,-3.429 l -0.249,-0.687 0.369,0.17 c 0.726,0.337 2.715,1.507 2.723,2.597 z m -2.281,-4.207 0.294,0.172 c -0.002,0.004 -0.004,0.009 -0.006,0.013 -0.019,0.016 -0.029,0.042 -0.049,0.055 l -0.365,0.244 c 0.038,-0.15 0.081,-0.312 0.126,-0.484 z m 0.65,-3.154 c -0.042,0.204 -0.021,0.382 0.015,0.517 0.036,0.133 0.097,0.249 0.167,0.356 -0.121,0.257 -0.248,0.542 -0.396,0.891 -0.056,0.132 -0.113,0.265 -0.169,0.395 0.341,-1.315 0.399,-1.77 0.224,-2.068 l -0.223,-0.168 v -0.178 l 0.382,0.255 z m -3.66,3.776 c 0.096,-0.066 0.385,-0.266 1.102,0.002 l 0.593,0.222 0.5,-3.999 c 0.08,0.734 0.083,1.297 0.083,1.308 h 0.181 c -0.098,0.415 -0.228,0.896 -0.324,1.252 -0.152,0.563 -0.293,1.091 -0.349,1.411 l 0.472,0.083 -0.499,0.333 0.132,0.061 c -0.713,0.345 -1.237,1.02 -1.596,1.827 l -0.655,-0.532 c -0.181,0.223 -0.373,0.563 -0.549,0.965 0.122,-1.614 0.426,-2.599 0.909,-2.933 z m -4.182,4.191 c 1.029,-0.734 1.487,-0.71 1.666,-0.632 0.109,0.048 0.203,0.167 0.286,0.326 -0.004,0.122 -0.01,0.257 -0.016,0.406 -0.029,0.707 -0.047,1.389 -0.04,2.024 -0.026,-0.828 -0.229,-1.65 -0.529,-2.071 l -0.814,0.58 c 0.386,0.542 0.494,2.498 0.068,2.924 -0.072,0.071 -0.264,-0.045 -0.371,-0.122 l -0.046,0.064 -0.909,-0.341 c -0.214,0.354 -0.276,0.653 -0.295,0.934 h -0.481 c 0.121,-0.419 0.177,-0.87 0.228,-1.316 0.123,-1.079 0.24,-2.101 1.253,-2.776 z m -2.167,2.031 c -0.032,0.217 -0.057,0.429 -0.08,0.633 -0.04,0.351 -0.08,0.654 -0.136,0.918 l -0.268,-0.034 c 0.045,-0.164 0.103,-0.339 0.179,-0.552 0.102,-0.29 0.214,-0.604 0.305,-0.965 z m -0.924,-10.277 c 0.602,0.085 1.117,0.497 1.313,1.049 0.25,0.708 -0.022,1.594 -0.767,2.53 l -0.198,-0.447 c -0.519,0.23 -0.943,0.241 -1.274,0.087 0.06,-0.141 0.119,-0.288 0.18,-0.418 l -0.789,-0.369 c -0.02,-0.083 -0.032,-0.169 -0.04,-0.257 0.006,-0.006 0.009,-0.015 0.015,-0.021 l -0.019,-0.016 c -0.039,-0.614 0.234,-1.291 0.855,-1.602 l -0.155,-0.308 c 0.305,-0.255 0.701,-0.252 0.879,-0.228 z m -1.296,4.153 c 0.016,0.007 0.03,0.017 0.046,0.023 -0.112,0.636 -0.397,1.443 -0.694,2.286 -0.183,0.519 -0.374,1.063 -0.541,1.611 0.296,-1.12 0.711,-2.605 1.189,-3.92 z m -1.282,-2.272 c -0.513,0.778 -0.796,1.675 -1.036,2.486 -0.15,0.508 -0.297,0.98 -0.482,1.374 0.006,-0.088 0,-0.176 0.009,-0.264 0.137,-1.334 0.649,-2.535 1.509,-3.596 z m -1.522,4.003 0.845,0.433 c 0.254,-0.495 0.422,-1.064 0.6,-1.666 0.131,-0.441 0.264,-0.89 0.433,-1.315 0.033,0.056 0.065,0.111 0.104,0.165 -0.691,1.819 -1.264,4.037 -1.566,5.214 l 0.96,0.247 c -0.14,0.589 -0.227,1.168 -0.224,1.716 -0.669,-1.254 -1.235,-2.988 -1.152,-4.794 z m 1.245,4.973 0.905,-0.041 c -0.053,-1.178 0.48,-2.688 0.95,-4.021 0.315,-0.894 0.615,-1.75 0.74,-2.486 0.103,-0.009 0.204,-0.014 0.313,-0.037 -0.228,0.789 -0.315,1.588 -0.33,2.328 l -0.418,0.062 c 0.077,0.533 -0.218,1.446 -0.531,2.412 -0.341,1.052 -0.697,2.218 -0.72,3.29 -0.004,-0.042 -0.007,-0.075 -0.008,-0.078 l -0.017,-0.153 -0.1,-0.117 c -0.248,-0.292 -0.521,-0.688 -0.784,-1.159 z m -5.095,-12.816 c 1.026,0.983 1.007,4.99 1.001,6.311 l -10e-4,0.28 v 1.697 c 0.002,3.001 0.003,5.906 -0.056,8.814 -0.11,-1.53 -0.251,-3.075 -0.389,-4.579 -0.373,-4.114 -0.76,-8.361 -0.555,-12.523 z m -22.344,30.463 c -0.505,-1.424 -1.014,-2.857 -1.558,-4.293 l -0.184,-0.485 c -1.242,-3.273 -2.527,-6.657 -2.417,-10.098 0.047,-1.474 0.416,-3.127 1.132,-3.498 0.094,-0.049 0.199,-0.073 0.314,-0.073 0.245,0 0.537,0.111 0.872,0.333 1.819,1.202 2.371,5.207 2.736,7.856 0.08,0.581 0.152,1.105 0.228,1.539 0.725,4.138 1.48,7.318 2.449,10.312 1.208,3.731 1.621,7.198 1.714,10.751 -2.291,-3.91 -3.75,-8.018 -5.286,-12.344 z m -26.741,40.324 c 0.13,0.205 0.274,0.41 0.408,0.615 -0.181,-0.192 -0.362,-0.401 -0.542,-0.583 -2.062,-2.08 -4.441,-3.989 -6.741,-5.835 l -0.1,-0.08 c -0.328,-0.263 -0.693,-0.547 -1.08,-0.848 -1.886,-1.468 -4.47,-3.479 -5.42,-5.245 l -0.055,0.03 c -0.224,-0.464 -0.355,-0.89 -0.345,-1.25 0.002,-0.078 0.027,-0.139 0.043,-0.207 0.227,-0.225 0.495,-0.328 0.836,-0.33 3.239,0.073 10.281,9.461 12.996,13.733 z m 9.551,21.126 c -2.302,-4.069 -4.825,-8.449 -7.679,-12.906 -2.372,-3.704 -5.257,-8.063 -8.674,-12.308 -0.293,-0.364 -0.772,-0.863 -1.336,-1.438 0.18,0.141 0.375,0.292 0.538,0.422 l 0.1,0.08 c 2.279,1.829 4.635,3.72 6.657,5.759 3.527,3.558 7.14,9.125 9.911,15.273 l 0.272,0.601 c 1.038,2.292 2.274,5.046 2.778,7.623 -0.988,-1.002 -1.917,-1.957 -2.567,-3.106 z m -49.847,29.096 c 1.691,-1.763 7.173,-1.807 10.449,-1.833 1.147,-0.009 2.053,-0.016 2.613,-0.085 l 1.698,-0.214 c 2.821,-0.36 5.486,-0.701 8.121,-0.701 3.3,0 6.131,0.545 8.908,1.715 3.443,1.45 10.091,5.037 9.993,6.437 -0.013,0.183 -0.328,0.374 -0.842,0.51 -0.274,0.073 -0.58,0.109 -0.909,0.109 -1.719,0 -3.838,-0.97 -5.708,-1.826 -0.856,-0.392 -1.665,-0.762 -2.364,-1.004 -2.423,-0.84 -4.924,-1.199 -8.362,-1.199 -0.359,0 -0.72,0.004 -1.083,0.01 -0.679,0.012 -2.042,0.157 -3.769,0.341 -3.441,0.366 -8.154,0.867 -12.167,0.867 -6.089,0 -7.038,-1.178 -7.062,-1.88 -0.017,-0.482 0.141,-0.89 0.484,-1.247 z" />
    <path
       inkscape:connector-curvature="0"
       id="path675-4"
       d="m 452.12048,322.56716 c -0.396,0.464 -0.807,0.943 -1.083,1.452 l 0.879,0.479 c 0.227,-0.417 0.602,-0.855 0.965,-1.28 0.562,-0.657 1.142,-1.336 1.331,-2.087 l -0.97,-0.243 c -0.132,0.522 -0.636,1.11 -1.122,1.679 z" />
    <path
       inkscape:connector-curvature="0"
       id="path677-2"
       d="m 449.81848,329.46916 c -1.073,1.517 -0.967,4.201 -0.881,6.357 0.021,0.525 0.041,1.012 0.039,1.43 l 1,0.003 c 0.001,-0.43 -0.019,-0.931 -0.04,-1.472 -0.075,-1.899 -0.179,-4.501 0.698,-5.741 l -0.816,-0.577 z" />
    <text
       id="text718-7"
       x="461.10928"
       y="159.20888">
      <tspan
         style="font-size:10px;fill:#9b9da0;font-family:Helvetica"
         id="tspan720-2"
         font-size="10"
         y="159.20888"
         x="461.10928">Seed/</tspan>
      <tspan
         style="font-size:10px;fill:#9b9da0;font-family:Helvetica"
         id="tspan722-4"
         font-size="10"
         y="168.20888"
         x="461.10928">Silique 5</tspan>
    </text>
    <text
       id="text724-7"
       x="551.53168"
       y="129.30696">
      <tspan
         style="font-size:10px;fill:#9b9da0;font-family:Helvetica"
         id="tspan726-6"
         font-size="10"
         y="129.30696"
         x="551.53168">Seed/</tspan>
      <tspan
         style="font-size:10px;fill:#9b9da0;font-family:Helvetica"
         id="tspan728-3"
         font-size="10"
         y="138.30696"
         x="551.53168">Silique 4</tspan>
    </text>
    <text
       style="font-size:10px;fill:#9b9da0;font-family:Helvetica"
       id="text748-9"
       font-size="10"
       x="504.93448"
       y="296.83926">Cauline Leaf</text>
    <text
       style="font-size:10px;fill:#9b9da0;font-family:Helvetica"
       id="text750-5"
       font-size="10"
       x="497.33539"
       y="360.00717">2nd Internode</text>
    <text
       style="font-size:10px;fill:#9b9da0;font-family:Helvetica"
       id="text752-4"
       font-size="10"
       x="496.33539"
       y="413.56479">1st node</text>
    <text
       style="font-size:10px;fill:#9b9da0;font-family:Helvetica"
       id="text754-4"
       font-size="10"
       x="400.16547"
       y="408.00815">Cauline Leaf</text>
  </g>
</svg>
