<?xml version="1.0" encoding="UTF-8" standalone="no"?>
<!-- Created with Inkscape (http://www.inkscape.org/) -->

<svg
   xmlns:dc="http://purl.org/dc/elements/1.1/"
   xmlns:cc="http://creativecommons.org/ns#"
   xmlns:rdf="http://www.w3.org/1999/02/22-rdf-syntax-ns#"
   xmlns:svg="http://www.w3.org/2000/svg"
   xmlns="http://www.w3.org/2000/svg"
   xmlns:sodipodi="http://sodipodi.sourceforge.net/DTD/sodipodi-0.dtd"
   xmlns:inkscape="http://www.inkscape.org/namespaces/inkscape"
   width="100.16627"
   height="97.580276"
   id="svg4059"
   version="1.1"
   inkscape:version="0.48.5 r10040"
   sodipodi:docname="ath-seedling.svg">
  <defs
     id="defs4061" />
  <sodipodi:namedview
     id="base"
     pagecolor="#ffffff"
     bordercolor="#666666"
     borderopacity="1.0"
     inkscape:pageopacity="0.0"
     inkscape:pageshadow="2"
     inkscape:zoom="1.979899"
     inkscape:cx="84.043564"
     inkscape:cy="112.64534"
     inkscape:document-units="px"
     inkscape:current-layer="layer1"
     showgrid="false"
     inkscape:window-width="1920"
     inkscape:window-height="1062"
     inkscape:window-x="1362"
     inkscape:window-y="-4"
     inkscape:window-maximized="1"
     fit-margin-top="0"
     fit-margin-left="0"
     fit-margin-right="0"
     fit-margin-bottom="0" />
  <metadata
     id="metadata4064">
    <rdf:RDF>
      <cc:Work
         rdf:about="">
        <dc:format>image/svg+xml</dc:format>
        <dc:type
           rdf:resource="http://purl.org/dc/dcmitype/StillImage" />
        <dc:title></dc:title>
      </cc:Work>
    </rdf:RDF>
  </metadata>
  <g
     inkscape:label="Layer 1"
     inkscape:groupmode="layer"
     id="layer1"
     transform="translate(-506.1858,-252.73222)">
    <g
       style="fill:#ffffff"
       transform="translate(767.29401,-455.5002)"
       id="Cotyledon-4"
       onclick="mouseClick(this);"
       onmouseover="mouseOverTissue(this);"
       onmouseout="mouseOut();">
      <path
         style="stroke:#000000;stroke-width:0.5;stroke-miterlimit:10"
         inkscape:connector-curvature="0"
         stroke-miterlimit="10"
         d="m -259.763,714.545 c 0,0 6.584,-10.131 28.537,-4.223 3.133,0.785 5.235,3.207 9.118,2.364 3.884,-1.352 11.314,-4.223 25.159,-2.027 5.113,1.113 9.964,5.067 7.263,12.159 -1.857,2.361 -6.248,5.402 -17.562,-0.845 -4.896,-3.041 -9.119,-6.248 -15.366,-5.402 -4.56,0.338 -4.56,0.338 -4.56,0.338 -2.195,-0.677 -5.911,-0.338 -8.779,1.351 -4.053,2.025 -14.017,7.262 -20.263,4.896 -3.547,-1.689 -6.248,-2.701 -3.547,-8.611 z"
         id="path452" />
    </g>
    <g
       style="fill:#ffffff"
       transform="translate(767.29401,-455.5002)"
       id="Hypocotyl-0"
       onclick="mouseClick(this);"
       onmouseover="mouseOverTissue(this);"
       onmouseout="mouseOut();">
      <path
         style="stroke:#000000;stroke-width:0.5;stroke-miterlimit:10"
         inkscape:connector-curvature="0"
         stroke-miterlimit="10"
         d="m -222.594,745.511 c 0,0 -2.106,-0.019 -3.915,0.163 -0.181,0.019 0.064,-27.164 -0.665,-28.765 0,0 3.377,-0.508 4.56,-0.338 0.336,3.714 0.505,18.403 0,29.38"
         id="path455" />
    </g>
    <g
       style="fill:#ffffff"
       transform="translate(767.29401,-455.5002)"
       id="YoungRoot"
       onclick="mouseClick(this);"
       onmouseover="mouseOverTissue(this);"
       onmouseout="mouseOut();">
      <path
         style="stroke:#000000;stroke-width:0.5;stroke-miterlimit:10"
         inkscape:connector-curvature="0"
         stroke-miterlimit="10"
         d="m -226.509,745.672 c 0,0 2.732,-0.332 3.915,-0.161 0,1.199 0.037,1.78 -0.02,3.089 -0.337,4.561 -1.504,4.878 -5.403,10.521 -4.053,4.224 -10.468,10.134 -11.651,11.652 -1.519,3.041 -6.08,14.182 -6.417,16.379 0.169,-6.079 0.337,-15.534 5.234,-19.756 4.054,-3.714 14.415,-14.729 14.167,-17.937 0.175,-1.322 0.135,-1.54 0.175,-3.787 z"
         id="path458" />
    </g>
    <path
       id="path661"
       d="m 530.53801,312.2548 c 0.067,2.171 1.085,4.052 2.4,6.155 m -3.628,7.276 c -0.331,-3.19 -1.147,-7.82 -1.684,-10.413 m -1.863,16.823 c -0.09,-0.722 -0.394,-1.365 -0.687,-1.989 -0.184,-0.392 -0.358,-0.763 -0.476,-1.139 -0.143,-0.46 -0.764,-4.381 -0.851,-4.888 m -0.68,13.917 c -0.325,-2.207 -0.663,-4.491 -0.852,-6.725 l 0.152,-3.313 m -4.205,22.33 c 0.646,-5.365 1.637,-13.843 3.062,-19.228 m -5.764,14.548 c -0.214,-1.766 2.77,-6.078 4.409,-7.924 m 1.339,-9.346 c -1.666,1.212 -3.458,4.688 -4.576,6.22 -0.547,0.751 -1.112,1.521 -1.73,2.249 -0.047,0.042 -0.096,0.101 -0.139,0.17 m 4.162,-9.965 c 0.434,-1.11 0.974,-2.493 1.18,-2.917 0.364,-0.759 1.319,-1.902 1.868,-2.564 m 5.587,-10.649 c -3.749,0.283 -8.216,5.564 -8.807,6.484"
       stroke-miterlimit="10"
       inkscape:connector-curvature="0"
       style="fill:none;stroke:#000000;stroke-width:0.5;stroke-miterlimit:10" />
    <path
       id="path663"
       d="m 571.33901,264.4638 c -0.601,-1.887 -3.422,-3.048 -5.111,-3.744 l -0.317,-0.128 c -2.132,-0.889 -4.448,-1.349 -6.45,-1.708"
       stroke-miterlimit="10"
       inkscape:connector-curvature="0"
       style="fill:none;stroke:#000000;stroke-width:0.5;stroke-miterlimit:10" />
    <path
       id="path665"
       d="M 565.52101,261.5268"
       stroke-miterlimit="10"
       inkscape:connector-curvature="0"
       style="fill:none;stroke:#000000;stroke-width:0.5;stroke-miterlimit:10" />
    <path
       id="path667"
       d="m 528.63701,255.8348 c -2.567,-0.016 -5.557,0.139 -8.149,1.224 -2.042,0.852 -5.46,2.281 -6.486,4.287"
       stroke-miterlimit="10"
       inkscape:connector-curvature="0"
       style="fill:none;stroke:#000000;stroke-width:0.5;stroke-miterlimit:10" />
    <text
       style="font-size:10.13140011px;font-family:Helvetica"
       id="text698"
       font-size="10.1314"
       x="561.40387"
       y="277.23953">Cotyledon</text>
    <text
       style="font-size:10.13140011px;font-family:Helvetica"
       id="text700"
       font-size="10.1314"
       x="547.82556"
       y="298.38022">Hypocotyl</text>
    <text
       style="font-size:10.13140011px;font-family:Helvetica"
       id="text702"
       font-size="10.1314"
       x="537.28912"
       y="319.95096">Root</text>
    <path
       style="fill:#99ff00;fill-opacity:1"
       d="m 565.24223,268.19943 c -1.61791,-0.66525 -4.91353,-2.32937 -7.32361,-3.69806 -6.90315,-3.9203 -6.93093,-3.92692 -15.74617,-3.75114 l -7.82868,0.15612 -4.80712,2.19809 c -10.28916,4.70479 -15.37413,5.58974 -19.54592,3.40163 -2.76038,-1.44782 -3.36256,-2.57695 -2.6955,-5.05423 1.45221,-5.39309 10.61351,-8.84135 20.31007,-7.64458 5.10176,0.62966 7.22857,1.14919 11.61476,2.83721 3.74843,1.44258 4.57234,1.41542 10.78107,-0.35537 3.26561,-0.93138 5.34843,-1.15881 10.85914,-1.18574 8.29533,-0.0405 11.51997,0.6565 14.1879,3.06681 2.47226,2.23353 3.23004,4.43532 2.48227,7.21234 -1.09981,4.08437 -6.30421,5.27742 -12.28821,2.81692 l 0,0 z m 6.08803,-4.87105 c -0.34155,-0.55384 -1.75742,-1.55917 -3.14638,-2.23405 -2.76884,-1.34536 -8.34933,-2.92584 -8.78665,-2.48852 -0.38273,0.38273 1.0273,1.21359 2.07544,1.22296 1.67366,0.015 6.58874,2.15849 8.15183,3.55512 1.73946,1.5542 2.6796,1.52361 1.70576,-0.0555 l 0,0 z m -51.80942,-5.24547 c 1.63986,-0.75 4.2729,-1.43806 6.18718,-1.61682 1.83285,-0.17116 3.33245,-0.53848 3.33245,-0.81627 0,-0.80859 -5.98589,-0.0415 -9.1627,1.17418 -3.16067,1.20952 -6.67552,3.82648 -6.19142,4.60979 0.17991,0.2911 0.87878,-0.0357 1.64619,-0.7697 0.73346,-0.70155 2.61819,-1.86308 4.1883,-2.58118 l 0,0 z"
       id="path4019"
       inkscape:connector-curvature="0" />
    <path
       style="fill:#800080;fill-opacity:1"
       d="m 541.37648,285.41286 c 0,-2.17767 -0.14966,-8.42799 -0.33257,-13.8896 l -0.33257,-9.93021 1.8478,0 1.8478,0 0,13.8896 0,13.88959 -1.51523,0 -1.51523,0 0,-3.95938 z"
       id="path4023"
       inkscape:connector-curvature="0" />
    <path
       style="fill:#800080;fill-opacity:1"
       d=""
       id="path4025"
       inkscape:connector-curvature="0"
       transform="translate(505.45393,252.67637)" />
    <path
       style="fill:#800080;fill-opacity:1"
       d=""
       id="path4027"
       inkscape:connector-curvature="0"
       transform="translate(505.45393,252.67637)" />
    <path
       style="fill:#f4d7d7;fill-opacity:1"
       d="m 521.75346,326.66866 c 0.28234,-4.54257 1.14766,-8.47519 2.45577,-11.16071 0.68274,-1.40165 1.02111,-1.80496 4.41962,-5.26786 6.32809,-6.44798 9.72251,-10.52016 11.47043,-13.76068 0.71097,-1.3181 1.03783,-2.91955 1.0414,-5.10242 0.002,-0.97475 0.12973,-1.04137 2.01029,-1.04517 l 1.20535,-0.002 -10e-4,1.47321 c -0.002,1.87833 -0.27064,3.53109 -0.77724,4.77679 -0.21968,0.54018 -1.30769,2.26785 -2.4178,3.83928 -1.90551,2.69749 -2.34641,3.18145 -7.88996,8.66072 -5.75997,5.69318 -5.88392,5.83074 -6.51658,7.23214 -0.99757,2.2097 -3.15401,7.43655 -4.08887,9.91071 -0.46388,1.22768 -0.88608,2.27233 -0.93824,2.32143 -0.0522,0.0491 -0.0399,-0.79464 0.0273,-1.875 l 0,0 z"
       id="path4029"
       inkscape:connector-curvature="0" />
  </g>
</svg>
