<?xml version="1.0" encoding="UTF-8" standalone="no"?>
<!-- Created with Inkscape (http://www.inkscape.org/) -->

<svg
   xmlns:dc="http://purl.org/dc/elements/1.1/"
   xmlns:cc="http://creativecommons.org/ns#"
   xmlns:rdf="http://www.w3.org/1999/02/22-rdf-syntax-ns#"
   xmlns:svg="http://www.w3.org/2000/svg"
   xmlns="http://www.w3.org/2000/svg"
   xmlns:sodipodi="http://sodipodi.sourceforge.net/DTD/sodipodi-0.dtd"
   xmlns:inkscape="http://www.inkscape.org/namespaces/inkscape"
   width="149.53175"
   height="163.955"
   id="svg3467"
   version="1.1"
   inkscape:version="0.48.3.1 r9886"
   sodipodi:docname="ath-young-plant.svg">
  <defs
     id="defs3469" />
  <sodipodi:namedview
     id="base"
     pagecolor="#ffffff"
     bordercolor="#666666"
     borderopacity="1.0"
     inkscape:pageopacity="0.0"
     inkscape:pageshadow="2"
     inkscape:zoom="1.4"
     inkscape:cx="-44.642853"
     inkscape:cy="111.81559"
     inkscape:document-units="px"
     inkscape:current-layer="layer1"
     showgrid="false"
     fit-margin-top="0"
     fit-margin-left="0"
     fit-margin-right="0"
     fit-margin-bottom="0"
     inkscape:window-width="1024"
     inkscape:window-height="551"
     inkscape:window-x="0"
     inkscape:window-y="0"
     inkscape:window-maximized="1" />
  <metadata
     id="metadata3472">
    <rdf:RDF>
      <cc:Work
         rdf:about="">
        <dc:format>image/svg+xml</dc:format>
        <dc:type
           rdf:resource="http://purl.org/dc/dcmitype/StillImage" />
      </cc:Work>
    </rdf:RDF>
  </metadata>
  <g
     inkscape:label="Layer 1"
     inkscape:groupmode="layer"
     id="layer1"
     transform="translate(-191.8353,-332.78396)">
    <g
       transform="translate(-31.250696,71.236954)"
       id="Vegetative Rosette-6">
      <path
         style="fill:#99cc64"
         inkscape:connector-curvature="0"
         d="m 224.167,294.333 c 0,0 -0.167,-5.333 16.167,-18.667 4.5,-2.833 13.167,-7.333 19.5,-2.833 5.333,3.333 19.5,12.833 19.5,12.833 -2,-2.167 -7,-6.333 -9.333,-8 -2.167,-2.833 -2.833,-4.333 -1.667,-11 0.5,-4.667 0.5,-4.667 0.5,-4.667 2.5,2.167 11.833,9.667 12.333,12.667 -0.167,2.5 0.833,5.5 2.333,7 C 284,279 284.667,278 284.667,278 c 1.5,2.833 6.167,5.834 5.5,10.167 1.167,-0.667 4.5,-3.167 4.167,-10.667 0.333,-4.667 3.833,-10.333 8.667,-11.5 3.333,-0.5 7.333,0 6.833,5 -0.833,2.333 -4.5,8.667 -10.167,11.333 -1.833,2.333 -2.667,3.333 -2.667,3.333 2.667,-1.667 9.834,-4.833 11.167,-5 2,-2.333 9.167,-8.833 19.167,-9.5 4.667,0.333 14.333,2.5 15.333,3 -2,1.167 -6.5,6.833 -7.167,8 2,1.833 9.5,7.167 10.5,9.5 3.667,1.5 9,4.167 10,4.5 -1.167,1.167 -7.833,9.5 -25.833,0.667 -3.5,-3.5 -10,-11.5 -23.333,-10.5 -6,1.5 -14.5,5 -15.667,6 0,1 0.5,1.5 2,1 2.5,-0.667 12.167,-3.667 18.167,4 1.833,2.667 2.833,3.5 2.833,3.5 -1.667,0.833 -9.5,6.167 -16,-0.5 -2.167,-2.667 -4,-4.833 -6.333,-4.667 1.333,2 4.833,7 6.5,8 3.5,1 20,5.167 21.5,12 1.333,5.334 1.833,8.334 1.333,10.334 -2.5,1.333 -11.5,6.5 -21,-5.333 -2.833,-4.167 -4.333,-6.667 -4.833,-14.5 -1.833,-3.667 -2.667,-5.833 -6,-8.667 -1.667,-0.5 -4.167,0 -4.167,0 -2.667,0.5 -6.333,0.167 -9.5,4.5 -3.5,3.5 -10.833,12.999 -22.5,11.833 -3.833,-1.166 -10.5,-5.333 -7.833,-11.667 2,-3.667 7.333,-8.5 8,-9 3.667,-1.333 10.167,-3 19.167,0.333 4.833,0.833 12,1.667 12,1.667 -1.833,-1.667 -7,-8.5 -19.667,-10 -6,0 -11.667,0.5 -19.333,5.667 -3.833,2.167 -5.333,3.333 -12.833,3.333 -4.501,-0.333 -6.334,-0.333 -8.501,0.167 z"
         id="path465-9" />
    </g>
    <g
       transform="translate(-31.250696,71.236954)"
       id="Root-2">
      <path
         style="fill:#cccc97"
         inkscape:connector-curvature="0"
         d="m 285.542,297.333 3.333,-0.208 c -0.167,2.833 -0.542,12.375 -0.542,12.875 -1.167,1.334 -4.5,6.334 -3.333,10.167 1.667,3.167 7.5,10.5 8,14 0,3.5 0.167,8.834 0.167,9.667 -0.333,2.833 -1,5.499 -2.333,8.666 -0.833,2.334 -1.167,4.001 -0.333,7.334 -0.333,2.5 -1.666,6.999 -1.833,10.499 -0.333,3.167 0.5,4.833 1.333,6.5 0.833,2.167 2.333,7.334 2.5,9.667 -0.167,3.166 -1.167,13.832 0.333,17.666 -2.5,-4 -4.167,-8.833 -3.167,-14.333 0.667,-4.333 0.833,-5 0.833,-5 -1.167,-1.333 -5.333,-11.501 -4.667,-16.167 0.667,-4.833 1.5,-11.667 1.333,-15.5 1.667,-4.833 5.5,-12.666 2.667,-18.333 -2.667,-5.5 -8.667,-12 -8.167,-18.5 0.667,-3.667 3,-8.5 3.833,-11.833 0.168,-2.833 0.043,-7.167 0.043,-7.167 z"
         id="path468-4" />
    </g>
    <path
       inkscape:connector-curvature="0"
       id="path685"
       d="m 325.3963,367.25796 c -1.805,-0.555 -4.649,-1.985 -8.253,-3.796 l -1.902,-0.955 c -2.396,-3.052 -7.183,-6.802 -10.035,-8.749 l 0.05,-0.054 c -0.163,-0.152 -0.339,-0.291 -0.522,-0.42 0.534,-0.513 1.211,-1.325 2.133,-2.455 1.583,-1.938 3.75,-4.593 4.954,-4.765 l 0.064,-0.97599 c -0.077,-0.022 -7.782,-2.188 -14.985,-3.18601 -9.532,0.32301 -17.999,6.654 -21.247,10.052 -1.632,0.436 -4.497,1.633 -7.852,3.27 l 0.919,-0.919 c 6.115,-3.417 9.305,-8.292 10.192,-11.51099 0.283,-2.376 -0.144,-4.102 -1.266,-5.12801 -1.893,-1.73099 -5.167,-1.043 -7.334,-0.58599 l -0.145,0.055 c -4.525,2.585 -7.229,6.563 -7.419,10.94299 0.129,6.961 -1.616,8.919 -3.304,10.813 -0.062,0.069 -0.123,0.138 -0.185,0.208 0.016,-3.953 -2.813,-6.887 -4.592,-8.733 -0.403,-0.418 -0.763,-0.791 -1.035,-1.117 l -0.384,-0.461 -0.384,0.461 c -0.078,0.094 -0.641,0.842 -0.859,2.654 l -0.19,0.002 c -0.577,-0.976 -1.217,-2.621 -1.413,-5.117 -1.248,-5.347 -9.888,-12.18599 -12.222,-13.64399 l -0.576,-0.36001 -0.172,0.657 c -3.279,12.491 -0.894,14.239 2.407,16.657 0.305,0.223 0.618,0.453 0.939,0.701 1.525,1.162 3.592,2.93 5.679,4.751 -0.025,-0.017 -0.05,-0.033 -0.076,-0.049 -1.107,-0.831 -13.04,-9.264 -19.288,-12.901 -6.914,-2.633 -14.773,0.206 -23.339,8.423 -9.022,7.83 -10.66,11.598 -11.653,15.073 l -0.266,0.931 3.655,-1.29 c 1.223,0.049 11.971,0.434 16.178,-1.573 5.287,-3.099 11.511,-6.485 18.407,-7.431 8.403,0.109 16.037,3.283 22.174,9.199 -1.99,-0.374 -5.701,-1.033 -10.381,-1.688 -9.302,-3.309 -16.092,-1.901 -20.152,-0.137 l -0.12,0.073 c -11.758,9.743 -8.761,14.104 -6.573,17.289 l 0.205,0.284 c 2.856,2.857 6.232,4.168 10.044,3.879 8.929,-0.66 17.683,-9.913 20.043,-13.1 1.951,-2.601 5.417,-2.937 7.71,-3.159 0.27,-0.026 0.524,-0.051 0.761,-0.077 0.406,6.211 -0.466,8.193 -1.661,10.91 -0.415,0.943 -0.885,2.013 -1.35,3.365 -0.898,2.613 -0.995,5.049 -0.639,7.232 l -0.269,-0.229 c -0.164,0.19 -3.983,4.743 -2.932,9.47 0.317,1.041 0.803,2.088 1.272,3.101 1.342,2.893 2.61,5.624 0.772,8.841 l 0.868,0.496 c 2.095,-3.665 0.592,-6.902 -0.733,-9.758 -0.477,-1.026 -0.927,-1.996 -1.213,-2.934 -0.764,-3.437 1.521,-6.953 2.397,-8.143 0.562,2.535 1.708,4.697 2.857,6.35 0.616,0.987 1.25,1.881 1.863,2.742 1.895,2.668 3.53,4.973 3.894,8.816 -0.113,6.092 -1.47,9.402 -2.461,11.82 -0.465,1.135 -0.866,2.112 -1.039,3.188 l 0.002,0.403 c 0.017,1.904 0.066,7.701 -0.982,12.955 -0.341,1.154 -0.497,2.319 -0.52,3.476 l -0.303,-0.399 c -0.208,0.157 -5.073,3.924 -3.853,9.508 l 0.118,0.525 c 0.959,4.284 1.716,7.667 -1.229,12.783 l 0.866,0.498 c 3.14,-5.452 2.305,-9.182 1.339,-13.499 l -0.117,-0.522 c -0.92,-4.207 2.196,-7.365 3.184,-8.242 0.104,4.512 2.177,8.801 3.549,11.629 0.472,0.975 0.883,1.822 1.104,2.443 -1.267,11.811 -0.051,14.302 2.365,19.252 l 0.351,0.72 c 3.253,7.645 3.128,20.503 3.126,20.632 l 1,0.014 c 0.007,-0.534 0.13,-13.148 -3.197,-21.014 -1.076,-2.922 -1.332,-6.983 -0.809,-12.747 0.341,-2.099 0.372,-4.099 0.207,-5.951 0.704,0.603 1.976,1.903 2.299,3.705 0,3.437 0,6.689 1.689,8.097 0.021,0.271 0.03,0.572 0.04,0.892 0.05,1.563 0.111,3.508 1.493,4.429 l 0.555,-0.832 c -0.953,-0.636 -1.006,-2.295 -1.048,-3.629 -0.014,-0.432 -0.027,-0.833 -0.065,-1.177 l -0.025,-0.227 -0.186,-0.129 c -1.454,-1.019 -1.454,-4.274 -1.461,-7.511 -0.531,-3.01 -3.105,-4.756 -3.215,-4.829 l -0.185,0.276 c -0.646,-5.101 -2.688,-8.938 -3.494,-10.281 -1.063,-1.809 -0.006,-6.42 0.765,-9.785 0.375,-1.633 0.698,-3.042 0.801,-4.078 l 0.006,-0.061 -0.008,-0.061 c -0.666,-4.663 -0.31,-6.543 0.77,-9.178 1.218,-2.09 1.777,-4.573 1.988,-7.217 1,0.619 3.372,2.58 3.248,7.267 -0.317,4.914 -0.101,7.958 1.9,8.956 1.068,0.667 1.936,5.016 1.602,8.021 l 0.994,0.11 c 0.322,-2.896 -0.404,-7.94 -2.107,-9.003 -1.348,-0.674 -1.725,-2.848 -1.39,-8.04 0.16,-6.056 -3.438,-8.065 -4.18,-8.416 0.099,-2.209 -0.008,-4.503 -0.154,-6.752 0.116,-4.894 -2.986,-9.123 -5.479,-12.522 -1.15,-1.568 -2.144,-2.924 -2.535,-3.938 -0.843,-3.511 1.337,-7.257 2.78,-8.813 0.511,1.606 1.694,5.478 2.082,8.051 1.02,4.08 2.09,4.893 3.894,5.975 l 0.515,-0.857 c -1.54,-0.924 -2.47,-1.48 -3.429,-5.312 -0.482,-3.211 -2.141,-8.274 -2.334,-8.856 -0.151,-1.788 -0.147,-9.164 0.339,-11.953 4.694,3.022 5.623,8.709 6.375,13.314 0.202,1.234 0.392,2.4 0.664,3.43 3.136,7.476 7.587,11.993 13.229,13.432 5.54,1.408 10.507,-0.672 12.044,-1.9 l 0.115,-0.093 0.046,-0.14 c 0.232,-0.693 0.157,-7.344 -2.187,-12.533 -1.907,-4.172 -9.644,-6.639 -15.292,-8.441 -2.521,-0.804 -4.7,-1.499 -5.515,-2.073 -2.901,-2.349 -5.178,-5.358 -6.119,-6.9 1.313,0.271 2.398,1.476 3.891,3.236 1.907,2.801 4.542,4.378 7.834,4.688 4.562,0.432 8.896,-1.744 10.099,-2.948 l 0.325,-0.325 -2.917,-3.456 c -4.562,-7.505 -13.195,-5.643 -17.342,-4.748 -0.737,0.159 -1.373,0.296 -1.833,0.348 -0.65,0.108 -0.962,0.125 -1.11,0.115 0.022,-0.119 0.071,-0.294 0.117,-0.456 20.702,-11.91 30.424,-2.912 36.238,2.471 0.84,0.778 1.635,1.513 2.419,2.129 9.779,5.678 18.511,5.663 25.953,-0.042 0.17,-0.131 0.31,-0.238 0.418,-0.314 l 0.838,-0.586 -0.972,-0.299 z m -15.075,-21.556 c -1.337,0.952 -2.852,2.807 -4.229,4.495 -0.791,0.97 -1.74,2.129 -2.266,2.566 -1.242,-0.597 -2.717,-0.892 -4.07,-1.156 -0.477,-0.093 -0.934,-0.182 -1.352,-0.28 -2.326,-0.545 -4.701,-1.102 -7.231,-1.319 0.447,-0.166 0.892,-0.343 1.316,-0.52 0.524,-0.219 1.023,-0.427 1.462,-0.57 1.75,-0.572 3.209,-0.681 5.284,-0.681 0.005,0 0.01,0 0.015,0 v -1 c -0.004,0 -0.009,0 -0.014,0 -2.128,0 -3.729,0.12 -5.597,0.731 -0.46,0.15 -0.983,0.368 -1.535,0.597 -1.188,0.495 -2.532,1.049 -3.496,1.006 l -0.019,0.358 c -0.745,0.013 -1.499,0.05 -2.275,0.144 l -0.695,0.083 c -2.573,0.308 -5.38,0.65 -7.991,1.281 3.756,-3.394 11.121,-8.25699 19.219,-8.53799 5.326,0.742 10.99,2.151 13.474,2.80299 z m -68.933,4.306 c -0.326,-0.252 -0.646,-0.486 -0.957,-0.714 -3.034,-2.223 -5.058,-3.707 -2.206,-14.92199 3.247,2.221 10.182,8.264 11.192,12.56999 0.263,3.418 1.354,5.44 2.187,6.377 0.051,2.253 0.263,4.929 1.576,6.638 0.077,0.101 0.174,0.232 0.282,0.385 -1.043,-0.883 -2.396,-2.071 -3.835,-3.338 -2.846,-2.505 -6.071,-5.345 -8.239,-6.996 z m 20.25,15.226 c 0.484,-0.054 1.112,-0.189 1.907,-0.361 4.223,-0.912 12.085,-2.606 16.322,4.353 l 2.347,2.788 c -1.363,1.03 -5.037,2.729 -8.95,2.363 -2.981,-0.28 -5.37,-1.712 -7.133,-4.296 -1.757,-2.076 -3.282,-3.866 -5.59,-3.675 l -0.691,0.058 0.273,0.637 c 0.484,1.131 3.133,5.047 6.838,8.045 0.967,0.683 3.106,1.365 5.814,2.229 5.47,1.745 12.962,4.135 14.685,7.902 2.125,4.704 2.265,10.636 2.166,11.681 -1.52,1.098 -6.071,2.864 -11.028,1.603 -5.322,-1.354 -9.545,-5.679 -12.532,-12.779 -0.237,-0.917 -0.424,-2.062 -0.622,-3.272 -0.773,-4.735 -1.833,-11.22 -7.45,-14.373 l -0.541,-0.303 -0.182,0.592 c -0.677,2.199 -0.673,10.572 -0.539,12.761 -1.593,1.422 -4.499,5.878 -3.45,10.23 0.458,1.201 1.489,2.606 2.682,4.234 2.403,3.277 5.394,7.355 5.286,11.952 0.339,5.248 0.481,10.694 -1.797,14.61 -1.155,2.807 -1.557,4.879 -0.875,9.699 -0.104,0.973 -0.43,2.393 -0.774,3.896 -0.899,3.921 -1.918,8.364 -0.65,10.52 1.099,1.831 4.581,8.433 3.264,16.531 -0.315,3.468 -0.354,6.342 -0.107,8.743 -1.284,-3.28 -1.677,-6.719 -0.73,-15.479 l 0.012,-0.107 -0.035,-0.104 c -0.23,-0.69 -0.674,-1.604 -1.187,-2.663 -1.835,-3.785 -4.609,-9.503 -2.963,-15.08 1.08,-5.397 1.029,-11.272 1.012,-13.203 l -0.009,-0.313 c 0.147,-0.883 0.511,-1.769 0.971,-2.892 1.021,-2.49 2.42,-5.902 2.534,-12.237 -0.391,-4.168 -2.181,-6.688 -4.077,-9.356 -0.604,-0.853 -1.23,-1.732 -1.844,-2.715 -2.116,-3.042 -4.228,-7.861 -2.271,-13.553 0.451,-1.313 0.913,-2.361 1.32,-3.286 1.286,-2.924 2.215,-5.037 1.706,-11.914 l -0.04,-0.54 -0.535,0.083 c -0.353,0.054 -0.774,0.095 -1.243,0.14 -2.468,0.239 -6.199,0.6 -8.416,3.556 -2.292,3.094 -10.759,12.066 -19.315,12.701 -3.506,0.26 -6.622,-0.948 -9.204,-3.518 l -0.147,-0.214 c -2.076,-3.021 -4.659,-6.78 6.332,-15.906 3.909,-1.684 10.43,-2.998 19.401,0.207 l 0.099,0.024 c 7.066,0.986 11.919,1.984 11.968,1.995 l 1.563,0.323 -1.1,-1.157 c -6.509,-6.852 -14.816,-10.536 -24.096,-10.651 -7.153,0.976 -13.481,4.416 -18.814,7.544 -3.287,1.565 -11.748,1.633 -15.763,1.452 l -0.097,-0.004 -1.991,0.703 c 1.02,-3.094 3.067,-6.717 11.079,-13.671 8.282,-7.94399 15.788,-10.70999 22.235,-8.26299 6.141,3.58299 18.016,11.97499 19.147,12.82199 1.21,0.783 2.521,1.765 3.79,2.715 1.689,1.265 3.148,2.357 3.972,2.667 l 0.365,-0.631 c 0.843,1.396 1.818,3.636 1.014,5.644 l 0.929,0.372 c 1.249,-3.12 -0.917,-6.454 -1.907,-7.742 -0.979,-1.275 -1.253,-3.307 -1.34,-5.199 l 0.283,0.188 v -0.934 c 0,-1.487 0.24,-2.43 0.443,-2.96 0.181,0.194 0.379,0.4 0.589,0.617 1.972,2.045 4.918,5.117 4.189,9.293 -0.474,1.134 -0.524,2.28 -0.566,3.395 -0.039,1.042 -0.076,2.026 -0.454,2.97 l 0.929,0.371 c 0.442,-1.104 0.484,-2.222 0.524,-3.303 0.036,-0.968 0.072,-1.895 0.383,-2.783 l 0.041,0.017 c 0.357,-0.52 0.765,-0.978 1.197,-1.462 1.731,-1.942 3.693,-4.144 3.557,-11.466 0.173,-3.97799 2.668,-7.63699 6.848,-10.049 1.966,-0.41299 4.882,-1.005 6.376,0.36201 0.871,0.796 1.189,2.23399 0.961,4.197 -0.89,3.20299 -4.253,7.80399 -9.761,10.86399 l -3.278,3.25 0.117,0.16 c -2.572,2.256 -4.421,4.501 -5.868,7.118 l 0.276,0.153 c -0.066,0.35 -0.059,0.652 0.163,0.901 0.345,0.387 0.972,0.363 2.053,0.183 z m 38.089,2.444 c -0.694,-0.552 -1.438,-1.241 -2.302,-2.039 -5.883,-5.445 -15.633,-14.457 -36.002,-3.388 1.28,-1.801 2.858,-3.463 4.867,-5.15 3.25,-1.656 6.238,-3.004 8.26,-3.735 l 0.007,0.037 0.19,-0.001 c 0.105,-10e-4 0.211,-0.002 0.316,0.001 l 0.006,-0.162 c 3.197,-1.2 7.159,-1.673 10.668,-2.092 l 0.695,-0.083 c 4.279,-0.519 8.073,0.375 11.741,1.236 0.431,0.101 0.9,0.192 1.39,0.288 1.075,0.209 2.233,0.439 3.246,0.823 l 0.677,0.417 c 2.438,1.5 8.368,5.932 11.033,9.38 l 2.175,1.146 c 3.104,1.56 5.651,2.841 7.503,3.545 -7.022,5.201 -15.272,5.112 -24.47,-0.223 z" />
    <path
       inkscape:connector-curvature="0"
       id="path687"
       d="m 276.9263,391.33496 0.98,-0.195 c -0.856,-4.282 -8.981,-11.473 -9.327,-11.777 l -0.661,0.751 c 0.083,0.07 8.217,7.269 9.008,11.221 z" />
    <path
       inkscape:connector-curvature="0"
       id="path689"
       d="m 273.6083,370.56196 0.948,-0.316 c -0.897,-2.692 -6.709,-4.021 -7.369,-4.164 l -0.211,0.978 c 1.639,0.354 6.023,1.675 6.632,3.502 z" />
    <path
       inkscape:connector-curvature="0"
       id="path691"
       d="m 236.6973,368.78996 c -5.596,0.689 -13.396,5.6 -13.725,5.808 l 0.535,0.845 c 0.079,-0.05 7.94,-4.999 13.312,-5.661 l -0.122,-0.992 z" />
    <path
       inkscape:connector-curvature="0"
       id="path693"
       d="m 229.0903,377.76896 c 0.097,-0.09 9.74,-9.033 15.967,-8.7 l 0.051,-0.999 c -6.625,-0.332 -16.292,8.587 -16.7,8.967 l 0.682,0.732 z" />
    <path
       inkscape:connector-curvature="0"
       id="path695"
       d="m 204.8193,357.97896 0.526,0.85 c 0.117,-0.072 11.86,-7.253 25.719,-6.759 l 0.035,-0.999 c -14.14,-0.491 -26.16,6.834 -26.28,6.908 z" />
    <path
       inkscape:connector-curvature="0"
       id="path697-4"
       d="m 242.5273,343.34196 -0.89,0.45601 c 0.138,0.26999 3.402,6.61199 5.132,7.99599 l 0.625,-0.781 c -1.297,-1.038 -3.953,-5.889 -4.867,-7.671 z" />
    <path
       inkscape:connector-curvature="0"
       id="path699"
       d="m 255.5803,354.95896 c -0.25,-0.355 -0.509,-0.723 -0.723,-1.124 l -0.882,0.471 c 0.243,0.455 0.52,0.849 0.788,1.229 0.358,0.509 0.696,0.989 0.897,1.547 0.266,0.735 0.261,1.608 0.257,2.453 l -0.001,0.37 1,-0.001 0.001,-0.364 c 0.005,-0.932 0.009,-1.895 -0.316,-2.797 -0.248,-0.686 -0.641,-1.244 -1.021,-1.784 z" />
    <path
       inkscape:connector-curvature="0"
       id="path701"
       d="m 266.3693,351.37396 c 0.404,-1.119 0.786,-2.177 1.493,-3.172 1.204,-1.694 2.654,-3.454 4.083,-4.954 l -0.725,-0.68799 c -1.46,1.53399 -2.942,3.33299 -4.174,5.06299 -0.786,1.106 -1.209,2.278 -1.618,3.412 -0.249,0.689 -0.484,1.341 -0.796,1.983 l 0.899,0.438 c 0.337,-0.691 0.592,-1.398 0.838,-2.082 z" />
    <path
       inkscape:connector-curvature="0"
       id="path703"
       d="m 302.3543,358.97296 c -3.367,-2.751 -6.607,-4.349 -9.905,-4.884 -1.527,-0.247 -2.897,-0.224 -4.354,-0.202 -0.427,0.007 -0.859,0.014 -1.306,0.014 -0.34,-0.022 -0.765,-0.022 -1.23,-0.047 -1.709,-0.09 -3.643,-0.191 -4.597,0.472 l 0.571,0.821 c 0.671,-0.467 2.66,-0.362 3.973,-0.294 0.481,0.025 0.921,0.048 1.273,0.048 0.443,0.018 0.896,-0.008 1.332,-0.014 1.409,-0.022 2.736,-0.043 4.177,0.189 3.12,0.506 6.205,2.034 9.432,4.671 0.842,0.687 1.729,1.334 2.585,1.959 1.046,0.763 2.127,1.551 3.114,2.407 l 0.655,-0.755 c -1.02,-0.884 -2.118,-1.686 -3.182,-2.46 -0.843,-0.617 -1.718,-1.255 -2.538,-1.925 z" />
    <text
       style="font-size:10px;fill:#9b9da0;font-family:Helvetica"
       id="text770-4"
       font-size="10"
       x="261.9588"
       y="450.72916">Root</text>
    <text
       id="text772-1"
       x="294.51831"
       y="383.02994">
      <tspan
         style="font-size:10px;fill:#9b9da0;font-family:Helvetica"
         id="tspan774-9"
         font-size="10"
         y="383.02994"
         x="294.51831">Vegetative</tspan>
      <tspan
         style="font-size:10px;fill:#9b9da0;font-family:Helvetica"
         id="tspan776-2"
         font-size="10"
         y="392.02994"
         x="294.51831">Rosette</tspan>
    </text>
  </g>
</svg>
