<?xml version="1.0" encoding="UTF-8" standalone="no"?>
<!-- Created with Inkscape (http://www.inkscape.org/) -->

<svg
   xmlns:dc="http://purl.org/dc/elements/1.1/"
   xmlns:cc="http://creativecommons.org/ns#"
   xmlns:rdf="http://www.w3.org/1999/02/22-rdf-syntax-ns#"
   xmlns:svg="http://www.w3.org/2000/svg"
   xmlns="http://www.w3.org/2000/svg"
   xmlns:sodipodi="http://sodipodi.sourceforge.net/DTD/sodipodi-0.dtd"
   xmlns:inkscape="http://www.inkscape.org/namespaces/inkscape"
   width="148.9615"
   height="144.2345"
   id="svg3467"
   version="1.1"
   inkscape:version="0.48.3.1 r9886"
   sodipodi:docname="ath-young-plant.svg">
  <defs
     id="defs3469" />
  <sodipodi:namedview
     id="base"
     pagecolor="#ffffff"
     bordercolor="#666666"
     borderopacity="1.0"
     inkscape:pageopacity="0.0"
     inkscape:pageshadow="2"
     inkscape:zoom="1.4"
     inkscape:cx="73.423206"
     inkscape:cy="39.694075"
     inkscape:document-units="px"
     inkscape:current-layer="layer1"
     showgrid="false"
     fit-margin-top="0"
     fit-margin-left="0"
     fit-margin-right="0"
     fit-margin-bottom="0"
     inkscape:window-width="1024"
     inkscape:window-height="551"
     inkscape:window-x="0"
     inkscape:window-y="0"
     inkscape:window-maximized="1" />
  <metadata
     id="metadata3472">
    <rdf:RDF>
      <cc:Work
         rdf:about="">
        <dc:format>image/svg+xml</dc:format>
        <dc:type
           rdf:resource="http://purl.org/dc/dcmitype/StillImage" />
      </cc:Work>
    </rdf:RDF>
  </metadata>
  <g
     inkscape:label="Layer 1"
     inkscape:groupmode="layer"
     id="layer1"
     transform="translate(-188.31016,-336.8292)">
    <g
       transform="translate(-35.346093,75.829204)"
       id="Vegetative Rosette"
       style="stroke:#000000;stroke-opacity:1">
      <path
         style="fill:#99cc64;stroke:#000000;stroke-opacity:1"
         inkscape:connector-curvature="0"
         d="m 224.167,294.333 c 0,0 -0.167,-5.333 16.167,-18.667 4.5,-2.833 13.167,-7.333 19.5,-2.833 5.333,3.333 19.5,12.833 19.5,12.833 -2,-2.167 -7,-6.333 -9.333,-8 -2.167,-2.833 -2.833,-4.333 -1.667,-11 0.5,-4.667 0.5,-4.667 0.5,-4.667 2.5,2.167 11.833,9.667 12.333,12.667 -0.167,2.5 0.833,5.5 2.333,7 C 284,279 284.667,278 284.667,278 c 1.5,2.833 6.167,5.834 5.5,10.167 1.167,-0.667 4.5,-3.167 4.167,-10.667 0.333,-4.667 3.833,-10.333 8.667,-11.5 3.333,-0.5 7.333,0 6.833,5 -0.833,2.333 -4.5,8.667 -10.167,11.333 -1.833,2.333 -2.667,3.333 -2.667,3.333 2.667,-1.667 9.834,-4.833 11.167,-5 2,-2.333 9.167,-8.833 19.167,-9.5 4.667,0.333 14.333,2.5 15.333,3 -2,1.167 -6.5,6.833 -7.167,8 2,1.833 9.5,7.167 10.5,9.5 3.667,1.5 9,4.167 10,4.5 -1.167,1.167 -7.833,9.5 -25.833,0.667 -3.5,-3.5 -10,-11.5 -23.333,-10.5 -6,1.5 -14.5,5 -15.667,6 0,1 0.5,1.5 2,1 2.5,-0.667 12.167,-3.667 18.167,4 1.833,2.667 2.833,3.5 2.833,3.5 -1.667,0.833 -9.5,6.167 -16,-0.5 -2.167,-2.667 -4,-4.833 -6.333,-4.667 1.333,2 4.833,7 6.5,8 3.5,1 20,5.167 21.5,12 1.333,5.334 1.833,8.334 1.333,10.334 -2.5,1.333 -11.5,6.5 -21,-5.333 -2.833,-4.167 -4.333,-6.667 -4.833,-14.5 -1.833,-3.667 -2.667,-5.833 -6,-8.667 -1.667,-0.5 -4.167,0 -4.167,0 -2.667,0.5 -6.333,0.167 -9.5,4.5 -3.5,3.5 -10.833,12.999 -22.5,11.833 -3.833,-1.166 -10.5,-5.333 -7.833,-11.667 2,-3.667 7.333,-8.5 8,-9 3.667,-1.333 10.167,-3 19.167,0.333 4.833,0.833 12,1.667 12,1.667 -1.833,-1.667 -7,-8.5 -19.667,-10 -6,0 -11.667,0.5 -19.333,5.667 -3.833,2.167 -5.333,3.333 -12.833,3.333 -4.501,-0.333 -6.334,-0.333 -8.501,0.167 z"
         id="path465" />
    </g>
    <g
       transform="translate(-35.346093,75.829204)"
       id="Root"
       style="stroke:#000000;stroke-opacity:1">
      <path
         style="fill:#cccc97;stroke:#000000;stroke-opacity:1"
         inkscape:connector-curvature="0"
         d="m 285.542,297.333 3.333,-0.208 c -0.167,2.833 -0.542,12.375 -0.542,12.875 -1.167,1.334 -4.5,6.334 -3.333,10.167 1.667,3.167 7.5,10.5 8,14 0,3.5 0.167,8.834 0.167,9.667 -0.333,2.833 -1,5.499 -2.333,8.666 -0.833,2.334 -1.167,4.001 -0.333,7.334 -0.333,2.5 -1.666,6.999 -1.833,10.499 -0.333,3.167 0.5,4.833 1.333,6.5 0.833,2.167 2.333,7.334 2.5,9.667 -0.167,3.166 -1.167,13.832 0.333,17.666 -2.5,-4 -4.167,-8.833 -3.167,-14.333 0.667,-4.333 0.833,-5 0.833,-5 -1.167,-1.333 -5.333,-11.501 -4.667,-16.167 0.667,-4.833 1.5,-11.667 1.333,-15.5 1.667,-4.833 5.5,-12.666 2.667,-18.333 -2.667,-5.5 -8.667,-12 -8.167,-18.5 0.667,-3.667 3,-8.5 3.833,-11.833 0.168,-2.833 0.043,-7.167 0.043,-7.167 z"
         id="path468" />
    </g>
    <path
       inkscape:connector-curvature="0"
       id="path697"
       d="m 237.54191,348.3902 c 0.138,0.27 3.402,6.612 5.132,7.996 -1.00344,-1.15488 -4.19269,-7.34318 -5.132,-7.996 z"
       sodipodi:nodetypes="ccc"
       style="fill:none;stroke:#000000;stroke-opacity:1" />
    <text
       style="font-size:10px;fill:#9b9da0;font-family:Helvetica"
       id="text770"
       font-size="10"
       x="257.8634"
       y="455.32138">Root</text>
    <text
       id="text772"
       x="290.42291"
       y="387.62219">
      <tspan
         style="font-size:10px;fill:#9b9da0;font-family:Helvetica"
         id="tspan774"
         font-size="10"
         y="387.62219"
         x="290.42291">Vegetative</tspan>
      <tspan
         style="font-size:10px;fill:#9b9da0;font-family:Helvetica"
         id="tspan776"
         font-size="10"
         y="396.62219"
         x="290.42291">Rosette</tspan>
    </text>
    <path
       style="fill:none;stroke:#000000;stroke-width:1px;stroke-linecap:butt;stroke-linejoin:miter;stroke-opacity:1"
       d="M 112.5,20.65143 C 107.12713,16.480416 97.714648,16.361672 84.642857,19.312144"
       id="path4631"
       inkscape:connector-curvature="0"
       transform="translate(187.73991,337.3762)"
       sodipodi:nodetypes="cc" />
    <path
       style="fill:none;stroke:#000000;stroke-width:1px;stroke-linecap:butt;stroke-linejoin:miter;stroke-opacity:1"
       d="m 99.107143,16.633573 c 1.881877,-1.404365 4.454497,-2.512698 9.642857,-2.5"
       id="path4633"
       inkscape:connector-curvature="0"
       transform="translate(187.73991,337.3762)"
       sodipodi:nodetypes="cc" />
    <path
       style="fill:none;stroke:#000000;stroke-width:1px;stroke-linecap:butt;stroke-linejoin:miter;stroke-opacity:1"
       d="m 65.178572,33.419287 1.785714,-6.785714"
       id="path4635"
       inkscape:connector-curvature="0"
       transform="translate(187.73991,337.3762)" />
    <path
       style="fill:none;stroke:#000000;stroke-width:1px;stroke-linecap:butt;stroke-linejoin:miter;stroke-opacity:1"
       d="m 60.357143,19.669288 c -0.826766,1.74822 -0.242185,3.4907 0.357143,5.714285 2.253081,3.093474 2.449273,4.882712 2.321428,6.607143"
       id="path4637"
       inkscape:connector-curvature="0"
       transform="translate(187.73991,337.3762)"
       sodipodi:nodetypes="ccc" />
    <path
       style="fill:none;stroke:#000000;stroke-width:1px;stroke-linecap:butt;stroke-linejoin:miter;stroke-opacity:1"
       d="m 64.821429,48.419287 c -0.351344,7.119073 6.68235,8.788968 6.25,15.714286"
       id="path4639"
       inkscape:connector-curvature="0"
       transform="translate(187.73991,337.3762)"
       sodipodi:nodetypes="cc" />
    <path
       style="fill:none;stroke:#000000;stroke-width:1px;stroke-linecap:butt;stroke-linejoin:miter;stroke-opacity:1"
       d="m 58.571428,55.919287 c -7.626305,6.291715 1.514375,10.816531 -5.535713,18.571429"
       id="path4641"
       inkscape:connector-curvature="0"
       transform="translate(187.73991,337.3762)"
       sodipodi:nodetypes="cc" />
    <path
       style="fill:none;stroke:#000000;stroke-width:1px;stroke-linecap:butt;stroke-linejoin:miter;stroke-opacity:1"
       d="m 250.3292,445.97406 c -7.6263,6.29171 1.51438,10.81653 -5.53571,18.57143"
       id="path4641-4"
       inkscape:connector-curvature="0"
       sodipodi:nodetypes="cc" />
    <path
       style="fill:none;stroke:#000000;stroke-width:1px;stroke-linecap:butt;stroke-linejoin:miter;stroke-opacity:1"
       d="m 69.107143,123.59786 c 3.441616,1.36356 5.826214,3.83886 4.821429,11.42857 -1.085818,5.80252 3.478487,2.3982 2.321428,8.57143"
       id="path4674"
       inkscape:connector-curvature="0"
       transform="translate(187.73991,337.3762)"
       sodipodi:nodetypes="ccc" />
    <path
       style="fill:none;stroke:#000000;stroke-width:1px;stroke-linecap:butt;stroke-linejoin:miter;stroke-opacity:1"
       d="m 258.18088,412.5812 c 3.44162,1.36356 5.11192,2.946 4.82143,7.67857 -1.08582,5.80252 1.33563,7.57677 5.17857,11.25"
       id="path4674-2"
       inkscape:connector-curvature="0"
       sodipodi:nodetypes="ccc" />
    <path
       style="fill:none;stroke:#000000;stroke-width:1px;stroke-linecap:butt;stroke-linejoin:miter;stroke-opacity:1"
       d="m 67.946429,30.65143 6.696428,-7.5"
       id="path4694"
       inkscape:connector-curvature="0"
       transform="translate(187.73991,337.3762)" />
    <path
       style="fill:none;stroke:#000000;stroke-width:1px;stroke-linecap:butt;stroke-linejoin:miter;stroke-opacity:1"
       d="m 55.803572,23.687144 7.053571,7.767857"
       id="path4696"
       inkscape:connector-curvature="0"
       transform="translate(187.73991,337.3762)" />
    <path
       style="fill:none;stroke:#000000;stroke-width:1px;stroke-linecap:butt;stroke-linejoin:miter;stroke-opacity:1"
       d="m 279.64348,359.15223 c 15.41011,-0.0287 17.36404,4.34308 23.48605,8.83884"
       id="path4698"
       inkscape:connector-curvature="0"
       sodipodi:nodetypes="cc" />
    <path
       style="fill:none;stroke:#000000;stroke-width:1px;stroke-linecap:butt;stroke-linejoin:miter;stroke-opacity:1"
       d="m 73.75,18.865716 c 1.438088,-3.965408 3.074966,-7.895734 8.482143,-11.1607146"
       id="path4700"
       inkscape:connector-curvature="0"
       transform="translate(187.73991,337.3762)"
       sodipodi:nodetypes="cc" />
    <path
       style="fill:none;stroke:#000000;stroke-width:1px;stroke-linecap:butt;stroke-linejoin:miter;stroke-opacity:1"
       d="m 227.65062,355.43834 c -7.09439,-1.46598 -16.12044,0.93137 -26.78571,6.60714"
       id="path4702"
       inkscape:connector-curvature="0"
       sodipodi:nodetypes="cc" />
    <path
       style="fill:none;stroke:#000000;stroke-width:1px;stroke-linecap:butt;stroke-linejoin:miter;stroke-opacity:1"
       d="m 62.5,21.097859 c 1.741246,1.826506 2.212007,4.605876 2.053572,7.857142"
       id="path4704"
       inkscape:connector-curvature="0"
       transform="translate(187.73991,337.3762)"
       sodipodi:nodetypes="cc" />
    <path
       style="fill:none;stroke:#000000;stroke-width:1px;stroke-linecap:butt;stroke-linejoin:miter;stroke-opacity:1"
       d="m 233.63277,372.93834 c -4.53057,0.7359 -9.16006,2.65884 -13.92857,6.25"
       id="path4706"
       inkscape:connector-curvature="0"
       sodipodi:nodetypes="cc" />
    <path
       style="fill:none;stroke:#000000;stroke-width:1px;stroke-linecap:butt;stroke-linejoin:miter;stroke-opacity:1"
       d="m 238.63277,373.56334 c -10.73712,1.82877 -12.02801,5.43964 -15.44643,8.83929"
       id="path4708"
       inkscape:connector-curvature="0"
       sodipodi:nodetypes="cc" />
    <path
       style="fill:none;stroke:#000000;stroke-width:1px;stroke-linecap:butt;stroke-linejoin:miter;stroke-opacity:1"
       d="m 263.98991,383.92049 c 3.64269,2.77659 10.34659,8.66728 10.17857,11.96428"
       id="path4710"
       inkscape:connector-curvature="0"
       sodipodi:nodetypes="cc" />
    <path
       style="fill:none;stroke:#000000;stroke-width:1px;stroke-linecap:butt;stroke-linejoin:miter;stroke-opacity:1"
       d="m 74.821429,33.77643 c 3.260594,1.08205 8.08415,2.230768 8.303571,4.196429"
       id="path4712"
       inkscape:connector-curvature="0"
       transform="translate(187.73991,337.3762)"
       sodipodi:nodetypes="cc" />
  </g>
</svg>
