<?xml version="1.0" encoding="UTF-8" standalone="no"?>
<!-- Created with Inkscape (http://www.inkscape.org/) -->

<svg
   xmlns:dc="http://purl.org/dc/elements/1.1/"
   xmlns:cc="http://creativecommons.org/ns#"
   xmlns:rdf="http://www.w3.org/1999/02/22-rdf-syntax-ns#"
   xmlns:svg="http://www.w3.org/2000/svg"
   xmlns="http://www.w3.org/2000/svg"
   xmlns:sodipodi="http://sodipodi.sourceforge.net/DTD/sodipodi-0.dtd"
   xmlns:inkscape="http://www.inkscape.org/namespaces/inkscape"
   width="166.34613"
   height="188.271"
   id="svg10635"
   version="1.1"
   inkscape:version="0.48.3.1 r9886"
   sodipodi:docname="New document 30">
  <defs
     id="defs10637" />
  <sodipodi:namedview
     id="base"
     pagecolor="#ffffff"
     bordercolor="#666666"
     borderopacity="1.0"
     inkscape:pageopacity="0.0"
     inkscape:pageshadow="2"
     inkscape:zoom="1.4"
     inkscape:cx="30.899802"
     inkscape:cy="79.84582"
     inkscape:document-units="px"
     inkscape:current-layer="layer1"
     showgrid="false"
     fit-margin-top="0"
     fit-margin-left="0"
     fit-margin-right="0"
     fit-margin-bottom="0"
     inkscape:window-width="1024"
     inkscape:window-height="551"
     inkscape:window-x="0"
     inkscape:window-y="0"
     inkscape:window-maximized="1" />
  <metadata
     id="metadata10640">
    <rdf:RDF>
      <cc:Work
         rdf:about="">
        <dc:format>image/svg+xml</dc:format>
        <dc:type
           rdf:resource="http://purl.org/dc/dcmitype/StillImage" />
        <dc:title></dc:title>
      </cc:Work>
    </rdf:RDF>
  </metadata>
  <g
     inkscape:label="Layer 1"
     inkscape:groupmode="layer"
     id="layer1"
     transform="translate(-345.39837,-381.08383)">
    <g
       transform="translate(150.41055,357.08683)"
       id="Shoot Apex, Inflorescence">
      <path
         style="fill:#979999"
         inkscape:connector-curvature="0"
         d="M 258.5,79.625 258.375,63.5 C 256.25,62.75 243.5,59.25 247.625,50.125 250.875,46 257,38.75 262.5,43 c 1.5,1.375 2,2.125 2,2.125 2,-0.125 3.875,-0.25 8.5,-4.375 4.625,-2.5 15.125,-7.75 21.75,-6.625 6.625,0.875 17.375,2.625 20.875,5.625 3,3 5.5,5.5 5.5,5.5 1.25,0 3.25,-0.375 2.625,-4.375 -0.75,-4.625 -1,-11.75 2.875,-13.625 3.75,-2.25 6.5,-2.75 6.5,-2.75 3.125,0.75 16.125,3.875 22.875,10.75 6.75,6.875 5.375,16 2,23.125 -2.75,4.375 -5.5,9.25 -22,9.5 -2.375,0.5 -4.75,2.625 -4.75,5.75 0.125,2.5 -0.25,5.75 -0.25,5.75 -2.25,0.125 -72.5,0.25 -72.5,0.25 z"
         id="path444" />
    </g>
    <g
       transform="translate(150.41055,357.08683)"
       id="Shoot Apex, Transition">
      <path
         style="fill:#989999"
         inkscape:connector-curvature="0"
         d="M 263.875,148.625 V 132 c 0,0 -9,-6.5 -7.375,-12.625 1.5,-4.625 7,-10.125 11,-8.125 2.625,1.375 3.875,3.75 4.25,4.75 0.5,1.125 1.875,1.875 3.625,0.375 1.625,-1.25 10.875,-7.25 30.25,-4.75 4.25,1.125 9.75,2.25 13.75,5.875 1.875,-0.125 5.625,-0.375 2.75,-4.5 -2.125,-3.25 -2.75,-7.75 3.125,-12.25 4,-2 10.875,-6 18.125,3.125 2.375,3.5 7.75,13.375 1.25,22.125 -3.125,3.75 -6.875,6.875 -17.625,12.5 -0.375,2.25 0,8.875 0,8.875 -3.5,0.125 -63.125,1.25 -63.125,1.25 z"
         id="path447" />
    </g>
    <g
       transform="translate(150.41055,357.08683)"
       id="Shoot Apex, Vegetative">
      <path
         style="fill:#969999"
         inkscape:connector-curvature="0"
         d="m 263.5,194.875 c 0,0 -8.375,-7.375 -4.125,-14.875 2.875,-4.75 6.75,-8 7.375,-7 0,1.25 0.25,8.25 0.25,8.25 2.875,-0.75 30,-4.5 48.25,-0.875 1.75,-0.125 4.5,-0.5 4,-6.25 -0.875,-6.25 -1.25,-8.875 -1.875,-9.5 -0.625,-1 -0.75,-3 3,-2.625 2.75,0.875 15.5,5.625 15.5,24.375 -1.75,2.5 -9,9.875 -8.875,10.375 0.125,2.25 0.5,12.375 0.5,12.375 -5.75,0.125 -63.5,2.375 -63.5,2.375 l -0.5,-16.625 z"
         id="path450" />
    </g>
    <path
       inkscape:connector-curvature="0"
       id="path711"
       d="m 471.36755,518.59383 c -0.52,-0.087 -1.006,-0.131 -1.444,-0.131 -1.7,0 -2.441,0.648 -2.765,1.191 -0.389,0.654 -0.365,1.513 0.117,2.378 0.97,1.163 1.315,3.938 1.754,7.451 0.081,0.652 0.166,1.334 0.259,2.035 0.267,2.337 -0.483,3.732 -1.16,4.49 -0.668,0.749 -1.466,1.084 -1.993,1.088 -5.293,-1.084 -12.463,-1.657 -20.736,-1.657 -11.93599,0 -23.56599,1.192 -27.51699,2.339 -0.064,-1.603 -0.222,-5.701 -0.222,-7.568 v -0.135 l -0.068,-0.117 c -0.207,-0.354 -0.547,-0.549 -0.958,-0.549 -1.943,0 -5.57,4.701 -7.435,7.731 -2.67,6.31 0.565,12.015 4.217,15.062 l 0.508,17.153 0.505,-0.021 c 0.586,-0.023 58.67599,-2.376 63.36799,-2.5 l 0.493,-0.013 -0.006,-0.493 c -0.005,-0.424 -0.121,-10.194 -0.242,-12.5 0.365,-0.569 1.741,-2.03 3.074,-3.445 2.177,-2.312 4.645,-4.931 5.599,-6.545 l 0.066,-0.113 0.003,-0.131 c 0.369,-17.155 -10.592,-23.18 -15.417,-25 z m 9.022,31.106 c -1.915,2.034 -3.013,3.212 -3.301,3.788 l -0.06,0.121 0.008,0.134 c 0.107,1.719 0.217,9.996 0.243,12.109 -6.917,0.222 -56.79199,2.238 -62.38399,2.465 l -0.492,-16.6 -0.179,-0.145 c -1.25,-1.009 -7.323,-6.432 -4.139,-13.973 2.542,-4.114 5.554,-7.188 6.549,-7.188 0.01,0 0.019,0 0.026,10e-4 0.013,2.472 0.248,8.014 0.25,8.072 l 0.03,0.695 0.649,-0.25 c 3.06,-1.177 15.233,-2.488 27.80999,-2.488 8.206,0 15.307,0.566 20.59,1.645 0.896,0.078 2.05,-0.475 2.885,-1.41 1.149,-1.288 1.648,-3.159 1.406,-5.278 -0.093,-0.708 -0.178,-1.387 -0.259,-2.037 -0.477,-3.82 -0.82,-6.579 -1.923,-7.887 -0.258,-0.471 -0.287,-0.96 -0.081,-1.308 0.269,-0.452 0.944,-0.702 1.904,-0.702 0.383,0 0.813,0.04 1.186,0.091 4.519,1.714 14.975,7.469 14.68,23.889 -0.95,1.534 -3.411,4.147 -5.398,6.256 z" />
    <path
       inkscape:connector-curvature="0"
       id="path713"
       d="m 483.98555,454.80783 c -2.436,0 -5.031,0.765 -7.94,2.341 -3.867,2.116 -5.135,4.841 -5.519,6.755 -0.475,2.365 0.132,4.886 1.624,6.751 0.756,0.916 1,1.787 0.686,2.454 -0.378,0.806 -1.597,1.219 -2.702,0.898 -6.395,-4.538 -10.676,-5.775 -21.694,-6.294 -0.999,-0.059 -1.997,-0.089 -2.969,-0.089 -11.47499,0 -17.97799,4.068 -20.19899,5.788 -0.493,0.306 -0.922,0.46 -1.275,0.46 -0.958,0 -1.536,-1.26 -2.206,-2.718 l -0.305,-0.656 -0.07,-0.109 c -1.564,-1.848 -3.415,-2.825 -5.352,-2.825 -2.564,0 -5.188,1.669 -7.809,4.977 -5.497,7.496 2.093,13.73 5.333,16.393 l 0.318,0.263 -0.127,17.151 0.514,-0.01 c 0.563,-0.011 56.32499,-1.125 63.23999,-1.125 h 0.526 l -0.027,-0.526 c -0.004,-0.069 -0.337,-6.566 -0.265,-8.766 4.521,-2.009 13.932,-7.394 17.55,-12.046 6.431,-9.152 1.912,-19.611 -1.257,-23.209 -2.861,-3.888 -6.252,-5.858 -10.075,-5.858 z m 10.53,28.472 c -3.254,4.183 -12.371,9.661 -17.43,11.848 l -0.279,0.121 -0.021,0.305 c -0.107,1.607 0.14,6.947 0.224,8.66 -8.357,0.044 -56.67999,1.003 -62.22099,1.113 l 0.123,-16.598 -0.687,-0.568 c -3.278,-2.693 -10.099,-8.296 -5.173,-15.013 2.41,-3.042 4.77,-4.583 7.013,-4.583 2.033,0 3.587,1.304 4.545,2.42 l 0.272,0.586 c 0.779,1.698 1.516,3.301 3.114,3.301 0.549,0 1.138,-0.2 1.844,-0.64 2.182,-1.686 8.463,-5.608 19.62999,-5.608 0.952,0 1.931,0.029 2.916,0.087 10.826,0.509 14.994,1.718 21.233,6.158 l 0.14,0.069 c 1.592,0.503 3.384,-0.136 3.98,-1.403 0.283,-0.601 0.552,-1.856 -0.814,-3.511 -1.305,-1.631 -1.835,-3.846 -1.419,-5.924 0.343,-1.705 1.49,-4.144 5.018,-6.074 7.063,-3.826 12.282,-2.806 16.761,3.266 3.027,3.439 7.306,13.343 1.231,21.988 z" />
    <path
       inkscape:connector-curvature="0"
       id="path715"
       d="m 483.27555,381.08783 -0.063,-0.004 -0.061,0.011 c -3.905,0.725 -6.723,2.371 -8.374,4.89 -2.521,3.846 -1.791,8.717 -1.028,12.014 0.343,2.141 -0.18,3.133 -0.521,3.534 -0.411,0.483 -1.037,0.618 -1.474,0.35 -6.301,-8.111 -12.035,-9.005 -20.703,-10.357 -0.877,-0.137 -1.785,-0.278 -2.731,-0.434 -1.326,-0.208 -2.696,-0.314 -4.07299,-0.314 -10.37,0 -19.506,5.974 -22.999,8.263 -2.714,2.344 -4.197,2.645 -5.186,2.645 -0.32,0 -0.609,-0.034 -0.88,-0.069 -1.652,-2.172 -3.577,-3.274 -5.725,-3.274 -4.753,0 -9.426,5.504 -11.788,8.785 l -0.053,0.093 c -0.948,2.185 -1.025,4.228 -0.229,6.072 1.786,4.134 7.496,6.191 10.239,7.179 0.3,0.108 0.564,0.203 0.781,0.286 v 16.333 l 0.507,-0.004 c 0.361,-0.003 36.331,-0.281 57.71499,-0.281 7.974,0 12.995,0.039 14.929,0.114 l 0.52,0.021 v -0.52 c 0,-0.05 0.004,-5 0.313,-7.528 0.945,-3.257 4.446,-3.527 8.88,-3.868 2.028,-0.156 4.128,-0.317 6.235,-0.78 13.21,-2.607 14.237,-16.598 14.237,-20.818 0.173,-15.193 -23.402,-22.022 -28.468,-22.339 z m 14.028,42.177 c -2.051,0.45 -4.113,0.609 -6.108,0.762 -4.628,0.356 -8.625,0.664 -9.78,4.664 -0.272,2.19 -0.325,5.857 -0.334,7.212 -2.241,-0.065 -7.094,-0.098 -14.45,-0.098 -20.004,0 -52.76799,0.244 -57.21899,0.277 v -15.991 l -0.303,-0.13 c -0.266,-0.114 -0.657,-0.255 -1.139,-0.429 -2.611,-0.94 -8.046,-2.898 -9.66,-6.635 -0.677,-1.567 -0.607,-3.326 0.207,-5.229 2.26,-3.13 6.657,-8.325 10.945,-8.325 1.868,0 3.567,1.022 5.048,3.039 l 0.127,0.173 0.34,0.043 c 0.319,0.041 0.681,0.087 1.089,0.087 1.162,0 2.875,-0.328 5.786,-2.848 3.372,-2.205 12.327,-8.06 22.398,-8.06 1.32499,0 2.64299,0.102 3.91399,0.302 0.945,0.155 1.856,0.297 2.735,0.434 8.455,1.318 14.041,2.189 20.118,10.045 l 0.104,0.101 c 0.85,0.608 2.109,0.414 2.87,-0.479 0.554,-0.65 1.133,-1.93 0.741,-4.374 -0.729,-3.151 -1.428,-7.749 0.884,-11.274 1.488,-2.27 4.063,-3.765 7.659,-4.444 5.023,0.356 27.634,6.895 27.47,21.331 -0.002,4.035 -0.97,17.384 -13.442,19.846 z" />
    <text
       id="text730"
       x="344.91837"
       y="424.08682">
      <tspan
         style="font-size:10px;fill:#9b9da0;font-family:Helvetica"
         id="tspan732"
         font-size="10"
         y="424.08682"
         x="344.91837">Shoot Apex</tspan>
      <tspan
         style="font-size:10px;fill:#9b9da0;font-family:Helvetica"
         id="tspan734"
         font-size="10"
         y="433.08682"
         x="344.91837">Inflorescence</tspan>
    </text>
    <text
       id="text736"
       x="357.51996"
       y="494.35974">
      <tspan
         style="font-size:10px;fill:#9b9da0;font-family:Helvetica"
         id="tspan738"
         font-size="10"
         y="494.35974"
         x="357.51996">Shoot Apex</tspan>
      <tspan
         style="font-size:10px;fill:#9b9da0;font-family:Helvetica"
         id="tspan740"
         font-size="10"
         y="503.35974"
         x="357.51996">Transition</tspan>
    </text>
    <text
       id="text742"
       x="357.51996"
       y="556.52771">
      <tspan
         style="font-size:10px;fill:#9b9da0;font-family:Helvetica"
         id="tspan744"
         font-size="10"
         y="556.52771"
         x="357.51996">Shoot Apex</tspan>
      <tspan
         style="font-size:10px;fill:#9b9da0;font-family:Helvetica"
         id="tspan746"
         font-size="10"
         y="565.52771"
         x="357.51996">Vegetative</tspan>
    </text>
  </g>
</svg>
