<?xml version="1.0" encoding="UTF-8" standalone="no"?>
<!-- Created with Inkscape (http://www.inkscape.org/) -->

<svg
   xmlns:dc="http://purl.org/dc/elements/1.1/"
   xmlns:cc="http://creativecommons.org/ns#"
   xmlns:rdf="http://www.w3.org/1999/02/22-rdf-syntax-ns#"
   xmlns:svg="http://www.w3.org/2000/svg"
   xmlns="http://www.w3.org/2000/svg"
   xmlns:sodipodi="http://sodipodi.sourceforge.net/DTD/sodipodi-0.dtd"
   xmlns:inkscape="http://www.inkscape.org/namespaces/inkscape"
   width="102.33517"
   height="96.654999"
   id="svg4059"
   version="1.1"
   inkscape:version="0.48.3.1 r9886"
   sodipodi:docname="ath-seedling.svg">
  <defs
     id="defs4061" />
  <sodipodi:namedview
     id="base"
     pagecolor="#ffffff"
     bordercolor="#666666"
     borderopacity="1.0"
     inkscape:pageopacity="0.0"
     inkscape:pageshadow="2"
     inkscape:zoom="1.979899"
     inkscape:cx="70.052356"
     inkscape:cy="57.169977"
     inkscape:document-units="px"
     inkscape:current-layer="layer1"
     showgrid="false"
     inkscape:window-width="1024"
     inkscape:window-height="551"
     inkscape:window-x="0"
     inkscape:window-y="0"
     inkscape:window-maximized="1"
     fit-margin-top="0"
     fit-margin-left="0"
     fit-margin-right="0"
     fit-margin-bottom="0" />
  <metadata
     id="metadata4064">
    <rdf:RDF>
      <cc:Work
         rdf:about="">
        <dc:format>image/svg+xml</dc:format>
        <dc:type
           rdf:resource="http://purl.org/dc/dcmitype/StillImage" />
        <dc:title />
      </cc:Work>
    </rdf:RDF>
  </metadata>
  <g
     inkscape:label="Layer 1"
     inkscape:groupmode="layer"
     id="layer1"
     transform="translate(-505.45393,-252.67637)">
    <g
       transform="translate(351.39441,34.103368)"
       id="Cotyledon">
      <path
         style="fill:#99ff00"
         inkscape:connector-curvature="0"
         d="m 155.667,225.167 c 0,0 6.5,-10 28.167,-4.167 2.667,1.333 5.167,3.167 9,2.333 3.833,-1.333 11.166,-4.167 24.833,-2 2.5,1.5 9.834,5 7.167,12 -1.833,2.333 -6.167,5.333 -17.333,-0.833 -4.833,-3 -9,-6.166 -15.167,-5.333 -4.5,0.333 -4.5,0.333 -4.5,0.333 -2.167,-0.667 -5.834,-0.333 -8.667,1.333 -4,2 -13.833,7.167 -20,4.833 -3.5,-1.666 -6.167,-2.666 -3.5,-8.499 z"
         id="path453" />
    </g>
    <g
       transform="translate(351.39441,34.103368)"
       id="Hypocotyl">
      <path
         style="fill:#cccc98"
         inkscape:connector-curvature="0"
         d="m 187.833,227.5 c 0,0 3.333,-0.5 4.5,-0.333 0.333,3.667 0.5,18.167 0,29 -0.333,4.5 0.5,6.5 -5.333,13 -4,4.167 -10.333,10 -11.5,11.5 -1.5,3 -6,14 -6.333,16.167 0.167,-6 0.333,-15.333 5.167,-19.5 4,-3.667 8.833,-7.5 14.167,-17.833 -0.168,-7.334 0.166,-30.168 -0.668,-32.001 z"
         id="path456" />
    </g>
    <path
       inkscape:connector-curvature="0"
       id="path705"
       d="m 577.05841,262.72437 c -0.583,-2.153 -2.408,-5.215 -7.796,-7.579 l -0.146,-0.039 c -0.384,-0.042 -0.816,-0.095 -1.29,-0.153 -2.375,-0.288 -5.627,-0.683 -9.369,-0.683 -5.51,0 -10.337,0.899 -14.349,2.672 -0.414,0.021 -0.825,0.033 -1.23,0.033 -2.721,0 -4.744,-0.525 -6.213,-1.625 -1.689,-1.093 -7.672,-2.674 -14.072,-2.674 -4.534,0 -10.796,0.821 -14.914,4.771 -1.885,2.217 -2.636,4.757 -2.008,6.794 0.42,1.362 1.672,3.193 5.282,4.185 1.669,0.365 3.04,0.535 4.315,0.535 2.859,0 5.024,-0.831 8.533,-2.585 4.224,-2.331 9.965,-4.682 13.268,-4.682 0.883,0 1.552,0.162 1.994,0.482 0.047,2.666 0.472,27.521 0.17,31.159 -1.077,3.151 -6.166,11.518 -11.845,15.901 -0.672,0.618 -1.293,1.237 -1.873,1.871 -3.7,0.281 -6.793,4.82 -7.376,5.728 l 0.842,0.54 c 1.259,-1.961 3.336,-4.244 5.465,-5.01 -1.659,2.117 -2.834,4.526 -3.478,7.791 l -0.218,-0.276 c -1.051,0.831 -1.649,2.068 -2.177,3.161 -0.22,0.455 -0.738,1.781 -1.195,2.951 -0.315,0.806 -0.672,1.72 -0.743,1.854 l 0.424,0.26 0.042,0.498 c 0.34,-0.029 0.34,-0.029 1.208,-2.248 0.428,-1.096 0.961,-2.46 1.164,-2.88 0.36,-0.746 0.757,-1.566 1.299,-2.22 -0.288,1.896 -0.417,4.067 -0.375,6.611 -0.099,0.676 -0.209,1.287 -0.326,1.861 l -0.14,-0.193 c -1.644,1.197 -2.783,2.759 -3.885,4.27 -0.539,0.739 -1.096,1.502 -1.708,2.219 -0.047,0.044 -0.094,0.099 -0.137,0.168 l 0.795,0.586 c -10e-4,10e-4 -0.002,0.002 -0.002,0.002 10e-4,0 0.002,-0.001 0.003,-0.001 l 0.006,0.004 c 0.004,-0.004 0.007,-0.008 0.011,-0.012 0.043,-0.019 0.089,-0.042 0.139,-0.072 l -0.034,-0.05 c 0.629,-0.738 1.19,-1.508 1.735,-2.255 0.917,-1.257 1.807,-2.443 2.945,-3.446 -0.233,0.955 -0.486,1.82 -0.748,2.709 -0.235,0.799 -0.477,1.626 -0.717,2.563 -2.173,1.592 -4.743,6.08 -4.439,8.611 l 0.993,-0.119 c -0.21,-1.746 1.419,-4.924 3.036,-6.746 -0.545,2.544 -1.044,5.945 -1.365,11.275 l 0.996,0.09 c 0.638,-5.293 1.855,-11.078 3.26,-16.393 0.178,1.482 0.379,2.962 0.593,4.409 0.234,1.588 0.476,3.23 0.654,4.813 l 0.994,-0.112 c -0.181,-1.6 -0.424,-3.25 -0.659,-4.847 -0.321,-2.179 -0.653,-4.432 -0.84,-6.639 l -0.096,0.008 c 0.365,-1.296 0.739,-2.552 1.114,-3.755 0.013,0.073 0.027,0.142 0.04,0.216 0.087,0.51 0.177,1.038 0.338,1.555 0.136,0.439 0.332,0.854 0.521,1.254 0.268,0.567 0.521,1.103 0.589,1.657 l 0.992,-0.122 c -0.088,-0.714 -0.387,-1.348 -0.677,-1.962 -0.182,-0.387 -0.354,-0.752 -0.47,-1.125 -0.141,-0.454 -0.222,-0.926 -0.307,-1.427 -0.099,-0.577 -0.2,-1.173 -0.403,-1.757 l -0.085,0.03 c 1.102,-3.364 2.194,-6.196 3.123,-8.117 0.489,2.408 1.036,5.352 1.326,8.136 l 0.994,-0.104 c -0.328,-3.149 -0.978,-6.491 -1.507,-9.05 l -0.326,0.067 c 0.252,-0.461 0.49,-0.846 0.706,-1.129 0.72,-0.788 1.765,-1.808 2.978,-2.973 0.066,2.144 0.432,3.826 1.729,5.901 l 0.848,-0.53 c -1.347,-2.154 -1.592,-3.789 -1.59,-6.234 h -0.086 c 0.01,-0.009 0.018,-0.018 0.028,-0.027 4.614,-4.417 10.933,-10.467 12.211,-14.689 1.368,-5.643 1.477,-27.113 0.722,-34.592 0.498,-0.123 1.132,-0.189 1.831,-0.189 2.63,0 5.434,0.897 7.503,2.402 1.59,1.145 9.864,6.856 16.606,6.856 2.543,0 4.58,-0.815 6.09,-2.468 0.832,-1.142 1.39,-3.339 0.759,-5.67 z m -1.533,5.041 c -1.277,1.394 -3.066,2.1 -5.317,2.1 -6.435,0 -14.476,-5.554 -16.021,-6.666 -3.217,-2.34 -6.728,-2.592 -8.089,-2.592 -1,0 -1.903,0.128 -2.542,0.36 l -0.371,0.134 0.045,0.392 c 0.873,7.683 0.633,29.341 -0.648,34.632 -1.195,3.944 -7.404,9.889 -11.938,14.229 -1.626,1.557 -3.031,2.902 -3.981,3.946 -1.314,1.725 -3.344,6.738 -5.275,13.038 -0.05,-10.32 2.996,-13.979 6.645,-17.339 5.836,-4.502 11.101,-13.198 12.169,-16.404 l 0.024,-0.113 c 0.332,-3.652 -0.145,-30.417 -0.165,-31.554 l -0.004,-0.212 -0.155,-0.146 c -0.625,-0.583 -1.577,-0.878 -2.832,-0.878 -3.719,0 -9.732,2.589 -13.733,4.797 -4.862,2.431 -7.096,3.066 -12.143,1.965 -2.527,-0.695 -4.063,-1.875 -4.566,-3.509 -0.526,-1.708 0.152,-3.896 1.78,-5.814 3.842,-3.682 9.835,-4.455 14.187,-4.455 6.421,0 12.134,1.612 13.5,2.494 1.62,1.215 3.839,1.806 6.785,1.806 0.453,0 0.913,-0.014 1.376,-0.04 l 0.176,-0.042 c 3.899,-1.741 8.619,-2.623 14.026,-2.623 3.681,0 6.898,0.391 9.248,0.676 0.447,0.054 0.856,0.104 1.224,0.146 4.972,2.199 6.64,4.96 7.163,6.894 0.623,2.301 -0.122,4.16 -0.568,4.778 z" />
    <path
       inkscape:connector-curvature="0"
       id="path707"
       d="m 564.99641,260.92437 -0.314,-0.129 c -2.104,-0.876 -4.389,-1.329 -6.365,-1.684 l -0.177,0.984 c 1.924,0.346 4.146,0.786 6.158,1.623 l 0.318,0.131 c 1.504,0.619 4.021,1.655 4.47,3.072 l 0.953,-0.303 c -0.592,-1.861 -3.378,-3.008 -5.043,-3.694 z" />
    <path
       inkscape:connector-curvature="0"
       id="path709"
       d="m 513.44941,261.54237 0.891,0.456 c 0.847,-1.656 4.132,-3.029 5.917,-3.774 2.35,-0.982 5.129,-1.121 7.552,-1.121 0.028,0 0.057,0 0.085,0 l 10e-4,-1 c -2.534,-0.015 -5.483,0.136 -8.043,1.207 -2.016,0.841 -5.389,2.251 -6.403,4.232 z" />
    <text
       style="font-size:10px;fill:#9b9da0;font-family:Helvetica"
       id="text756"
       font-size="10"
       x="558.1405"
       y="280.02084">Cotyledons</text>
    <text
       style="font-size:10px;fill:#9b9da0;font-family:Helvetica"
       id="text758"
       font-size="10"
       x="545.90216"
       y="301.00427">Hypocotyl</text>
    <text
       style="font-size:10px;fill:#9b9da0;font-family:Helvetica"
       id="text760"
       font-size="10"
       x="529.89539"
       y="327.22836">Root</text>
  </g>
</svg>
